<!DOCTYPE svg PUBLIC "-//W3C//DTD SVG 20010904//EN" "http://www.w3.org/TR/2001/REC-SVG-20010904/DTD/svg10.dtd">
<svg version="1.0" xmlns="http://www.w3.org/2000/svg" width="800px" height="800px" viewBox="0 0 8000 8000" preserveAspectRatio="xMidYMid meet">
<g id="layer101" fill="#6b7376" stroke="none">
 <path d="M710 7336 c0 -2 6 -19 14 -37 13 -31 12 -34 -10 -52 -23 -18 -24 -23 -24 -156 0 -177 -5 -171 152 -171 153 0 148 -5 148 173 0 131 -1 136 -24 154 -16 13 -21 24 -16 34 16 29 21 59 11 59 -6 0 -11 -7 -11 -15 0 -12 -19 -15 -110 -15 -91 0 -110 3 -110 15 0 8 -4 15 -10 15 -5 0 -10 -2 -10 -4z m220 -61 c0 -12 -17 -15 -90 -15 -73 0 -90 3 -90 15 0 12 17 15 90 15 73 0 90 -3 90 -15z m35 -185 l0 -145 -125 0 -125 0 -3 134 c-1 74 0 141 3 148 3 11 32 13 127 11 l123 -3 0 -145z"/>
 <path d="M744 7199 c-10 -17 13 -36 27 -22 12 12 4 33 -11 33 -5 0 -12 -5 -16 -11z"/>
 <path d="M904 7199 c-10 -17 13 -36 27 -22 12 12 4 33 -11 33 -5 0 -12 -5 -16 -11z"/>
 <path d="M744 7127 c-3 -8 -4 -39 -2 -68 l3 -54 95 0 95 0 0 65 0 65 -93 3 c-72 2 -94 0 -98 -11z m176 -57 l0 -50 -80 0 -80 0 0 50 0 50 80 0 80 0 0 -50z"/>
 <path d="M780 6970 c0 -6 27 -10 60 -10 33 0 60 4 60 10 0 6 -27 10 -60 10 -33 0 -60 -4 -60 -10z"/>
 <path d="M1512 7308 c-6 -6 -12 -17 -12 -24 0 -6 -7 -17 -15 -24 -12 -10 -18 -10 -29 0 -8 6 -25 10 -38 8 -27 -4 -37 -41 -17 -64 14 -17 6 -29 -33 -48 -15 -7 -23 -20 -23 -36 0 -16 8 -29 23 -36 39 -19 47 -31 33 -48 -7 -8 -11 -25 -9 -38 4 -27 41 -37 64 -17 17 14 29 6 48 -33 16 -31 56 -31 72 0 19 39 31 47 48 33 8 -7 25 -11 38 -9 27 4 37 41 17 64 -14 17 -6 29 33 48 15 7 23 20 23 36 0 16 -8 29 -23 36 -39 19 -47 31 -33 48 7 8 11 25 9 38 -4 27 -41 37 -64 17 -17 -14 -29 -6 -48 33 -13 26 -45 35 -64 16z m55 -38 c12 -32 38 -39 73 -20 23 12 43 -8 30 -30 -20 -31 -11 -61 20 -73 17 -6 30 -18 30 -27 0 -9 -13 -21 -30 -27 -31 -12 -40 -42 -20 -73 13 -22 -7 -42 -30 -30 -35 19 -61 12 -73 -20 -6 -16 -18 -30 -27 -30 -9 0 -21 14 -27 30 -12 32 -38 39 -73 20 -23 -12 -43 8 -30 30 20 31 11 61 -20 73 -16 6 -30 18 -30 27 0 9 14 21 30 27 32 12 39 38 20 73 -12 23 8 43 30 30 31 -20 61 -11 73 20 6 17 18 30 27 30 9 0 21 -13 27 -30z"/>
 <path d="M1503 7188 c-55 -27 -50 -114 8 -138 89 -37 151 99 63 139 -30 13 -42 13 -71 -1z m79 -25 c22 -20 23 -61 1 -85 -34 -38 -103 -11 -103 40 0 54 62 81 102 45z"/>
 <path d="M3566 7305 c-21 -7 -44 -11 -50 -9 -16 6 -61 -43 -63 -69 -1 -12 -7 -42 -13 -67 -10 -36 -9 -54 1 -90 7 -25 13 -52 12 -61 -3 -21 43 -63 70 -66 12 -1 42 -7 67 -13 36 -10 54 -9 90 1 25 7 52 13 61 12 21 -3 63 43 66 70 1 12 7 42 13 67 10 36 9 54 -1 90 -7 25 -13 52 -14 62 0 22 -46 70 -61 64 -6 -2 -29 2 -50 9 -22 8 -50 14 -64 14 -14 0 -42 -6 -64 -14z m122 -11 c53 -15 8 -61 -60 -62 -36 0 -51 5 -69 24 l-22 24 24 9 c28 11 94 14 127 5z m-145 -42 l27 -28 -23 -22 -23 -22 -29 30 c-28 29 -28 30 -10 50 23 26 26 25 58 -8z m232 8 c18 -20 18 -21 -10 -50 l-29 -30 -23 22 -23 22 27 28 c32 33 35 34 58 8z m-96 -54 c67 -35 65 -143 -4 -174 -51 -23 -107 -7 -131 39 -47 91 44 182 135 135z m128 -54 c7 -53 -4 -112 -21 -112 -43 0 -59 107 -22 148 24 27 36 18 43 -36z m-306 32 c8 -9 14 -39 15 -65 1 -39 -4 -53 -22 -70 l-23 -22 -11 27 c-5 15 -10 44 -10 64 0 76 21 102 51 66z m39 -198 l-30 -31 -22 23 -22 22 29 30 29 30 23 -22 24 -22 -31 -30z m232 -8 l-22 -22 -30 29 -30 29 22 23 22 24 30 -31 31 -30 -23 -22z m-70 5 l22 -22 -28 -11 c-35 -13 -97 -13 -133 1 l-28 11 25 22 c36 30 111 30 142 -1z"/>
 <path d="M4306 7304 c-9 -8 -16 -19 -16 -24 0 -11 29 -40 40 -40 11 0 40 29 40 40 0 11 -29 40 -40 40 -5 0 -16 -7 -24 -16z m44 -24 c0 -13 -7 -20 -20 -20 -13 0 -20 7 -20 20 0 13 7 20 20 20 13 0 20 -7 20 -20z"/>
 <path d="M4865 7307 c-3 -7 -4 -96 -3 -197 l3 -185 105 -3 105 -3 53 54 53 53 -3 145 -3 144 -153 3 c-118 2 -154 0 -157 -11z m295 -136 l0 -130 -47 -3 -48 -3 -3 -47 -3 -48 -90 0 -89 0 0 180 0 180 140 0 140 0 0 -129z m-20 -154 c0 -2 -13 -16 -30 -32 l-30 -29 0 32 c0 29 3 32 30 32 17 0 30 -1 30 -3z"/>
 <path d="M4920 7210 c0 -6 40 -10 100 -10 60 0 100 4 100 10 0 6 -40 10 -100 10 -60 0 -100 -4 -100 -10z"/>
 <path d="M4920 7150 c0 -6 40 -10 100 -10 60 0 100 4 100 10 0 6 -40 10 -100 10 -60 0 -100 -4 -100 -10z"/>
 <path d="M4920 7090 c0 -6 40 -10 100 -10 60 0 100 4 100 10 0 6 -40 10 -100 10 -60 0 -100 -4 -100 -10z"/>
 <path d="M4920 7030 c0 -5 23 -10 50 -10 28 0 50 5 50 10 0 6 -22 10 -50 10 -27 0 -50 -4 -50 -10z"/>
 <path d="M5577 7314 c-4 -4 -7 -49 -7 -100 0 -74 -3 -92 -13 -88 -8 3 -20 -3 -28 -12 -12 -15 -3 -27 85 -110 54 -52 102 -94 106 -94 4 0 52 42 106 94 88 83 97 95 85 110 -8 9 -20 15 -27 12 -10 -4 -14 17 -16 92 l-3 97 -141 3 c-77 1 -143 -1 -147 -4z m273 -112 l0 -98 -65 -64 -65 -64 -65 64 -65 64 0 98 0 98 130 0 130 0 0 -98z m-211 -170 l81 -73 81 73 c82 75 99 87 99 70 0 -5 -40 -46 -90 -91 l-90 -83 -90 83 c-49 45 -90 86 -90 91 0 17 17 5 99 -70z"/>
 <path d="M5710 7200 c0 -27 -3 -30 -30 -30 -16 0 -30 -4 -30 -10 0 -5 14 -10 30 -10 27 0 30 -3 30 -30 0 -16 5 -30 10 -30 6 0 10 14 10 30 0 27 3 30 30 30 17 0 30 5 30 10 0 6 -13 10 -30 10 -27 0 -30 3 -30 30 0 17 -4 30 -10 30 -5 0 -10 -13 -10 -30z"/>
 <path d="M7008 7253 c-38 -38 -74 -76 -80 -87 -9 -16 6 -35 103 -133 l114 -114 85 3 85 3 3 84 3 85 -113 113 c-62 62 -117 113 -121 113 -5 0 -40 -30 -79 -67z m189 -55 l103 -103 0 -77 0 -78 -78 0 -77 0 -105 105 -105 105 75 75 c41 41 77 75 80 75 2 0 51 -46 107 -102z"/>
 <path d="M7186 7054 c-9 -8 -16 -22 -16 -29 0 -7 7 -21 16 -29 8 -9 22 -16 29 -16 7 0 21 7 29 16 9 8 16 22 16 29 0 7 -7 21 -16 29 -8 9 -22 16 -29 16 -7 0 -21 -7 -29 -16z m52 -27 c4 -20 -25 -34 -40 -19 -15 15 -1 44 19 40 10 -2 19 -11 21 -21z"/>
 <path d="M2175 7296 c-83 -31 -145 -133 -130 -215 10 -55 43 -110 78 -131 42 -26 48 -25 37 6 -24 61 -8 139 38 188 48 51 132 71 196 46 31 -11 32 -5 6 37 -38 63 -149 96 -225 69z m138 -20 c18 -7 43 -26 57 -41 l25 -27 -36 7 c-120 22 -246 -104 -224 -224 l7 -36 -31 29 c-39 37 -55 85 -49 148 12 116 142 191 251 144z"/>
 <path d="M6327 7293 c-4 -3 -7 -31 -7 -62 0 -52 -2 -58 -46 -102 -26 -26 -44 -53 -42 -61 7 -18 368 -142 379 -131 14 14 -134 357 -155 361 -9 2 -26 -8 -38 -23 l-21 -26 -26 25 c-29 28 -34 30 -44 19z m200 -165 c34 -83 62 -153 60 -154 -4 -4 -232 185 -235 196 -4 11 99 123 106 115 3 -3 34 -73 69 -157z m-165 90 l-22 -22 0 44 0 44 22 -22 22 -22 -22 -22z m194 -250 c5 -8 1 -9 -12 -4 -10 4 -77 27 -147 51 -174 60 -167 54 -113 103 l46 43 110 -91 c60 -50 113 -96 116 -102z"/>
 <path d="M2724 7277 c-2 -7 -3 -82 -2 -167 l3 -155 205 0 205 0 0 165 0 165 -203 3 c-160 2 -204 0 -208 -11z m396 -20 c0 -7 -22 -35 -50 -62 l-50 -49 -30 29 -30 29 -45 -44 -45 -44 -65 64 c-36 35 -65 70 -65 77 0 10 42 13 190 13 148 0 190 -3 190 -13z m-205 -127 l45 44 30 -29 30 -29 50 49 50 49 0 -122 0 -122 -190 0 -190 0 0 122 0 122 65 -64 65 -64 45 44z"/>
 <path d="M3006 7074 c-9 -8 -16 -22 -16 -29 0 -18 27 -45 45 -45 18 0 45 27 45 45 0 18 -27 45 -45 45 -7 0 -21 -7 -29 -16z m52 -27 c4 -20 -25 -34 -40 -19 -15 15 -1 44 19 40 10 -2 19 -11 21 -21z"/>
 <path d="M4297 7214 c-12 -12 -8 -111 6 -122 6 -5 21 -11 31 -13 28 -6 43 -35 30 -56 -18 -29 -51 -28 -70 1 -33 52 -93 25 -69 -31 39 -92 172 -89 212 5 19 46 5 101 -35 132 -16 13 -29 35 -32 53 -4 27 -10 32 -35 35 -17 2 -34 0 -38 -4z m53 -36 c0 -12 17 -37 40 -58 35 -32 40 -43 40 -79 0 -60 -41 -101 -100 -101 -33 0 -48 6 -71 29 -16 16 -29 37 -29 45 0 24 30 19 56 -9 13 -14 32 -25 44 -25 26 0 60 34 60 60 0 26 -34 60 -60 60 -17 0 -20 7 -20 50 0 43 3 50 20 50 14 0 20 -7 20 -22z"/>
 <path d="M2284 7068 c5 -26 2 -36 -15 -49 -26 -19 -18 -39 16 -39 18 0 26 -7 31 -25 3 -14 10 -25 15 -25 5 0 15 11 21 25 7 16 19 25 34 25 32 0 40 19 15 37 -18 12 -20 21 -15 49 7 38 3 41 -30 19 -20 -13 -25 -13 -42 0 -29 22 -37 18 -30 -17z m70 -6 c16 9 18 8 12 -7 -4 -11 0 -25 10 -36 16 -18 16 -19 -4 -19 -13 0 -23 -9 -28 -22 l-7 -23 -10 23 c-6 12 -19 22 -30 22 -19 0 -19 1 -3 19 10 11 14 25 10 36 -6 15 -4 16 12 7 14 -7 25 -7 38 0z"/>
 <path d="M664 6607 c-2 -7 -3 -60 -2 -118 l3 -104 53 -3 c31 -2 52 1 52 7 0 6 -20 11 -45 11 l-45 0 0 100 0 100 160 0 160 0 0 -100 0 -100 -65 0 c-38 0 -65 -4 -65 -10 0 -7 27 -10 73 -8 l72 3 0 115 0 115 -173 3 c-137 2 -174 0 -178 -11z"/>
 <path d="M2164 6601 c-98 -45 -130 -155 -70 -244 24 -36 19 -61 -10 -50 -20 7 -17 -11 4 -30 23 -21 36 -22 29 -3 -10 25 16 37 51 24 30 -11 45 -38 22 -38 -5 0 -10 -11 -10 -25 0 -23 3 -25 50 -25 47 0 50 2 50 25 0 14 -4 25 -10 25 -23 0 -8 27 22 38 35 13 61 1 51 -24 -7 -20 11 -17 30 4 21 23 22 36 3 29 -29 -11 -34 14 -10 50 44 65 41 136 -8 199 -24 30 -91 64 -128 64 -14 0 -43 -9 -66 -19z m144 -21 c130 -79 74 -280 -78 -280 -85 0 -150 65 -150 150 0 85 65 150 150 150 27 0 58 -8 78 -20z m-68 -319 c0 -11 6 -22 13 -24 6 -3 -4 -5 -23 -5 -19 0 -29 2 -22 5 6 2 12 13 12 24 0 10 5 19 10 19 6 0 10 -9 10 -19z"/>
 <path d="M2206 6474 c-9 -8 -16 -18 -16 -22 1 -17 20 -35 39 -37 11 -1 32 -12 46 -25 33 -31 46 -18 15 15 -13 14 -24 35 -25 46 -2 19 -20 38 -37 39 -4 0 -14 -7 -22 -16z m44 -24 c0 -13 -7 -20 -20 -20 -13 0 -20 7 -20 20 0 13 7 20 20 20 13 0 20 -7 20 -20z"/>
 <path d="M4265 6605 c-83 -29 -145 -132 -130 -214 14 -77 73 -142 146 -161 161 -44 300 132 224 281 -31 58 -116 110 -180 109 -11 -1 -38 -7 -60 -15z m138 -19 c39 -16 82 -61 96 -99 19 -49 11 -147 -11 -147 -9 0 -267 151 -296 173 -10 8 -8 15 10 35 46 50 134 67 201 38z m-84 -168 c177 -106 166 -96 139 -126 -44 -48 -130 -66 -195 -41 -38 14 -83 57 -99 96 -22 50 -16 153 8 153 6 0 71 -37 147 -82z"/>
 <path d="M4293 6519 c-13 -5 -23 -13 -23 -19 0 -7 6 -8 19 0 27 14 81 13 82 -2 1 -7 1 -25 1 -41 -1 -35 30 -54 63 -39 19 9 23 18 21 50 0 22 -4 44 -8 48 -11 10 -129 13 -155 3z m140 -16 c-7 -2 -21 -2 -30 0 -10 3 -4 5 12 5 17 0 24 -2 18 -5z m0 -30 c-7 -2 -21 -2 -30 0 -10 3 -4 5 12 5 17 0 24 -2 18 -5z m7 -33 c0 -5 -11 -10 -25 -10 -14 0 -25 5 -25 10 0 6 11 10 25 10 14 0 25 -4 25 -10z"/>
 <path d="M4251 6403 c6 -16 19 -37 29 -48 13 -14 16 -25 10 -35 -17 -26 -11 -30 40 -30 51 0 57 4 40 30 -5 9 -5 19 2 27 8 10 4 12 -20 7 -38 -8 -66 8 -82 46 -16 37 -33 40 -19 3z m99 -83 c0 -5 -9 -10 -20 -10 -11 0 -20 5 -20 10 0 6 9 10 20 10 11 0 20 -4 20 -10z"/>
 <path d="M6310 6606 c0 -8 5 -18 10 -21 20 -13 9 -41 -35 -88 -47 -51 -71 -112 -59 -150 9 -32 42 -64 71 -72 14 -3 38 -16 55 -28 18 -13 44 -22 68 -22 24 0 50 9 68 22 17 12 41 25 55 28 29 8 62 40 71 72 11 35 -12 99 -49 138 -28 30 -32 40 -23 54 8 14 7 26 -3 50 -8 17 -17 31 -21 31 -12 0 -10 -18 4 -40 9 -15 9 -24 -1 -42 -35 -62 -111 -84 -83 -23 9 20 9 35 0 65 -7 22 -16 40 -20 40 -11 0 -10 -8 4 -46 9 -25 8 -39 -1 -62 -17 -41 -31 -44 -64 -16 -23 20 -26 26 -16 42 9 15 9 26 -2 51 -15 33 -29 41 -29 17z m40 -126 l20 -20 -26 -40 c-19 -28 -27 -55 -28 -85 -1 -52 -15 -57 -51 -20 -31 30 -33 77 -4 125 21 35 46 60 61 60 4 0 17 -9 28 -20z m192 8 c28 -22 58 -82 58 -116 0 -22 -8 -41 -25 -57 -36 -37 -50 -32 -51 20 -1 30 -9 57 -28 85 l-26 40 20 20 c23 23 31 24 52 8z m-64 -72 c41 -62 43 -112 6 -150 -56 -56 -154 -17 -154 61 0 38 10 61 47 111 34 45 60 39 101 -22z"/>
 <path d="M6983 6608 c-30 -47 -33 -67 -33 -208 0 -189 -9 -180 172 -180 177 0 168 -10 167 186 0 123 -4 154 -18 179 -22 37 -61 41 -76 8 -9 -21 -17 -23 -75 -23 -58 0 -66 2 -75 23 -11 25 -49 35 -62 15z m47 -23 c0 -8 -9 -15 -20 -15 -11 0 -20 7 -20 15 0 8 9 15 20 15 11 0 20 -7 20 -15z m220 0 c0 -8 -9 -15 -20 -15 -11 0 -20 7 -20 15 0 8 9 15 20 15 11 0 20 -7 20 -15z m18 -187 l-3 -153 -145 0 -145 0 -3 153 -3 152 151 0 151 0 -3 -152z"/>
 <path d="M7004 6519 c-10 -17 13 -36 27 -22 12 12 4 33 -11 33 -5 0 -12 -5 -16 -11z"/>
 <path d="M7204 6519 c-10 -17 13 -36 27 -22 12 12 4 33 -11 33 -5 0 -12 -5 -16 -11z"/>
 <path d="M7004 6457 c-3 -8 -4 -45 -2 -83 l3 -69 115 0 115 0 0 80 0 80 -113 3 c-88 2 -114 0 -118 -11z m216 -72 l0 -65 -100 0 -100 0 0 65 0 65 100 0 100 0 0 -65z"/>
 <path d="M7050 6270 c0 -6 30 -10 70 -10 40 0 70 4 70 10 0 6 -30 10 -70 10 -40 0 -70 -4 -70 -10z"/>
 <path d="M1364 6586 c-10 -26 4 -48 28 -44 17 2 23 10 23 28 0 18 -6 26 -23 28 -13 2 -25 -3 -28 -12z m36 -16 c0 -5 -4 -10 -10 -10 -5 0 -10 5 -10 10 0 6 5 10 10 10 6 0 10 -4 10 -10z"/>
 <path d="M2724 6587 c-2 -7 -3 -74 -2 -148 l3 -134 67 -3 c64 -3 67 -4 70 -30 3 -26 5 -27 68 -27 63 0 65 1 68 27 3 26 6 27 70 30 l67 3 0 145 0 145 -203 3 c-160 2 -204 0 -208 -11z m56 -137 c0 -123 -1 -130 -20 -130 -19 0 -20 7 -20 130 0 123 1 130 20 130 19 0 20 -7 20 -130z m40 0 c0 -80 -4 -130 -10 -130 -6 0 -10 50 -10 130 0 80 4 130 10 130 6 0 10 -50 10 -130z m200 0 l0 -130 -90 0 -90 0 0 130 0 130 90 0 90 0 0 -130z m40 0 c0 -80 -4 -130 -10 -130 -6 0 -10 50 -10 130 0 80 4 130 10 130 6 0 10 -50 10 -130z m60 0 c0 -123 -1 -130 -20 -130 -19 0 -20 7 -20 130 0 123 1 130 20 130 19 0 20 -7 20 -130z m-140 -170 c0 -17 -7 -20 -50 -20 -43 0 -50 3 -50 20 0 17 7 20 50 20 43 0 50 -3 50 -20z"/>
 <path d="M4820 6596 c0 -2 6 -22 14 -44 13 -35 12 -45 -2 -85 -21 -60 -5 -118 48 -168 105 -100 290 -56 330 79 40 130 -105 251 -249 209 -46 -13 -58 -14 -93 -1 -43 15 -48 16 -48 10z m281 -32 c58 -24 99 -83 99 -144 0 -162 -243 -221 -335 -81 -24 35 -26 46 -20 93 3 29 6 72 7 96 1 43 6 47 43 33 12 -5 32 -3 50 5 42 18 107 17 156 -2z"/>
 <path d="M4972 6486 c-23 -25 -44 -56 -48 -69 -12 -50 33 -90 76 -67 14 8 26 8 40 0 43 -23 88 17 76 67 -7 24 -82 113 -96 113 -4 0 -26 -20 -48 -44z m96 -26 c39 -51 41 -93 4 -98 -13 -2 -30 2 -38 8 -11 10 -17 10 -28 0 -8 -6 -25 -10 -38 -8 -40 5 -36 55 8 106 20 24 41 41 48 39 6 -2 26 -23 44 -47z"/>
 <path d="M5520 6596 c0 -2 6 -22 14 -44 13 -35 12 -45 -2 -85 -21 -60 -5 -118 48 -168 105 -100 290 -56 330 79 40 130 -105 251 -249 209 -46 -13 -58 -14 -93 -1 -43 15 -48 16 -48 10z m281 -32 c58 -24 99 -83 99 -144 0 -162 -243 -221 -335 -81 -24 35 -26 46 -20 93 3 29 6 72 7 96 1 43 6 47 43 33 12 -5 32 -3 50 5 42 18 107 17 156 -2z"/>
 <path d="M5653 6474 c13 -14 32 -19 67 -19 35 0 54 5 67 19 17 18 17 19 -2 10 -11 -4 -40 -8 -65 -8 -25 0 -54 4 -65 8 -19 9 -19 8 -2 -10z"/>
 <path d="M5646 6404 c-9 -8 -16 -19 -16 -24 0 -5 7 -16 16 -24 8 -9 19 -16 24 -16 5 0 16 7 24 16 9 8 16 19 16 24 0 5 -7 16 -16 24 -8 9 -19 16 -24 16 -5 0 -16 -7 -24 -16z m44 -24 c0 -13 -7 -20 -20 -20 -13 0 -20 7 -20 20 0 13 7 20 20 20 13 0 20 -7 20 -20z"/>
 <path d="M5746 6404 c-9 -8 -16 -19 -16 -24 0 -5 7 -16 16 -24 8 -9 19 -16 24 -16 5 0 16 7 24 16 9 8 16 19 16 24 0 5 -7 16 -16 24 -8 9 -19 16 -24 16 -5 0 -16 -7 -24 -16z m44 -24 c0 -13 -7 -20 -20 -20 -13 0 -20 7 -20 20 0 13 7 20 20 20 13 0 20 -7 20 -20z"/>
 <path d="M1440 6570 c0 -6 53 -10 140 -10 87 0 140 4 140 10 0 6 -53 10 -140 10 -87 0 -140 -4 -140 -10z"/>
 <path d="M3436 6554 c-23 -23 -23 -245 0 -268 23 -24 365 -24 388 0 23 23 23 245 0 268 -13 13 -45 16 -194 16 -149 0 -181 -3 -194 -16z m384 -69 l0 -65 -190 0 -190 0 0 65 0 65 190 0 190 0 0 -65z m0 -105 c0 -19 -7 -20 -190 -20 -183 0 -190 1 -190 20 0 19 7 20 190 20 183 0 190 -1 190 -20z m0 -65 l0 -25 -190 0 -190 0 0 25 0 25 190 0 190 0 0 -25z"/>
 <path d="M3694 6506 c-13 -33 4 -47 48 -44 38 3 43 6 43 28 0 22 -5 25 -43 28 -31 2 -44 -1 -48 -12z m76 -16 c0 -5 -13 -10 -30 -10 -16 0 -30 5 -30 10 0 6 14 10 30 10 17 0 30 -4 30 -10z"/>
 <path d="M1364 6486 c-10 -26 4 -48 28 -44 17 2 23 10 23 28 0 18 -6 26 -23 28 -13 2 -25 -3 -28 -12z m36 -16 c0 -5 -4 -10 -10 -10 -5 0 -10 5 -10 10 0 6 5 10 10 10 6 0 10 -4 10 -10z"/>
 <path d="M1440 6470 c0 -6 53 -10 140 -10 87 0 140 4 140 10 0 6 -53 10 -140 10 -87 0 -140 -4 -140 -10z"/>
 <path d="M810 6425 c0 -96 46 -145 136 -145 l37 0 -23 -25 c-38 -41 -13 -42 28 -2 l37 37 -37 37 c-41 40 -66 39 -28 -2 l23 -25 -48 0 c-39 0 -54 5 -77 27 -24 23 -28 34 -28 85 0 32 -4 58 -10 58 -5 0 -10 -20 -10 -45z"/>
 <path d="M1364 6386 c-10 -26 4 -48 28 -44 17 2 23 10 23 28 0 18 -6 26 -23 28 -13 2 -25 -3 -28 -12z m36 -16 c0 -5 -4 -10 -10 -10 -5 0 -10 5 -10 10 0 6 5 10 10 10 6 0 10 -4 10 -10z"/>
 <path d="M1440 6370 c0 -6 53 -10 140 -10 87 0 140 4 140 10 0 6 -53 10 -140 10 -87 0 -140 -4 -140 -10z"/>
 <path d="M1364 6286 c-10 -26 4 -48 28 -44 17 2 23 10 23 28 0 18 -6 26 -23 28 -13 2 -25 -3 -28 -12z m36 -16 c0 -5 -4 -10 -10 -10 -5 0 -10 5 -10 10 0 6 5 10 10 10 6 0 10 -4 10 -10z"/>
 <path d="M1440 6270 c0 -6 53 -10 140 -10 87 0 140 4 140 10 0 6 -53 10 -140 10 -87 0 -140 -4 -140 -10z"/>
 <path d="M2050 5930 c0 -5 9 -10 20 -10 19 0 20 -7 20 -165 0 -108 -4 -172 -12 -184 -6 -10 -8 -26 -5 -35 6 -14 27 -16 157 -16 130 0 151 2 157 16 3 9 1 25 -5 35 -8 12 -12 76 -12 184 0 158 1 165 20 165 11 0 20 5 20 10 0 6 -67 10 -180 10 -113 0 -180 -4 -180 -10z m140 -50 l0 -40 40 0 40 0 0 40 0 40 40 0 40 0 0 -170 0 -170 -120 0 -120 0 0 170 0 170 40 0 40 0 0 -40z m60 10 c0 -23 -4 -30 -20 -30 -16 0 -20 7 -20 30 0 23 4 30 20 30 16 0 20 -7 20 -30z m120 -340 c0 -6 -53 -10 -140 -10 -87 0 -140 4 -140 10 0 6 53 10 140 10 87 0 140 -4 140 -10z"/>
 <path d="M2150 5760 c0 -38 2 -40 30 -40 28 0 30 2 30 40 0 38 -2 40 -30 40 -28 0 -30 -2 -30 -40z m40 0 c0 -11 -4 -20 -10 -20 -5 0 -10 9 -10 20 0 11 5 20 10 20 6 0 10 -9 10 -20z"/>
 <path d="M2250 5760 c0 -38 2 -40 30 -40 28 0 30 2 30 40 0 38 -2 40 -30 40 -28 0 -30 -2 -30 -40z m40 0 c0 -11 -4 -20 -10 -20 -5 0 -10 9 -10 20 0 11 5 20 10 20 6 0 10 -9 10 -20z"/>
 <path d="M2150 5650 c0 -38 2 -40 30 -40 28 0 30 2 30 40 0 38 -2 40 -30 40 -28 0 -30 -2 -30 -40z m40 0 c0 -11 -4 -20 -10 -20 -5 0 -10 9 -10 20 0 11 5 20 10 20 6 0 10 -9 10 -20z"/>
 <path d="M2250 5650 c0 -38 2 -40 30 -40 28 0 30 2 30 40 0 38 -2 40 -30 40 -28 0 -30 -2 -30 -40z m40 0 c0 -11 -4 -20 -10 -20 -5 0 -10 9 -10 20 0 11 5 20 10 20 6 0 10 -9 10 -20z"/>
 <path d="M675 5917 c-3 -7 -4 -82 -3 -167 l3 -155 63 -3 c38 -2 62 1 62 8 0 6 -23 10 -55 10 l-55 0 0 150 0 150 150 0 150 0 0 -150 0 -150 -55 0 c-32 0 -55 -4 -55 -10 0 -7 24 -10 63 -8 l62 3 0 165 0 165 -163 3 c-127 2 -164 0 -167 -11z"/>
 <path d="M1475 5915 c-52 -19 -111 -82 -125 -135 -44 -162 132 -302 281 -225 40 21 87 80 99 126 28 102 -35 209 -141 239 -44 13 -66 12 -114 -5z m139 -19 c19 -8 37 -19 41 -26 9 -14 -233 -262 -250 -257 -19 6 -45 72 -45 114 0 105 75 182 178 183 23 0 58 -6 76 -14z m92 -91 c51 -123 -35 -255 -167 -255 -41 0 -109 23 -109 37 0 10 242 253 253 253 4 0 15 -16 23 -35z"/>
 <path d="M1427 5803 c-11 -10 -8 -143 3 -143 6 0 10 28 10 65 l0 65 64 0 c36 0 68 5 71 10 7 11 -137 14 -148 3z"/>
 <path d="M1635 5765 c-16 -13 -25 -24 -18 -25 6 0 15 5 18 10 12 20 25 9 25 -20 0 -29 -13 -40 -25 -20 -11 18 -25 10 -25 -15 0 -22 -4 -25 -39 -25 -22 0 -43 -4 -46 -10 -4 -6 14 -10 45 -10 43 0 53 3 57 20 4 15 9 17 23 10 29 -15 30 -14 30 50 0 33 -3 60 -7 60 -5 0 -21 -11 -38 -25z"/>
 <path d="M2818 5863 c-38 -38 -74 -76 -80 -87 -9 -16 6 -35 103 -133 l114 -114 85 3 85 3 3 84 3 85 -113 113 c-62 62 -117 113 -121 113 -5 0 -40 -30 -79 -67z m189 -55 l103 -103 0 -77 0 -78 -78 0 -77 0 -105 105 -105 105 75 75 c41 41 77 75 80 75 2 0 51 -46 107 -102z"/>
 <path d="M2996 5664 c-9 -8 -16 -22 -16 -29 0 -18 27 -45 45 -45 18 0 45 27 45 45 0 18 -27 45 -45 45 -7 0 -21 -7 -29 -16z m52 -27 c4 -20 -25 -34 -40 -19 -15 15 -1 44 19 40 10 -2 19 -11 21 -21z"/>
 <path d="M4175 5917 c-3 -7 -4 -96 -3 -197 l3 -185 105 -3 105 -3 53 54 53 53 -3 145 -3 144 -153 3 c-118 2 -154 0 -157 -11z m295 -136 l0 -130 -47 -3 -48 -3 -3 -47 -3 -48 -90 0 -89 0 0 180 0 180 140 0 140 0 0 -129z m-20 -154 c0 -2 -13 -16 -30 -32 l-30 -29 0 32 c0 29 3 32 30 32 17 0 30 -1 30 -3z"/>
 <path d="M4230 5820 c0 -6 40 -10 100 -10 60 0 100 4 100 10 0 6 -40 10 -100 10 -60 0 -100 -4 -100 -10z"/>
 <path d="M4230 5760 c0 -6 40 -10 100 -10 60 0 100 4 100 10 0 6 -40 10 -100 10 -60 0 -100 -4 -100 -10z"/>
 <path d="M4230 5700 c0 -6 40 -10 100 -10 60 0 100 4 100 10 0 6 -40 10 -100 10 -60 0 -100 -4 -100 -10z"/>
 <path d="M4230 5640 c0 -5 23 -10 50 -10 28 0 50 5 50 10 0 6 -22 10 -50 10 -27 0 -50 -4 -50 -10z"/>
 <path d="M4956 5918 c-3 -7 -7 -35 -9 -61 -3 -34 -11 -53 -25 -63 -30 -21 -56 -96 -48 -139 16 -82 107 -140 185 -116 48 14 98 68 107 116 8 43 -18 118 -48 139 -15 11 -22 30 -27 73 l-6 58 -63 3 c-44 2 -63 -1 -66 -10z m114 -18 c0 -5 -22 -10 -50 -10 -27 0 -50 5 -50 10 0 6 23 10 50 10 28 0 50 -4 50 -10z m0 -40 c0 -5 -22 -10 -50 -10 -27 0 -50 5 -50 10 0 6 23 10 50 10 28 0 50 -4 50 -10z m10 -41 c0 -6 16 -29 35 -50 28 -32 35 -47 35 -82 0 -124 -144 -184 -227 -93 -28 30 -33 43 -33 86 0 43 5 55 35 89 19 21 35 44 35 50 0 7 22 11 60 11 38 0 60 -4 60 -11z"/>
 <path d="M5581 5772 c-30 -86 -56 -163 -59 -171 -4 -10 -1 -13 11 -8 9 3 29 -1 45 -9 20 -9 55 -13 110 -12 69 3 84 0 110 -19 37 -27 39 -25 76 80 24 66 26 80 15 94 -26 31 -72 42 -147 36 -74 -6 -132 8 -132 32 0 6 9 38 20 70 23 66 23 65 13 65 -5 0 -32 -71 -62 -158z m53 -17 c28 -12 55 -14 115 -9 65 6 82 4 104 -11 15 -9 27 -22 27 -29 0 -6 -12 -44 -26 -84 -26 -71 -27 -72 -46 -55 -15 14 -44 19 -124 23 -138 7 -144 12 -113 109 13 39 24 71 25 71 1 0 18 -7 38 -15z"/>
 <path d="M6352 5910 c-34 -15 -47 -29 -64 -67 -19 -43 -20 -54 -10 -103 18 -84 92 -179 92 -117 0 30 9 57 20 57 4 0 10 -21 13 -46 5 -44 31 -94 54 -101 6 -2 13 11 16 30 3 18 23 61 45 96 52 80 60 125 33 186 -16 36 -29 50 -63 65 -24 11 -54 20 -68 20 -14 0 -44 -9 -68 -20z m166 -45 c32 -34 34 -41 30 -89 -3 -38 -13 -65 -37 -99 -18 -26 -39 -64 -48 -84 l-15 -37 -16 29 c-9 17 -16 54 -16 83 0 28 -3 52 -7 52 -9 0 -35 -32 -51 -64 l-15 -29 -26 54 c-37 72 -37 136 0 179 35 42 58 51 117 46 42 -3 55 -9 84 -41z"/>
 <path d="M7055 5915 c-83 -29 -145 -132 -130 -214 14 -77 73 -142 146 -161 161 -44 300 132 224 281 -31 58 -116 110 -180 109 -11 -1 -38 -7 -60 -15z m138 -19 c117 -50 144 -210 51 -298 -116 -108 -304 -26 -304 132 0 102 76 179 178 180 23 0 57 -6 75 -14z"/>
 <path d="M7046 5831 c-3 -5 -1 -23 6 -41 10 -31 9 -35 -22 -60 -40 -32 -33 -50 19 -50 34 0 39 -3 47 -32 6 -18 16 -33 24 -33 8 0 18 15 24 33 8 29 13 32 47 32 51 0 58 16 18 49 -31 26 -32 29 -20 61 16 46 1 58 -38 29 l-31 -23 -30 22 c-33 25 -37 26 -44 13z m49 -37 c23 -15 27 -15 50 0 33 22 36 21 23 -15 -10 -28 -8 -33 18 -55 l29 -23 -37 -1 c-32 0 -37 -3 -43 -30 -4 -16 -10 -30 -15 -30 -5 0 -11 14 -15 30 -6 27 -10 30 -47 30 l-41 0 29 22 c16 12 31 23 33 24 2 2 -1 17 -7 33 -13 36 -10 37 23 15z"/>
 <path d="M3598 5906 c-8 -7 -41 -21 -73 -30 -33 -10 -68 -19 -77 -22 -16 -5 -18 -20 -18 -135 0 -122 1 -129 20 -129 14 0 20 -7 20 -21 0 -20 4 -21 46 -14 26 4 62 14 80 22 29 15 36 15 66 0 18 -8 54 -18 81 -22 43 -7 47 -6 47 14 0 14 6 21 20 21 19 0 20 7 20 129 l0 130 -57 16 c-32 9 -67 19 -78 22 -10 3 -25 12 -33 19 -17 18 -47 18 -64 0z m57 -15 c5 -10 39 -22 113 -41 l42 -11 0 -114 c0 -70 -4 -115 -10 -115 -6 0 -10 41 -10 104 l0 104 -44 6 c-24 4 -60 15 -80 25 -35 18 -37 18 -72 0 -20 -10 -56 -21 -80 -25 l-44 -6 0 -104 c0 -63 -4 -104 -10 -104 -6 0 -10 45 -10 114 l0 115 58 15 c31 9 68 22 82 30 30 17 57 20 65 7z m-35 -166 c0 -130 -4 -137 -87 -151 l-43 -7 0 122 0 121 28 0 c15 1 41 7 57 15 17 7 33 14 38 14 4 1 7 -51 7 -114z m126 85 c24 0 24 0 24 -121 l0 -122 -40 6 c-23 3 -52 12 -65 21 -24 16 -25 20 -25 131 l0 114 41 -14 c23 -8 52 -15 65 -15z"/>
 <path d="M800 5725 c-38 -39 -34 -61 5 -25 l25 23 0 -96 c0 -58 4 -97 10 -97 6 0 10 39 10 97 l0 96 25 -23 c39 -36 43 -14 5 25 -19 19 -37 35 -40 35 -3 0 -21 -16 -40 -35z"/>
 <path d="M3500 5122 c0 -106 -2 -121 -20 -137 -11 -10 -20 -26 -20 -35 0 -9 9 -25 20 -35 11 -10 20 -31 20 -47 0 -15 5 -28 10 -28 6 0 10 13 10 28 0 16 9 37 20 47 11 10 20 26 20 35 0 9 -9 25 -20 35 -18 16 -20 31 -20 137 0 72 -4 118 -10 118 -6 0 -10 -46 -10 -118z m35 -172 c0 -18 -6 -26 -23 -28 -13 -2 -25 3 -28 12 -10 26 4 48 28 44 17 -2 23 -10 23 -28z"/>
 <path d="M3620 5217 c0 -13 -9 -32 -20 -42 -11 -10 -20 -26 -20 -35 0 -9 9 -25 20 -35 18 -16 20 -31 20 -142 0 -75 4 -123 10 -123 6 0 10 48 10 123 0 111 2 126 20 142 11 10 20 26 20 35 0 9 -9 25 -20 35 -11 10 -20 29 -20 42 0 12 -4 23 -10 23 -5 0 -10 -11 -10 -23z m35 -77 c0 -18 -6 -26 -23 -28 -13 -2 -25 3 -28 12 -10 26 4 48 28 44 17 -2 23 -10 23 -28z"/>
 <path d="M3740 5142 c0 -86 -3 -101 -20 -117 -11 -10 -20 -26 -20 -35 0 -9 9 -25 20 -35 15 -13 20 -31 20 -67 0 -26 5 -48 10 -48 6 0 10 22 10 48 0 36 5 54 20 67 11 10 20 26 20 35 0 9 -9 25 -20 35 -17 16 -20 31 -20 117 0 59 -4 98 -10 98 -6 0 -10 -39 -10 -98z m35 -152 c0 -18 -6 -26 -23 -28 -13 -2 -25 3 -28 12 -10 26 4 48 28 44 17 -2 23 -10 23 -28z"/>
 <path d="M4157 5234 c-4 -4 -7 -48 -7 -99 0 -51 -5 -96 -11 -102 -6 -6 -9 -28 -7 -49 l3 -39 59 -5 c52 -4 57 -7 43 -19 -22 -18 -21 -44 1 -64 26 -23 45 -21 72 8 l23 24 19 -24 c23 -30 49 -32 71 -7 22 24 22 46 0 63 -14 12 -9 15 43 19 59 5 59 5 62 39 2 19 -1 44 -7 55 -6 12 -12 62 -13 111 l-3 90 -171 3 c-93 1 -173 -1 -177 -4z m163 -104 l0 -90 -75 0 -75 0 0 90 0 90 75 0 75 0 0 -90z m170 0 l0 -90 -75 0 -75 0 0 90 0 90 75 0 75 0 0 -90z m-170 -140 l0 -30 -85 0 -85 0 0 30 0 30 85 0 85 0 0 -30z m190 0 l0 -30 -85 0 -85 0 0 30 0 30 85 0 85 0 0 -30z m-190 -68 c0 -30 -30 -63 -53 -60 -31 4 -34 42 -5 62 30 21 58 20 58 -2z m78 2 c29 -20 26 -58 -5 -62 -23 -3 -53 30 -53 60 0 22 28 23 58 2z"/>
 <path d="M6260 5230 c0 -5 8 -10 18 -10 17 0 62 -38 62 -52 0 -3 -15 -21 -34 -40 -19 -19 -40 -53 -47 -76 -35 -117 86 -238 203 -203 54 16 103 65 119 119 16 56 -1 114 -47 160 -19 19 -34 37 -34 41 0 14 46 51 63 51 9 0 17 5 17 10 0 6 -60 10 -160 10 -100 0 -160 -4 -160 -10z m242 -32 c-17 -18 -34 -22 -82 -23 -51 -1 -64 3 -82 22 l-21 23 103 0 104 0 -22 -22z m-4 -58 c45 -28 72 -76 72 -130 0 -54 -27 -102 -72 -130 -69 -42 -166 -17 -208 52 -60 99 14 228 130 228 27 0 58 -8 78 -20z"/>
 <path d="M6385 5101 c-64 -27 -81 -110 -32 -158 60 -61 162 -19 162 67 0 66 -72 116 -130 91z m90 -36 c50 -49 15 -135 -55 -135 -41 0 -80 39 -80 80 0 41 39 80 80 80 19 0 40 -9 55 -25z"/>
 <path d="M6457 4999 c-3 -11 -15 -23 -26 -26 -24 -6 -28 -23 -6 -23 19 0 55 36 55 55 0 22 -17 18 -23 -6z"/>
 <path d="M6934 5227 c-2 -7 -3 -56 -2 -108 l3 -94 41 -3 c28 -2 49 -11 64 -28 20 -20 33 -24 80 -24 47 0 60 4 80 24 15 17 36 26 64 28 l41 3 0 105 0 105 -183 3 c-146 2 -183 0 -188 -11z m356 -97 l0 -90 -35 0 c-25 0 -41 -7 -57 -25 -18 -21 -30 -25 -78 -25 -48 0 -60 4 -78 25 -16 18 -32 25 -57 25 l-35 0 0 90 0 90 170 0 170 0 0 -90z"/>
 <path d="M7083 5178 c-55 -27 -50 -114 8 -138 89 -37 151 99 63 139 -30 13 -42 13 -71 -1z m79 -25 c38 -34 11 -103 -40 -103 -54 0 -81 62 -45 102 20 22 61 23 85 1z"/>
 <path d="M697 5214 c-4 -4 -7 -45 -7 -90 l0 -83 -32 10 c-41 11 -48 11 -48 -1 0 -5 11 -10 25 -10 13 0 39 -13 57 -29 51 -43 71 -51 142 -51 63 0 66 -1 81 -30 8 -16 26 -37 39 -46 22 -14 29 -14 68 -1 31 11 44 21 46 36 5 30 -15 51 -47 51 -41 0 -60 47 -63 155 -3 89 -3 90 -28 90 -23 0 -25 -4 -28 -52 l-3 -53 -74 0 -74 0 -3 53 c-3 44 -6 52 -23 55 -12 2 -24 0 -28 -4z m33 -57 c0 -24 5 -48 12 -55 16 -16 150 -16 166 0 7 7 12 31 12 55 0 24 4 43 9 43 5 0 11 -44 13 -97 4 -130 2 -133 -115 -124 -112 8 -117 13 -117 133 0 52 4 88 10 88 6 0 10 -19 10 -43z m250 -187 c7 -13 21 -20 40 -20 38 0 41 -32 5 -48 -42 -19 -64 -14 -85 20 -18 30 -18 34 -3 50 21 23 30 23 43 -2z"/>
 <path d="M5570 5214 c0 -3 16 -25 36 -49 l36 -44 -59 -3 -58 -3 0 -115 0 -115 145 0 145 0 3 28 c3 24 7 28 25 23 12 -4 34 -9 50 -12 l27 -6 0 82 0 83 -27 -7 c-16 -3 -38 -8 -50 -12 -18 -5 -22 -1 -25 23 -3 27 -5 28 -61 31 l-59 3 37 45 c21 25 34 48 31 51 -3 4 -7 4 -9 2 -37 -49 -81 -99 -87 -99 -5 0 -26 22 -47 50 -34 44 -53 60 -53 44z m230 -139 c0 -33 19 -40 64 -21 l36 15 0 -69 0 -69 -36 15 c-45 19 -64 12 -64 -21 l0 -25 -130 0 -130 0 0 100 0 100 130 0 130 0 0 -25z"/>
 <path d="M5564 4949 c-10 -17 13 -36 27 -22 12 12 4 33 -11 33 -5 0 -12 -5 -16 -11z"/>
 <path d="M1404 5200 c-56 -22 -86 -103 -60 -163 28 -68 106 -94 183 -62 45 19 46 19 32 -6 -8 -17 -8 -31 0 -60 14 -45 30 -58 45 -37 15 20 73 18 87 -2 8 -13 12 -11 29 9 24 27 26 79 5 107 -8 10 -15 38 -15 62 0 32 -6 49 -25 67 -23 24 -28 25 -177 25 l-153 1 28 24 c40 35 72 40 132 21 28 -9 63 -16 76 -15 14 0 -1 8 -36 19 -64 21 -116 24 -151 10z m274 -92 c7 -7 12 -28 12 -48 0 -35 0 -36 -39 -32 -28 3 -57 -4 -97 -22 -115 -53 -204 -17 -204 83 l0 31 158 0 c110 0 162 -4 170 -12z m19 -113 c27 -19 36 -56 22 -92 -9 -24 -12 -26 -22 -13 -13 16 -73 20 -94 7 -37 -23 -46 53 -11 90 25 27 73 31 105 8z"/>
 <path d="M1635 4980 c-3 -5 3 -10 15 -10 12 0 18 5 15 10 -3 6 -10 10 -15 10 -5 0 -12 -4 -15 -10z"/>
 <path d="M1606 4951 c-4 -5 -2 -12 3 -15 5 -4 12 -2 15 3 4 5 2 12 -3 15 -5 4 -12 2 -15 -3z"/>
 <path d="M1676 4951 c-4 -5 -2 -12 3 -15 5 -4 12 -2 15 3 4 5 2 12 -3 15 -5 4 -12 2 -15 -3z"/>
 <path d="M4946 5186 c-22 -8 -51 -23 -65 -34 -27 -20 -91 -98 -91 -111 0 -19 63 -93 99 -117 112 -73 254 -43 335 73 29 41 29 42 11 70 -68 107 -188 156 -289 119z m194 -41 c24 -16 54 -46 67 -67 l25 -37 -21 -35 c-40 -65 -114 -106 -191 -106 -77 0 -151 41 -191 106 l-21 34 21 34 c22 35 74 79 113 96 13 5 53 9 89 7 55 -2 74 -8 109 -32z"/>
 <path d="M4970 5143 c-95 -49 -83 -183 20 -214 53 -16 107 10 134 65 17 36 18 43 5 79 -25 71 -96 102 -159 70z m121 -32 c64 -65 20 -171 -71 -171 -33 0 -48 6 -71 29 -23 23 -29 38 -29 71 0 33 6 48 29 71 23 23 38 29 71 29 33 0 48 -6 71 -29z"/>
 <path d="M4980 5080 c-11 -11 -20 -29 -20 -40 0 -11 9 -29 20 -40 11 -11 29 -20 40 -20 11 0 29 9 40 20 11 11 20 29 20 40 0 11 -9 29 -20 40 -11 11 -29 20 -40 20 -11 0 -29 -9 -40 -20z m70 -15 c26 -32 -13 -81 -47 -59 -35 22 -23 74 17 74 10 0 23 -7 30 -15z"/>
 <path d="M2085 5090 l-60 -60 62 -62 c34 -34 66 -59 70 -55 4 4 -15 30 -42 57 l-49 50 182 0 c115 0 182 4 182 10 0 6 -68 10 -185 10 l-184 0 49 46 c47 44 60 64 42 64 -4 0 -34 -27 -67 -60z"/>
 <path d="M3000 5143 c0 -4 21 -29 47 -55 l47 -48 -182 0 c-115 0 -182 -4 -182 -10 0 -6 67 -10 182 -10 l182 0 -49 -50 c-27 -27 -46 -53 -42 -57 4 -4 36 21 70 55 l62 62 -60 60 c-56 56 -75 70 -75 53z"/>
 <path d="M7110 4914 c0 -32 -2 -35 -15 -24 -28 23 -29 0 -2 -28 l27 -27 27 27 c27 28 26 51 -2 28 -13 -11 -15 -8 -15 24 0 20 -4 36 -10 36 -5 0 -10 -16 -10 -36z"/>
 <path d="M7033 4555 c-14 -10 -23 -28 -25 -53 -3 -35 -5 -37 -41 -40 -27 -2 -42 -10 -54 -28 l-16 -26 141 -140 140 -141 26 16 c18 12 26 27 28 54 3 36 5 38 41 41 27 2 42 10 54 28 l16 25 -139 140 c-76 76 -141 139 -144 139 -3 0 -15 -7 -27 -15z m162 -135 c127 -127 129 -129 111 -149 -12 -14 -26 -19 -40 -15 -28 7 -61 -27 -53 -55 3 -12 -3 -27 -15 -37 -18 -17 -23 -14 -150 114 -128 127 -131 132 -114 150 10 12 25 18 37 15 27 -7 62 25 55 51 -5 18 18 56 33 56 4 0 64 -58 136 -130z"/>
 <path d="M7032 4437 c-23 -23 -42 -47 -42 -53 0 -13 153 -164 166 -164 13 0 94 82 94 96 0 13 -153 164 -166 164 -5 0 -29 -19 -52 -43z m166 -164 l-42 -43 -78 77 -78 77 42 43 42 43 78 -77 78 -77 -42 -43z"/>
 <path d="M727 4554 c-4 -4 -7 -42 -7 -85 0 -77 1 -79 35 -110 29 -27 35 -39 35 -73 0 -46 -7 -59 -32 -69 -23 -8 -23 -39 0 -60 26 -24 193 -24 213 -1 11 14 10 19 -9 34 -26 22 -28 47 -5 72 9 10 14 21 11 24 -9 8 -68 -25 -75 -42 -11 -30 -23 -12 -23 34 0 43 4 53 35 81 l36 32 -3 82 -3 82 -101 3 c-55 1 -103 0 -107 -4z m191 -71 l-3 -58 -45 2 c-25 0 -64 2 -87 4 l-43 2 0 54 0 53 90 0 91 0 -3 -57z m-30 -76 c17 0 32 -4 32 -8 0 -4 -16 -21 -35 -38 -19 -17 -35 -37 -35 -46 0 -8 -9 -15 -20 -15 -11 0 -20 7 -20 15 0 8 -16 30 -37 48 -49 45 -39 62 31 52 28 -4 66 -8 84 -8z m-38 -137 c0 -5 -9 -10 -20 -10 -11 0 -20 5 -20 10 0 6 9 10 20 10 11 0 20 -4 20 -10z m76 -36 c-3 -9 -6 -20 -6 -25 0 -5 -7 -9 -15 -9 -18 0 -19 4 -3 30 15 24 33 27 24 4z m-62 -18 c8 -14 25 -27 36 -31 45 -14 17 -26 -57 -23 -65 3 -78 6 -81 21 -2 10 3 17 12 17 8 0 18 9 21 20 9 28 49 26 69 -4z m96 -46 c0 -5 -4 -10 -10 -10 -5 0 -10 5 -10 10 0 6 5 10 10 10 6 0 10 -4 10 -10z"/>
 <path d="M2224 4546 c-17 -8 -40 -26 -50 -41 -37 -53 -55 -67 -77 -61 -12 3 -32 9 -44 12 -22 6 -22 5 -12 -26 9 -24 9 -42 0 -71 -16 -54 -5 -104 33 -144 84 -89 242 -60 281 52 18 52 21 57 50 98 18 27 20 43 13 128 -1 12 2 33 6 45 7 22 6 23 -16 16 -25 -9 -40 -9 -108 0 -29 4 -56 1 -76 -8z m115 -15 c8 -6 24 -6 38 0 21 8 23 6 23 -19 0 -15 3 -47 6 -72 5 -38 2 -50 -16 -70 -15 -18 -23 -21 -27 -12 -23 56 -94 102 -158 102 -47 0 -45 24 4 57 35 24 103 31 130 14z m-72 -101 c83 -37 109 -130 53 -193 -39 -45 -79 -61 -139 -55 -85 8 -140 70 -127 144 4 21 7 56 7 77 -1 39 2 40 34 28 12 -5 32 -3 50 5 42 18 73 17 122 -6z"/>
 <path d="M2100 4324 c-11 -12 -10 -18 3 -32 16 -15 18 -15 34 0 13 14 14 20 3 32 -7 9 -16 16 -20 16 -4 0 -13 -7 -20 -16z m30 -14 c0 -5 -4 -10 -10 -10 -5 0 -10 5 -10 10 0 6 5 10 10 10 6 0 10 -4 10 -10z"/>
 <path d="M2180 4324 c-11 -12 -10 -18 3 -32 16 -15 18 -15 34 0 13 14 14 20 3 32 -7 9 -16 16 -20 16 -4 0 -13 -7 -20 -16z m30 -14 c0 -5 -4 -10 -10 -10 -5 0 -10 5 -10 10 0 6 5 10 10 10 6 0 10 -4 10 -10z"/>
 <path d="M2260 4324 c-11 -12 -10 -18 3 -32 16 -15 18 -15 34 0 13 14 14 20 3 32 -7 9 -16 16 -20 16 -4 0 -13 -7 -20 -16z m30 -14 c0 -5 -4 -10 -10 -10 -5 0 -10 5 -10 10 0 6 5 10 10 10 6 0 10 -4 10 -10z"/>
 <path d="M2787 4554 c-4 -4 -7 -49 -7 -100 0 -74 -3 -92 -13 -88 -8 3 -20 -3 -28 -12 -12 -15 -3 -27 85 -110 54 -52 102 -94 106 -94 4 0 52 42 106 94 88 83 97 95 85 110 -8 9 -20 15 -27 12 -10 -4 -14 17 -16 92 l-3 97 -141 3 c-77 1 -143 -1 -147 -4z m273 -112 l0 -98 -65 -64 -65 -64 -65 64 -65 64 0 98 0 98 130 0 130 0 0 -98z m-211 -170 l81 -73 81 73 c82 75 99 87 99 70 0 -5 -40 -46 -90 -91 l-90 -83 -90 83 c-49 45 -90 86 -90 91 0 17 17 5 99 -70z"/>
 <path d="M2886 4460 c-45 -50 -54 -84 -31 -110 20 -23 45 -26 63 -8 9 9 15 9 24 0 31 -31 85 8 74 53 -7 25 -71 105 -86 105 -4 0 -24 -18 -44 -40z m83 -17 c34 -41 40 -80 15 -90 -9 -3 -25 -1 -35 6 -15 8 -23 8 -38 0 -25 -16 -51 -4 -51 23 0 23 54 98 70 98 5 0 22 -17 39 -37z"/>
 <path d="M3556 4538 c-15 -14 -28 -39 -32 -62 l-7 -39 38 6 c21 3 46 14 56 23 18 16 20 16 38 0 10 -9 35 -20 56 -23 l38 -6 -7 39 c-10 56 -45 84 -106 84 -37 0 -55 -6 -74 -22z m64 -20 c0 -29 -28 -58 -57 -58 -27 0 -31 25 -7 58 21 30 64 30 64 0z m84 0 c23 -33 20 -58 -6 -58 -29 0 -58 28 -58 57 0 31 43 32 64 1z"/>
 <path d="M4266 4545 c-58 -21 -69 -34 -52 -67 14 -27 14 -28 -19 -34 -18 -3 -47 -14 -64 -25 -31 -19 -31 -19 -16 -50 9 -17 29 -38 44 -47 27 -15 27 -17 13 -45 -27 -55 28 -114 83 -89 39 18 51 53 31 92 -14 30 -14 31 2 24 9 -4 28 -8 42 -8 14 0 33 4 42 8 16 7 16 6 2 -24 -20 -39 -8 -74 31 -92 55 -25 110 34 83 89 -14 28 -14 30 13 45 15 9 35 30 44 47 15 31 15 31 -16 50 -17 11 -47 22 -65 26 -34 6 -34 6 -19 35 14 28 14 30 -9 45 -27 18 -82 35 -111 35 -11 -1 -38 -7 -59 -15z m139 -19 c43 -18 44 -30 4 -67 -25 -24 -40 -29 -79 -29 -39 0 -54 5 -79 29 -39 37 -39 49 2 66 42 19 109 19 152 1z m-132 -102 c13 -5 13 -9 0 -35 -8 -16 -12 -38 -8 -49 6 -18 2 -20 -38 -20 -36 0 -51 6 -76 29 -17 16 -31 34 -31 40 0 27 110 52 153 35z m232 -8 c43 -18 43 -29 6 -67 -24 -24 -38 -29 -76 -29 -42 0 -46 2 -40 20 4 11 0 33 -8 50 -11 21 -12 30 -3 34 24 10 88 5 121 -8z m-141 -22 c19 -18 21 -55 4 -72 -7 -7 -24 -12 -38 -12 -14 0 -31 5 -38 12 -28 28 -2 88 38 88 10 0 26 -7 34 -16z m-90 -116 c18 -29 -4 -72 -39 -76 -46 -6 -75 54 -43 86 17 17 69 11 82 -10z m190 6 c19 -18 21 -55 4 -72 -7 -7 -24 -12 -38 -12 -14 0 -31 5 -38 12 -28 28 -2 88 38 88 10 0 26 -7 34 -16z"/>
 <path d="M5570 4542 c0 -10 -9 -35 -20 -57 -11 -22 -20 -51 -20 -65 0 -14 -5 -31 -12 -38 -9 -9 -9 -15 0 -24 8 -8 12 -46 12 -104 0 -104 4 -111 68 -109 61 2 68 15 28 54 -38 37 -56 34 -56 -10 0 -16 -4 -29 -10 -29 -6 0 -10 37 -10 90 l0 90 179 0 c149 0 181 3 191 15 10 12 10 19 2 27 -7 7 -12 24 -12 38 0 14 -9 43 -20 65 -11 22 -20 47 -20 57 0 10 -4 18 -10 18 -5 0 -10 -6 -10 -12 0 -10 -33 -13 -130 -13 -97 0 -130 3 -130 13 0 6 -4 12 -10 12 -5 0 -10 -8 -10 -18z m293 -50 c18 -19 27 -39 27 -60 l0 -32 -170 0 -170 0 0 32 c0 21 9 41 27 60 26 28 29 28 143 28 114 0 117 0 143 -28z m47 -122 c0 -6 -70 -10 -190 -10 -120 0 -190 4 -190 10 0 6 70 10 190 10 120 0 190 -4 190 -10z m-280 -202 c0 -4 -7 -8 -15 -8 -16 0 -38 34 -28 44 7 7 43 -23 43 -36z"/>
 <path d="M4877 4534 c-4 -4 -7 -15 -7 -25 0 -11 -9 -19 -22 -21 -22 -3 -23 -7 -23 -98 l0 -95 175 0 c172 0 175 0 178 22 2 14 11 23 25 25 21 3 22 8 22 98 l0 95 -171 3 c-93 1 -173 -1 -177 -4z m333 -94 c0 -63 -3 -80 -15 -80 -10 0 -15 16 -17 63 l-3 62 -142 3 c-118 2 -143 5 -143 17 0 13 26 15 160 15 l160 0 0 -80z m-50 -50 l0 -80 -160 0 -160 0 0 80 0 80 160 0 160 0 0 -80z"/>
 <path d="M4960 4430 c-11 -11 -20 -29 -20 -40 0 -11 9 -29 20 -40 11 -11 29 -20 40 -20 11 0 29 9 40 20 11 11 20 29 20 40 0 11 -9 29 -20 40 -11 11 -29 20 -40 20 -11 0 -29 -9 -40 -20z m70 -15 c26 -32 -13 -81 -47 -59 -35 22 -23 74 17 74 10 0 23 -7 30 -15z"/>
 <path d="M1458 4475 c-46 -43 -58 -61 -58 -85 0 -22 -5 -30 -18 -30 -10 0 -31 -13 -47 -30 -33 -34 -23 -41 12 -8 l24 22 46 -47 47 -46 -22 -24 c-33 -35 -26 -45 8 -12 17 16 30 36 30 46 0 23 25 31 77 23 31 -5 43 -11 43 -23 0 -10 14 -30 30 -46 34 -33 41 -23 8 12 l-22 24 47 46 46 47 24 -22 c35 -33 45 -26 12 8 -16 17 -37 30 -47 30 -11 0 -18 7 -18 19 0 10 -9 30 -20 44 -11 14 -20 30 -20 35 0 6 -12 24 -26 41 -20 24 -34 31 -62 31 -31 0 -47 -9 -94 -55z m137 20 c33 -32 33 -74 0 -105 -23 -22 -26 -22 -43 -7 -23 21 -65 22 -82 2 -10 -12 -7 -20 14 -46 l27 -31 -28 -15 c-25 -13 -29 -12 -56 15 -24 25 -27 33 -18 50 6 11 11 29 11 40 0 25 103 122 130 122 11 0 32 -11 45 -25z m61 -102 c4 -16 11 -34 17 -41 8 -10 2 -21 -20 -44 -26 -25 -34 -28 -51 -19 -11 6 -29 11 -39 11 -24 0 -88 65 -79 79 11 16 30 13 56 -9 26 -22 48 -15 77 25 23 32 31 31 39 -2z"/>
 <path d="M6213 4503 c-21 -44 -15 -90 20 -151 23 -41 33 -74 37 -117 l5 -60 145 0 145 0 5 60 c4 43 14 76 38 117 34 61 40 107 20 151 -14 29 -28 36 -28 12 0 -13 -27 -15 -180 -15 -153 0 -180 2 -180 15 0 24 -14 17 -27 -12z m407 -53 l0 -30 -200 0 -200 0 0 30 0 30 200 0 200 0 0 -30z m-10 -56 c0 -4 -12 -28 -27 -55 -25 -47 -45 -60 -58 -39 -9 14 -78 13 -93 -2 -9 -9 -15 -9 -24 0 -15 15 -84 16 -93 2 -13 -21 -33 -8 -58 39 -15 27 -27 51 -27 55 0 3 86 6 190 6 105 0 190 -3 190 -6z m-220 -129 c0 -21 -5 -25 -30 -25 -25 0 -30 4 -30 25 0 21 5 25 30 25 25 0 30 -4 30 -25z m120 0 c0 -21 -5 -25 -30 -25 -25 0 -30 4 -30 25 0 21 5 25 30 25 25 0 30 -4 30 -25z m-198 -17 c3 -20 9 -23 48 -23 39 0 45 3 48 23 2 12 7 22 12 22 5 0 10 -10 12 -22 3 -20 9 -23 48 -23 39 0 45 3 48 23 6 38 22 24 22 -18 l0 -40 -130 0 -130 0 0 40 c0 42 16 56 22 18z"/>
 <path d="M3602 4420 c-11 -12 -26 -18 -34 -15 -20 8 -51 -23 -43 -43 3 -8 -3 -23 -15 -34 -11 -10 -20 -23 -20 -28 0 -5 9 -18 20 -28 12 -11 18 -26 15 -34 -8 -20 23 -51 43 -43 8 3 23 -3 34 -15 10 -11 23 -20 28 -20 5 0 18 9 28 20 11 12 26 18 34 15 20 -8 51 23 43 43 -3 8 3 23 15 34 11 10 20 23 20 28 0 5 -9 18 -20 28 -12 11 -18 26 -15 34 8 20 -21 49 -41 41 -9 -3 -24 4 -35 16 -25 26 -33 26 -57 1z m51 -26 c9 -17 17 -23 21 -15 4 6 16 11 27 11 21 0 26 -29 7 -48 -8 -8 -5 -14 15 -21 34 -13 34 -27 1 -44 -17 -9 -23 -17 -15 -21 6 -4 11 -16 11 -27 0 -21 -29 -26 -48 -7 -8 8 -14 5 -21 -15 -13 -34 -27 -34 -44 -1 -9 17 -17 23 -21 15 -4 -6 -16 -11 -27 -11 -21 0 -27 34 -8 46 8 4 2 12 -15 21 -33 17 -33 31 1 44 20 7 23 13 15 21 -18 18 -14 48 6 48 10 0 23 -5 30 -12 8 -8 14 -5 21 15 13 34 27 34 44 1z"/>
 <path d="M3597 4332 c-22 -24 -21 -45 1 -65 24 -22 45 -21 65 1 22 24 21 45 -1 65 -24 22 -45 21 -65 -1z m58 -32 c0 -18 -6 -26 -23 -28 -13 -2 -25 3 -28 12 -10 26 4 48 28 44 17 -2 23 -10 23 -28z"/>
 <path d="M4990 4229 c0 -36 -2 -40 -15 -29 -28 23 -29 0 -2 -28 l27 -27 27 27 c27 28 26 51 -2 28 -13 -11 -15 -7 -15 29 0 22 -4 41 -10 41 -5 0 -10 -19 -10 -41z"/>
 <path d="M3501 3847 c-8 -11 -6 -28 9 -72 11 -32 20 -62 20 -66 0 -5 -25 -27 -55 -50 -76 -57 -71 -73 23 -79 l74 -5 21 -65 c14 -41 27 -65 37 -65 10 0 23 24 37 65 l21 65 74 5 c94 6 99 22 23 79 -30 23 -55 45 -55 50 0 4 9 33 20 65 18 55 18 86 -1 86 -6 0 -34 -19 -64 -41 l-55 -41 -55 41 c-62 47 -59 46 -74 28z m74 -48 l55 -41 56 42 c30 23 58 39 61 36 3 -2 -4 -33 -16 -67 -12 -35 -21 -66 -21 -69 0 -4 25 -24 55 -46 30 -21 55 -42 55 -46 0 -4 -32 -8 -71 -10 l-72 -3 -20 -67 c-11 -38 -23 -68 -27 -68 -4 0 -16 30 -27 68 l-20 67 -72 3 c-39 2 -71 6 -71 10 0 4 15 17 33 30 17 12 43 31 55 42 l24 20 -21 62 c-32 94 -32 94 44 37z"/>
 <path d="M788 3841 c-141 -45 -190 -209 -96 -317 80 -91 199 -96 284 -10 69 68 80 152 31 239 -38 68 -146 111 -219 88z m125 -25 c117 -50 144 -210 51 -298 -116 -108 -304 -26 -304 132 0 102 76 179 178 180 23 0 57 -6 75 -14z"/>
 <path d="M770 3685 c-41 -42 -32 -60 10 -20 l30 29 60 -59 c33 -32 63 -56 67 -52 6 7 -114 137 -127 137 -3 0 -21 -16 -40 -35z"/>
 <path d="M1387 3844 c-4 -4 -7 -61 -7 -126 0 -92 3 -120 14 -124 7 -3 16 -23 20 -44 11 -71 85 -121 156 -105 42 9 88 58 96 103 4 20 13 42 21 47 11 8 13 37 11 130 l-3 120 -151 3 c-82 1 -153 -1 -157 -4z m293 -124 l0 -110 -140 0 -140 0 0 110 0 110 140 0 140 0 0 -110z m-226 -164 c9 -46 39 -71 86 -71 47 0 77 25 86 71 8 43 24 44 24 3 0 -22 -10 -41 -34 -65 -28 -28 -42 -34 -76 -34 -34 0 -48 6 -76 34 -24 24 -34 43 -34 65 0 41 16 40 24 -3z m156 9 c0 -14 -9 -34 -20 -45 -41 -41 -120 -12 -120 45 0 24 2 25 70 25 68 0 70 -1 70 -25z"/>
 <path d="M1490 3784 c0 -3 5 -14 10 -25 8 -13 7 -25 0 -40 -14 -26 11 -69 40 -69 29 0 54 43 40 69 -7 15 -8 27 0 40 15 30 14 31 -40 31 -27 0 -50 -3 -50 -6z m72 -31 c-6 -11 -6 -23 1 -34 14 -23 2 -49 -23 -49 -25 0 -37 26 -23 49 7 11 7 23 1 34 -8 14 -4 17 22 17 26 0 30 -3 22 -17z"/>
 <path d="M2055 3837 c-3 -7 -4 -89 -3 -182 l3 -170 30 -3 c17 -2 38 -11 48 -19 15 -15 19 -15 35 0 11 11 36 17 62 17 26 0 51 -6 62 -17 16 -15 20 -15 36 0 9 8 31 17 47 19 l30 3 0 180 0 180 -173 3 c-135 2 -174 0 -177 -11z m335 -127 l0 -120 -160 0 -160 0 0 120 0 120 160 0 160 0 0 -120z m0 -175 c0 -29 -4 -35 -21 -35 -11 0 -29 10 -40 23 l-19 22 -19 -22 c-14 -17 -30 -23 -61 -23 -31 0 -47 6 -61 23 l-19 22 -19 -22 c-11 -13 -29 -23 -40 -23 -17 0 -21 6 -21 35 l0 35 160 0 160 0 0 -35z m-230 -40 c0 -14 -4 -25 -10 -25 -5 0 -10 11 -10 25 0 14 5 25 10 25 6 0 10 -11 10 -25z m160 0 c0 -14 -4 -25 -10 -25 -5 0 -10 11 -10 25 0 14 5 25 10 25 6 0 10 -11 10 -25z"/>
 <path d="M2120 3750 c0 -27 3 -30 30 -30 27 0 30 3 30 30 0 27 -3 30 -30 30 -27 0 -30 -3 -30 -30z m40 0 c0 -5 -4 -10 -10 -10 -5 0 -10 5 -10 10 0 6 5 10 10 10 6 0 10 -4 10 -10z"/>
 <path d="M2200 3750 c0 -27 3 -30 30 -30 27 0 30 3 30 30 0 27 -3 30 -30 30 -27 0 -30 -3 -30 -30z m40 0 c0 -5 -4 -10 -10 -10 -5 0 -10 5 -10 10 0 6 5 10 10 10 6 0 10 -4 10 -10z"/>
 <path d="M2280 3750 c0 -27 3 -30 30 -30 27 0 30 3 30 30 0 27 -3 30 -30 30 -27 0 -30 -3 -30 -30z m40 0 c0 -5 -4 -10 -10 -10 -5 0 -10 5 -10 10 0 6 5 10 10 10 6 0 10 -4 10 -10z"/>
 <path d="M2120 3670 c0 -27 3 -30 30 -30 27 0 30 3 30 30 0 27 -3 30 -30 30 -27 0 -30 -3 -30 -30z m40 0 c0 -5 -4 -10 -10 -10 -5 0 -10 5 -10 10 0 6 5 10 10 10 6 0 10 -4 10 -10z"/>
 <path d="M2200 3670 c0 -27 3 -30 30 -30 27 0 30 3 30 30 0 27 -3 30 -30 30 -27 0 -30 -3 -30 -30z m40 0 c0 -5 -4 -10 -10 -10 -5 0 -10 5 -10 10 0 6 5 10 10 10 6 0 10 -4 10 -10z"/>
 <path d="M2280 3670 c0 -27 3 -30 30 -30 27 0 30 3 30 30 0 27 -3 30 -30 30 -27 0 -30 -3 -30 -30z m40 0 c0 -5 -4 -10 -10 -10 -5 0 -10 5 -10 10 0 6 5 10 10 10 6 0 10 -4 10 -10z"/>
 <path d="M4187 3844 c-4 -4 -7 -38 -7 -76 0 -59 3 -72 23 -92 13 -13 30 -25 38 -28 12 -4 11 -12 -5 -54 -30 -81 -28 -96 24 -121 24 -13 56 -23 70 -23 14 0 46 10 70 23 52 25 54 40 24 121 -16 42 -17 50 -5 54 8 3 25 16 38 28 21 22 24 32 21 96 l-3 73 -141 3 c-77 1 -143 -1 -147 -4z m53 -59 c0 -25 5 -45 10 -45 6 0 10 20 10 45 0 43 1 45 30 45 l30 0 0 -66 c0 -71 0 -71 -52 -49 -15 6 -18 2 -18 -19 0 -15 -6 -26 -13 -26 -27 0 -37 25 -37 92 0 61 2 68 20 68 17 0 20 -7 20 -45z m160 -5 c0 -27 5 -50 10 -50 6 0 10 23 10 50 0 43 3 50 20 50 18 0 20 -7 20 -68 0 -67 -10 -92 -37 -92 -7 0 -13 11 -13 26 0 21 -3 25 -17 19 -53 -22 -53 -22 -53 49 l0 66 30 0 c29 0 30 -1 30 -50z m-100 -110 c0 -10 -7 -20 -15 -24 -11 -4 -15 2 -15 24 0 22 4 28 15 24 8 -4 15 -14 15 -24z m90 0 c0 -22 -4 -28 -15 -24 -26 10 -19 43 13 53 1 1 2 -12 2 -29z m-50 0 c0 -5 -4 -10 -10 -10 -5 0 -10 5 -10 10 0 6 5 10 10 10 6 0 10 -4 10 -10z m45 -55 c45 -44 35 -55 -55 -55 -65 0 -80 3 -80 15 0 27 47 65 80 65 19 0 40 -9 55 -25z m45 -94 c0 -23 -55 -51 -100 -51 -45 0 -100 28 -100 51 0 17 9 19 100 19 91 0 100 -2 100 -19z"/>
 <path d="M4968 3841 c-141 -45 -190 -209 -96 -317 80 -91 199 -96 284 -10 69 68 80 152 31 239 -38 68 -146 111 -219 88z m125 -25 c117 -50 144 -210 51 -298 -116 -108 -304 -26 -304 132 0 102 76 179 178 180 23 0 57 -6 75 -14z"/>
 <path d="M5010 3750 c0 -5 5 -10 10 -10 6 0 10 5 10 10 0 6 -4 10 -10 10 -5 0 -10 -4 -10 -10z"/>
 <path d="M5010 3695 c0 -17 8 -29 25 -37 29 -13 43 -53 28 -77 -13 -20 -60 -26 -79 -10 -8 6 -14 20 -14 30 0 11 -4 19 -10 19 -18 0 -10 -31 15 -55 13 -14 34 -25 45 -25 26 0 70 43 70 67 0 25 -28 63 -46 63 -8 0 -14 10 -14 25 0 14 -4 25 -10 25 -5 0 -10 -11 -10 -25z"/>
 <path d="M6357 3835 c-130 -46 -166 -208 -68 -306 48 -49 108 -65 175 -50 46 11 51 10 73 -11 23 -22 25 -22 35 -5 8 14 13 16 24 6 19 -15 30 -4 15 15 -10 11 -8 16 6 25 17 9 16 12 -11 40 -21 21 -39 31 -60 31 -23 0 -43 12 -83 52 -54 54 -89 61 -38 8 l29 -30 -30 0 c-37 0 -54 16 -54 50 0 33 17 50 50 50 32 0 50 -17 50 -48 0 -13 4 -20 10 -17 28 17 -20 85 -60 85 -11 0 -32 -11 -45 -25 -32 -31 -32 -59 1 -91 20 -21 31 -25 58 -20 42 8 69 -16 37 -33 -69 -38 -161 19 -161 99 0 34 6 48 34 76 28 28 42 34 76 34 35 0 48 -6 77 -35 33 -33 35 -39 31 -85 -6 -55 6 -68 17 -20 15 66 -31 141 -95 155 -92 20 -175 -63 -155 -155 17 -79 132 -125 193 -77 9 7 12 3 12 -16 0 -33 -25 -47 -82 -47 -57 0 -117 35 -146 85 -18 32 -22 51 -19 97 6 102 79 164 183 156 99 -8 160 -83 152 -184 -5 -62 7 -73 17 -15 15 88 -47 187 -130 210 -51 14 -71 13 -118 -4z m227 -294 c26 -29 2 -34 -24 -6 -18 19 -20 25 -8 25 8 0 23 -9 32 -19z m-20 -53 c-8 -12 -44 21 -44 40 0 12 6 10 25 -8 13 -12 22 -27 19 -32z"/>
 <path d="M2740 3837 c0 -2 7 -26 16 -53 14 -41 40 -73 153 -186 74 -76 141 -138 146 -138 14 0 65 52 65 66 0 5 -62 71 -137 145 -114 113 -146 139 -187 153 -53 17 -56 18 -56 13z m65 -33 c14 -6 14 -8 -1 -25 -14 -15 -19 -17 -26 -7 -19 31 -7 45 27 32z m150 -124 l110 -110 -28 -27 -27 -28 -112 112 -112 112 24 26 c13 14 26 25 29 25 4 0 56 -49 116 -110z m123 -177 c-23 -22 -29 -24 -43 -13 -14 12 -13 16 12 42 24 25 29 27 42 13 14 -14 13 -18 -11 -42z"/>
 <path d="M6973 3818 c-6 -7 -13 -40 -16 -73 -3 -43 -12 -72 -31 -99 -30 -44 -32 -63 -11 -112 10 -24 25 -39 51 -50 40 -17 81 -11 184 24 l55 19 0 53 0 53 -48 16 c-70 24 -94 49 -102 107 -9 58 -20 74 -50 74 -12 0 -27 -6 -32 -12z m62 -45 c4 -21 10 -48 16 -61 5 -13 9 -24 9 -25 0 -1 -21 -2 -46 -2 l-46 0 6 44 c3 24 6 52 6 62 0 13 7 19 25 19 20 0 25 -6 30 -37z m85 -126 l65 -23 0 -44 0 -43 -69 -24 c-94 -31 -136 -30 -170 3 -35 36 -36 95 -1 129 31 32 87 33 175 2z"/>
 <path d="M6977 3612 c-22 -24 -21 -45 1 -65 24 -22 45 -21 65 1 22 24 21 45 -1 65 -24 22 -45 21 -65 -1z m58 -32 c0 -18 -6 -26 -23 -28 -13 -2 -25 3 -28 12 -10 26 4 48 28 44 17 -2 23 -10 23 -28z"/>
 <path d="M5580 3810 c0 -5 14 -10 30 -10 23 0 30 -4 30 -20 0 -17 -8 -19 -67 -22 l-68 -3 0 -135 0 -135 215 0 215 0 0 135 0 135 -67 3 c-60 3 -68 5 -68 22 0 16 7 20 30 20 17 0 30 5 30 10 0 6 -53 10 -140 10 -87 0 -140 -4 -140 -10z m200 -30 c0 -18 -7 -20 -60 -20 -53 0 -60 2 -60 20 0 18 7 20 60 20 53 0 60 -2 60 -20z m140 -160 l0 -120 -200 0 -200 0 0 120 0 120 200 0 200 0 0 -120z"/>
 <path d="M5540 3620 l0 -100 180 0 180 0 0 100 0 100 -180 0 -180 0 0 -100z m340 0 l0 -80 -160 0 -160 0 0 80 0 80 160 0 160 0 0 -80z"/>
 <path d="M7284 3609 c-3 -6 -17 -8 -30 -5 -13 4 -24 2 -24 -3 0 -16 40 -24 55 -11 8 6 23 9 35 5 23 -7 28 10 4 19 -22 9 -32 7 -40 -5z"/>
 <path d="M7284 3569 c-3 -6 -17 -8 -30 -5 -13 4 -24 2 -24 -3 0 -16 40 -24 55 -11 8 6 23 9 35 5 23 -7 28 10 4 19 -22 9 -32 7 -40 -5z"/>
 <path d="M2149 3147 c-44 -13 -109 -51 -109 -65 1 -28 52 -90 93 -112 l47 -26 -22 -22 c-33 -33 -31 -94 5 -129 60 -61 162 -19 162 67 0 28 -7 47 -23 62 l-22 22 48 26 c55 30 102 101 82 125 -40 48 -178 75 -261 52z m199 -32 c29 -13 52 -31 52 -39 0 -23 -61 -87 -97 -102 -41 -18 -105 -18 -146 0 -36 15 -97 79 -97 102 0 27 98 64 170 64 48 0 79 -7 118 -25z m-63 -200 c50 -49 15 -135 -55 -135 -41 0 -80 39 -80 80 0 41 39 80 80 80 19 0 40 -9 55 -25z"/>
 <path d="M2856 3145 c-21 -7 -54 -28 -72 -46 l-34 -33 0 32 c0 18 -4 32 -10 32 -5 0 -10 -22 -10 -50 l0 -50 50 0 c28 0 50 5 50 10 0 6 -13 10 -30 10 -37 0 -38 9 -2 42 53 51 142 63 210 29 58 -29 102 -93 102 -146 0 -14 5 -25 11 -25 14 0 4 62 -16 101 -21 39 -79 87 -122 98 -50 14 -80 13 -127 -4z"/>
 <path d="M3588 3146 c-22 -8 -40 -10 -46 -4 -5 5 -29 8 -53 6 l-44 -3 0 -115 0 -115 64 -1 c54 0 67 -4 82 -23 11 -13 19 -39 19 -58 0 -44 16 -73 40 -73 29 0 50 39 50 92 l0 48 43 0 c67 0 77 17 77 132 0 122 -6 128 -116 128 -43 -1 -96 -7 -116 -14z m207 -116 l0 -105 -47 -3 c-25 -2 -51 -9 -57 -15 -5 -7 -11 -37 -13 -67 -3 -48 -6 -55 -25 -58 -19 -3 -23 1 -23 25 0 56 -20 102 -50 118 -30 15 -30 16 -30 104 0 88 0 89 28 100 15 5 70 9 122 8 l95 -2 0 -105z m-265 0 l0 -100 -35 0 -35 0 0 100 0 100 35 0 35 0 0 -100z"/>
 <path d="M4320 3141 c-5 -11 -10 -35 -10 -54 0 -19 -8 -45 -19 -58 -15 -19 -28 -23 -82 -23 l-64 -1 0 -115 0 -115 44 -3 c24 -2 48 1 53 6 6 6 24 4 46 -4 20 -7 73 -13 118 -14 109 0 114 6 114 132 0 111 -10 128 -78 128 l-42 0 0 48 c0 76 -52 124 -80 73z m58 -61 c2 -30 8 -60 13 -67 6 -6 32 -13 57 -15 l47 -3 0 -105 0 -105 -85 -3 c-47 -2 -102 2 -122 8 l-38 11 0 89 c0 89 0 90 30 105 30 16 50 62 50 118 0 24 4 28 23 25 19 -3 22 -10 25 -58z m-148 -190 l0 -100 -35 0 -35 0 0 100 0 100 35 0 35 0 0 -100z"/>
 <path d="M5052 3120 c-91 -46 -147 -100 -190 -187 -48 -95 -48 -100 -11 -139 18 -19 38 -34 44 -34 17 0 75 64 75 82 0 8 -7 21 -15 28 -26 22 -16 44 48 108 64 64 85 73 107 47 7 -8 20 -15 29 -15 18 0 81 59 81 76 0 13 -63 74 -77 74 -6 0 -47 -18 -91 -40z m114 9 c10 -18 -54 -78 -78 -71 -29 7 -171 -134 -165 -165 5 -30 -57 -93 -75 -75 -29 29 59 187 134 243 50 36 135 79 160 79 9 0 20 -5 24 -11z m34 -43 c0 -7 -14 -25 -30 -41 -23 -22 -33 -26 -42 -17 -9 9 -4 20 22 47 32 33 50 37 50 11z m-244 -237 c10 -17 -51 -73 -72 -65 -15 6 -13 11 16 41 36 38 45 41 56 24z"/>
 <path d="M1355 3137 c-3 -7 -4 -91 -3 -187 l3 -175 185 0 185 0 0 185 0 185 -183 3 c-143 2 -184 0 -187 -11z m355 -177 l0 -170 -170 0 -170 0 0 170 0 170 170 0 170 0 0 -170z"/>
 <path d="M1654 3099 c-10 -17 13 -36 27 -22 12 12 4 33 -11 33 -5 0 -12 -5 -16 -11z"/>
 <path d="M1510 2960 c0 -73 4 -120 10 -120 6 0 10 47 10 120 0 73 -4 120 -10 120 -6 0 -10 -47 -10 -120z"/>
 <path d="M1550 2960 c0 -73 4 -120 10 -120 6 0 10 47 10 120 0 73 -4 120 -10 120 -6 0 -10 -47 -10 -120z"/>
 <path d="M1470 2960 c0 -60 4 -100 10 -100 6 0 10 40 10 100 0 60 -4 100 -10 100 -6 0 -10 -40 -10 -100z"/>
 <path d="M1590 2960 c0 -60 4 -100 10 -100 6 0 10 40 10 100 0 60 -4 100 -10 100 -6 0 -10 -40 -10 -100z"/>
 <path d="M1430 2960 c0 -33 4 -60 10 -60 6 0 10 27 10 60 0 33 -4 60 -10 60 -6 0 -10 -27 -10 -60z"/>
 <path d="M1630 2960 c0 -33 4 -60 10 -60 6 0 10 27 10 60 0 33 -4 60 -10 60 -6 0 -10 -27 -10 -60z"/>
 <path d="M6920 3136 c0 -2 6 -22 14 -44 13 -35 12 -45 -2 -85 -21 -60 -5 -118 48 -168 105 -100 290 -56 330 79 40 130 -105 251 -249 209 -46 -13 -58 -14 -93 -1 -43 15 -48 16 -48 10z m281 -32 c58 -24 99 -83 99 -144 0 -162 -243 -221 -335 -81 -24 35 -26 46 -20 93 3 29 6 72 7 96 1 43 6 47 43 33 12 -5 32 -3 50 5 42 18 107 17 156 -2z"/>
 <path d="M7020 2974 c-11 -12 -10 -18 3 -32 16 -15 18 -15 34 0 13 14 14 20 3 32 -7 9 -16 16 -20 16 -4 0 -13 -7 -20 -16z m30 -14 c0 -5 -4 -10 -10 -10 -5 0 -10 5 -10 10 0 6 5 10 10 10 6 0 10 -4 10 -10z"/>
 <path d="M7100 2974 c-11 -12 -10 -18 3 -32 16 -15 18 -15 34 0 13 14 14 20 3 32 -7 9 -16 16 -20 16 -4 0 -13 -7 -20 -16z m30 -14 c0 -5 -4 -10 -10 -10 -5 0 -10 5 -10 10 0 6 5 10 10 10 6 0 10 -4 10 -10z"/>
 <path d="M7180 2974 c-11 -12 -10 -18 3 -32 16 -15 18 -15 34 0 13 14 14 20 3 32 -7 9 -16 16 -20 16 -4 0 -13 -7 -20 -16z m30 -14 c0 -5 -4 -10 -10 -10 -5 0 -10 5 -10 10 0 6 5 10 10 10 6 0 10 -4 10 -10z"/>
 <path d="M6216 3114 c-13 -12 -16 -39 -16 -124 0 -123 8 -140 65 -140 24 0 42 -9 63 -30 27 -27 37 -30 92 -30 55 0 65 3 92 30 21 21 39 30 63 30 57 0 65 17 65 140 0 85 -3 112 -16 124 -13 13 -46 16 -204 16 -158 0 -191 -3 -204 -16z m404 -124 l0 -120 -44 0 c-38 0 -48 -4 -66 -30 -20 -28 -25 -30 -90 -30 -65 0 -70 2 -90 30 -18 26 -28 30 -66 30 l-44 0 0 120 0 120 200 0 200 0 0 -120z"/>
 <path d="M6385 3071 c-64 -27 -81 -110 -32 -158 60 -61 162 -19 162 67 0 66 -72 116 -130 91z m90 -36 c50 -49 15 -135 -55 -135 -41 0 -80 39 -80 80 0 41 39 80 80 80 19 0 40 -9 55 -25z"/>
 <path d="M6564 2919 c-10 -17 13 -36 27 -22 12 12 4 33 -11 33 -5 0 -12 -5 -16 -11z"/>
 <path d="M5504 3107 c-2 -7 -3 -74 -2 -148 l3 -134 215 0 215 0 0 145 0 145 -213 3 c-169 2 -214 0 -218 -11z m416 -137 l0 -130 -200 0 -200 0 0 130 0 130 200 0 200 0 0 -130z"/>
 <path d="M5575 3030 c-4 -6 1 -22 10 -36 9 -14 13 -33 10 -43 -5 -18 17 -51 35 -51 18 0 40 33 35 51 -3 10 1 29 10 43 23 35 12 46 -45 46 -27 0 -52 -5 -55 -10z m93 -22 c-8 -22 -37 -34 -55 -22 -33 21 -26 34 17 34 28 0 40 -4 38 -12z m-18 -68 c0 -13 -7 -20 -20 -20 -13 0 -20 7 -20 20 0 13 7 20 20 20 13 0 20 -7 20 -20z"/>
 <path d="M5750 3020 c0 -6 27 -10 60 -10 33 0 60 4 60 10 0 6 -27 10 -60 10 -33 0 -60 -4 -60 -10z"/>
 <path d="M5750 2970 c0 -6 27 -10 60 -10 33 0 60 4 60 10 0 6 -27 10 -60 10 -33 0 -60 -4 -60 -10z"/>
 <path d="M5750 2920 c0 -6 27 -10 60 -10 33 0 60 4 60 10 0 6 -27 10 -60 10 -33 0 -60 -4 -60 -10z"/>
 <path d="M685 3071 c-22 -13 -31 -26 -33 -51 -2 -18 -13 -41 -25 -52 l-22 -18 22 -18 c12 -11 23 -34 25 -52 2 -26 11 -38 37 -52 44 -25 61 -11 61 48 l0 44 90 0 90 0 0 -44 c0 -59 17 -73 61 -48 26 14 35 26 37 52 2 18 13 41 25 52 l22 18 -22 18 c-12 11 -23 34 -25 52 -2 26 -11 38 -37 52 -44 25 -61 11 -61 -48 l0 -44 -90 0 -90 0 0 43 c0 38 -14 68 -29 66 -4 0 -19 -8 -36 -18z m45 -121 c0 -73 -4 -120 -10 -120 -6 0 -10 47 -10 120 0 73 4 120 10 120 6 0 10 -47 10 -120z m240 0 c0 -73 -4 -120 -10 -120 -6 0 -10 47 -10 120 0 73 4 120 10 120 6 0 10 -47 10 -120z m-280 0 c0 -60 -4 -100 -10 -100 -6 0 -10 40 -10 100 0 60 4 100 10 100 6 0 10 -40 10 -100z m320 0 c0 -60 -4 -100 -10 -100 -6 0 -10 40 -10 100 0 60 4 100 10 100 6 0 10 -40 10 -100z m-360 0 c0 -5 -4 -10 -10 -10 -5 0 -10 5 -10 10 0 6 5 10 10 10 6 0 10 -4 10 -10z m280 0 c0 -6 -37 -10 -90 -10 -53 0 -90 4 -90 10 0 6 37 10 90 10 53 0 90 -4 90 -10z m120 0 c0 -5 -4 -10 -10 -10 -5 0 -10 5 -10 10 0 6 5 10 10 10 6 0 10 -4 10 -10z"/>
 <path d="M2735 2933 c10 -52 28 -85 69 -121 35 -30 90 -52 132 -52 39 0 109 31 141 62 l33 32 0 -32 c0 -18 5 -32 10 -32 6 0 10 23 10 50 l0 50 -50 0 c-27 0 -50 -4 -50 -10 0 -5 14 -10 30 -10 37 0 38 -9 3 -42 -68 -65 -182 -64 -257 1 -25 22 -56 85 -56 116 0 14 -5 25 -11 25 -8 0 -9 -12 -4 -37z"/>
 <path d="M630 2460 c0 -5 5 -10 10 -10 14 0 13 -156 -2 -179 -6 -10 -8 -26 -5 -35 6 -14 31 -16 207 -16 176 0 201 2 207 16 3 9 1 25 -5 35 -15 23 -16 179 -2 179 6 0 10 5 10 10 0 6 -77 10 -210 10 -133 0 -210 -4 -210 -10z m80 -95 c0 -78 -2 -85 -20 -85 -18 0 -20 7 -20 85 0 78 2 85 20 85 18 0 20 -7 20 -85z m60 0 c0 -78 -2 -85 -20 -85 -18 0 -20 7 -20 85 0 78 2 85 20 85 18 0 20 -7 20 -85z m60 0 c0 -78 -2 -85 -20 -85 -18 0 -20 7 -20 85 0 78 2 85 20 85 18 0 20 -7 20 -85z m60 0 c0 -78 -2 -85 -20 -85 -18 0 -20 7 -20 85 0 78 2 85 20 85 18 0 20 -7 20 -85z m60 0 c0 -78 -2 -85 -20 -85 -18 0 -20 7 -20 85 0 78 2 85 20 85 18 0 20 -7 20 -85z m60 0 c0 -78 -2 -85 -20 -85 -18 0 -20 7 -20 85 0 78 2 85 20 85 18 0 20 -7 20 -85z m20 -115 c0 -6 -70 -10 -190 -10 -120 0 -190 4 -190 10 0 6 70 10 190 10 120 0 190 -4 190 -10z"/>
 <path d="M1438 2456 c-91 -19 -98 -31 -98 -151 0 -86 3 -104 18 -118 10 -10 24 -17 30 -17 7 0 12 -11 12 -25 0 -16 -6 -25 -15 -25 -8 0 -15 -4 -15 -10 0 -13 6 -13 30 0 21 11 70 3 70 -11 0 -5 -7 -9 -15 -9 -8 0 -15 -4 -15 -10 0 -5 4 -10 9 -10 16 0 41 31 41 51 0 16 7 19 43 19 64 1 164 24 187 45 18 16 20 30 20 120 0 121 -7 131 -103 152 -75 15 -124 15 -199 -1z m92 -85 c0 -76 -1 -79 -25 -83 l-25 -5 0 83 c0 83 0 84 25 84 25 0 25 -1 25 -79z m70 -1 c0 -79 0 -80 -25 -80 -25 0 -25 1 -25 80 0 79 0 80 25 80 25 0 25 -1 25 -80z m60 -11 c0 -72 -2 -79 -20 -79 -18 0 -20 7 -20 84 0 79 1 84 20 79 18 -5 20 -14 20 -84z m-200 2 c0 -70 -2 -79 -20 -84 -19 -5 -20 0 -20 79 0 77 2 84 20 84 18 0 20 -7 20 -79z m-60 -15 c0 -75 -2 -84 -20 -89 -19 -5 -20 0 -20 73 0 65 3 81 18 89 9 6 18 11 20 11 1 0 2 -38 2 -84z m320 -17 c0 -77 -1 -79 -20 -69 -17 9 -20 21 -20 91 0 77 1 79 20 69 17 -9 20 -21 20 -91z m-32 -82 c69 -37 14 -78 -115 -85 l-83 -5 0 32 c0 17 -4 31 -10 31 -5 0 -10 -4 -10 -9 0 -4 -11 -6 -25 -3 -14 2 -25 11 -25 18 0 8 -4 14 -10 14 -5 0 -10 -14 -10 -30 0 -28 -2 -30 -20 -20 -39 21 -20 49 49 71 46 15 222 5 259 -14z m-227 -57 c5 0 9 -6 9 -14 0 -9 -8 -12 -25 -8 -14 2 -25 11 -25 19 0 10 6 13 16 9 9 -3 20 -6 25 -6z m0 -40 c5 0 9 -6 9 -14 0 -9 -8 -12 -25 -8 -14 2 -25 11 -25 19 0 10 6 13 16 9 9 -3 20 -6 25 -6z"/>
 <path d="M2165 2455 c-83 -29 -145 -132 -130 -214 14 -77 73 -142 146 -161 161 -44 300 132 224 281 -31 58 -116 110 -180 109 -11 -1 -38 -7 -60 -15z m138 -19 c117 -50 144 -210 51 -298 -116 -108 -304 -26 -304 132 0 102 76 179 178 180 23 0 57 -6 75 -14z"/>
 <path d="M2192 2268 l3 -93 32 -3 c36 -4 73 25 73 58 0 28 -35 60 -65 60 -22 0 -25 4 -25 35 0 19 -5 35 -10 35 -7 0 -10 -33 -8 -92z m82 -20 c15 -25 -3 -52 -38 -56 -24 -3 -26 -1 -26 38 0 39 2 41 26 38 15 -2 32 -11 38 -20z"/>
 <path d="M4231 2452 c-57 -31 -83 -98 -61 -157 12 -31 57 -75 77 -75 8 0 -4 17 -27 38 -34 34 -40 45 -40 81 0 36 6 49 34 77 57 57 132 44 177 -30 16 -26 19 -28 19 -10 0 26 -40 71 -75 84 -38 15 -66 12 -104 -8z"/>
 <path d="M2734 2445 c-15 -37 2 -45 96 -45 83 0 90 -2 90 -20 0 -18 -8 -20 -92 -22 -105 -3 -110 -8 -88 -87 19 -71 71 -118 153 -135 34 -8 36 -36 2 -36 -14 0 -25 -4 -25 -10 0 -6 27 -10 60 -10 33 0 60 4 60 10 0 6 -11 10 -25 10 -34 0 -32 28 3 36 81 17 133 64 152 135 22 79 17 84 -87 87 -84 2 -93 5 -93 22 0 17 9 20 93 22 91 3 92 3 92 28 l0 25 -193 3 c-165 2 -193 0 -198 -13z m376 -15 c0 -6 -67 -10 -180 -10 -113 0 -180 4 -180 10 0 6 67 10 180 10 113 0 180 -4 180 -10z m-2 -134 c-10 -87 -82 -146 -178 -146 -96 0 -168 59 -178 146 l-5 44 183 0 183 0 -5 -44z"/>
 <path d="M4835 2447 c-3 -7 -4 -91 -3 -187 l3 -175 185 0 185 0 0 185 0 185 -183 3 c-143 2 -184 0 -187 -11z m355 -177 l0 -170 -170 0 -170 0 0 170 0 170 170 0 170 0 0 -170z"/>
 <path d="M4970 2403 c-95 -49 -83 -183 20 -214 53 -16 107 10 134 65 17 36 18 43 5 79 -25 71 -96 102 -159 70z m121 -32 c37 -37 37 -49 1 -43 -18 2 -48 -6 -80 -23 -41 -21 -55 -24 -71 -15 -29 15 -26 47 8 81 23 23 38 29 71 29 33 0 48 -6 71 -29z m10 -61 c27 -15 24 -47 -10 -81 -23 -23 -38 -29 -71 -29 -33 0 -48 6 -71 29 -37 37 -37 49 0 43 18 -2 46 6 77 22 57 30 50 29 75 16z"/>
 <path d="M4874 2149 c-10 -17 13 -36 27 -22 12 12 4 33 -11 33 -5 0 -12 -5 -16 -11z"/>
 <path d="M4934 2149 c-10 -17 13 -36 27 -22 12 12 4 33 -11 33 -5 0 -12 -5 -16 -11z"/>
 <path d="M5535 2447 c-3 -7 -4 -91 -3 -187 l3 -175 185 0 185 0 0 185 0 185 -183 3 c-143 2 -184 0 -187 -11z m355 -177 l0 -170 -170 0 -170 0 0 170 0 170 170 0 170 0 0 -170z"/>
 <path d="M5670 2403 c-95 -49 -83 -183 20 -214 53 -16 107 10 134 65 17 36 18 43 5 79 -25 71 -96 102 -159 70z m121 -32 c23 -23 29 -38 29 -71 0 -91 -106 -135 -171 -71 -64 65 -20 171 71 171 33 0 48 -6 71 -29z"/>
 <path d="M5717 2329 c-10 -6 -29 -8 -43 -5 -13 4 -24 2 -24 -3 0 -16 36 -22 66 -11 15 6 39 9 51 5 26 -6 32 10 7 19 -22 8 -36 7 -57 -5z"/>
 <path d="M5717 2289 c-10 -6 -29 -8 -43 -5 -13 4 -24 2 -24 -3 0 -16 36 -22 66 -11 15 6 39 9 51 5 26 -6 32 10 7 19 -22 8 -36 7 -57 -5z"/>
 <path d="M5574 2149 c-10 -17 13 -36 27 -22 12 12 4 33 -11 33 -5 0 -12 -5 -16 -11z"/>
 <path d="M5634 2149 c-10 -17 13 -36 27 -22 12 12 4 33 -11 33 -5 0 -12 -5 -16 -11z"/>
 <path d="M7010 2438 c-56 -29 -82 -72 -84 -141 l-1 -52 177 -3 c167 -2 179 -1 198 18 11 11 20 29 20 40 0 29 -35 60 -67 60 -21 0 -33 8 -45 30 -19 33 -86 69 -128 70 -14 0 -46 -10 -70 -22z m144 -17 c42 -28 66 -70 66 -118 l0 -43 -141 0 -142 0 5 52 c5 45 11 57 46 90 36 33 47 38 89 38 30 0 59 -7 77 -19z m140 -103 c14 -23 -2 -52 -31 -56 -18 -3 -21 3 -25 38 -3 38 -2 41 21 38 13 -2 29 -11 35 -20z"/>
 <path d="M6291 2436 c-30 -37 -23 -58 47 -150 69 -90 101 -87 182 21 53 70 58 88 36 119 -13 17 -28 19 -135 20 -78 1 -124 -3 -130 -10z m93 -7 c28 -8 51 -7 87 1 39 10 53 9 64 0 26 -21 17 -54 -36 -123 -42 -56 -55 -67 -79 -67 -20 0 -35 8 -47 26 -10 14 -33 43 -50 65 -35 44 -39 59 -23 90 12 22 29 23 84 8z"/>
 <path d="M4447 2365 l-28 -44 -67 -3 -67 -3 -3 -71 c-2 -56 -7 -76 -22 -89 -25 -23 -25 -47 -2 -68 24 -22 45 -21 65 1 22 25 21 45 -3 67 -11 10 -20 29 -20 42 0 21 4 23 50 23 28 0 50 5 50 10 0 6 -22 10 -50 10 -49 0 -50 1 -50 30 0 30 0 30 60 30 59 0 59 0 90 45 20 29 35 42 45 39 8 -4 15 -2 15 4 0 8 -22 22 -33 22 -1 0 -15 -20 -30 -45z m-132 -245 c0 -18 -6 -26 -23 -28 -13 -2 -25 3 -28 12 -10 26 4 48 28 44 17 -2 23 -10 23 -28z"/>
 <path d="M3424 2376 c-3 -8 -4 -29 -2 -48 l3 -33 205 0 205 0 0 45 0 45 -203 3 c-168 2 -203 0 -208 -12z m116 -36 c0 -29 -1 -30 -50 -30 -49 0 -50 1 -50 30 0 29 1 30 50 30 49 0 50 -1 50 -30z m200 0 l0 -30 -90 0 -90 0 0 30 0 30 90 0 90 0 0 -30z m40 0 c0 -16 -4 -30 -10 -30 -5 0 -10 14 -10 30 0 17 5 30 10 30 6 0 10 -13 10 -30z m40 0 c0 -16 -4 -30 -10 -30 -5 0 -10 14 -10 30 0 17 5 30 10 30 6 0 10 -13 10 -30z"/>
 <path d="M6234 2255 c-23 -35 -6 -75 31 -75 35 0 62 42 47 75 -16 34 -56 33 -78 0z m64 -18 c3 -27 -28 -54 -48 -42 -16 10 -11 53 8 64 25 15 37 8 40 -22z"/>
 <path d="M6529 2256 c-26 -55 53 -104 85 -53 16 26 -12 71 -47 75 -21 3 -29 -2 -38 -22z m52 4 c20 -11 26 -54 9 -65 -17 -11 -50 15 -50 39 0 36 10 42 41 26z"/>
 <path d="M3766 2246 c3 -15 -2 -39 -15 -64 -22 -44 -28 -92 -10 -92 6 0 8 8 4 19 -3 11 3 36 15 58 21 40 27 103 10 103 -6 0 -8 -10 -4 -24z"/>
 <path d="M3807 2237 c3 -22 -1 -46 -12 -66 -20 -39 -14 -52 8 -17 22 32 30 70 22 95 -10 34 -24 24 -18 -12z"/>
 <path d="M7022 2198 c-1 -13 -3 -39 -6 -58 -3 -19 -3 -26 0 -15 3 11 10 24 15 30 12 12 12 65 0 65 -5 0 -9 -10 -9 -22z"/>
 <path d="M7072 2188 c0 -18 -4 -50 -7 -70 -5 -26 -4 -38 5 -38 6 0 9 8 5 18 -3 11 1 34 9 52 13 32 11 70 -3 70 -4 0 -8 -15 -9 -32z"/>
 <path d="M7123 2162 l-1 -57 13 44 c8 24 11 49 8 57 -11 29 -18 12 -20 -44z"/>
 <path d="M6337 2188 c-27 -21 -31 -61 -9 -88 17 -21 23 -23 46 -12 33 15 43 54 22 87 -18 28 -34 31 -59 13z m49 -23 c4 -8 3 -27 0 -41 -9 -33 -49 -30 -54 4 -6 41 41 72 54 37z"/>
 <path d="M6445 2176 c-21 -31 -10 -74 22 -89 52 -23 82 65 36 101 -25 18 -41 15 -58 -12z m53 -8 c17 -17 15 -58 -3 -64 -21 -8 -45 14 -45 41 0 35 24 47 48 23z"/>
 <path d="M782 2168 c-1 -13 -3 -39 -6 -58 -3 -19 -3 -26 0 -15 3 11 10 24 15 30 12 12 12 65 0 65 -5 0 -9 -10 -9 -22z"/>
 <path d="M832 2158 c0 -18 -4 -50 -7 -70 -5 -26 -4 -38 5 -38 6 0 9 8 5 18 -3 11 1 34 9 52 13 32 11 70 -3 70 -4 0 -8 -15 -9 -32z"/>
 <path d="M883 2132 l-1 -57 13 44 c8 24 11 49 8 57 -11 29 -18 12 -20 -44z"/>
 <path d="M4300 1773 c-55 -21 -81 -84 -56 -134 11 -23 16 -61 16 -131 0 -92 2 -101 25 -123 13 -14 34 -25 45 -25 12 0 32 11 45 25 23 22 25 31 25 123 0 70 5 108 16 131 19 38 12 80 -19 110 -24 22 -72 34 -97 24z m85 -38 c28 -27 33 -71 10 -101 -10 -14 -14 -48 -15 -124 0 -114 -6 -130 -50 -130 -44 0 -50 16 -50 130 -1 76 -5 110 -15 124 -37 49 3 126 65 126 19 0 40 -9 55 -25z"/>
 <path d="M4290 1720 c-24 -24 -25 -49 -5 -76 10 -14 14 -47 15 -120 0 -78 4 -104 15 -114 12 -10 18 -10 30 0 11 10 15 36 15 114 1 73 5 106 15 120 8 11 15 28 15 38 0 24 -35 58 -60 58 -11 0 -29 -9 -40 -20z m68 -12 c16 -16 15 -43 -3 -58 -12 -10 -15 -37 -15 -121 0 -66 -4 -109 -10 -109 -6 0 -10 43 -10 109 0 84 -3 111 -15 121 -28 23 -11 70 25 70 9 0 21 -5 28 -12z"/>
 <path d="M644 1755 c-3 -8 7 -38 23 -67 26 -50 31 -53 70 -56 l41 -3 -23 -42 c-33 -60 -39 -99 -21 -141 16 -39 67 -76 106 -76 37 0 72 21 97 59 29 43 29 73 -2 139 -14 30 -25 56 -25 57 0 2 17 5 38 7 33 3 40 8 65 56 16 29 26 59 23 67 -4 12 -39 15 -196 15 -157 0 -192 -3 -196 -15z m376 -9 c0 -2 -9 -24 -20 -50 -21 -45 -22 -46 -68 -46 -38 0 -50 5 -69 28 l-23 27 -21 -27 c-18 -24 -28 -28 -69 -28 -49 0 -49 0 -70 46 -11 26 -20 48 -20 50 0 2 81 4 180 4 99 0 180 -2 180 -4z m-144 -108 c38 -46 64 -106 64 -151 0 -88 -108 -131 -171 -68 -48 48 -38 116 30 209 17 23 35 42 40 42 5 0 22 -15 37 -32z"/>
 <path d="M807 1522 c-22 -24 -21 -45 1 -65 24 -22 45 -21 65 1 22 24 21 45 -1 65 -24 22 -45 21 -65 -1z m58 -32 c0 -18 -6 -26 -23 -28 -24 -4 -38 18 -28 44 3 9 15 14 28 12 17 -2 23 -10 23 -28z"/>
 <path d="M1344 1757 c-2 -7 -3 -74 -2 -148 l3 -134 63 -5 63 -5 -30 -40 c-17 -22 -31 -43 -31 -47 0 -19 18 -3 49 42 19 28 41 50 51 50 10 0 32 -22 51 -50 31 -45 49 -61 49 -42 0 4 -14 25 -31 47 l-30 40 93 5 93 5 0 145 0 145 -193 3 c-152 2 -194 0 -198 -11z m376 -137 l0 -130 -180 0 -180 0 0 130 0 130 180 0 180 0 0 -130z"/>
 <path d="M1380 1620 l0 -110 130 0 130 0 0 110 0 110 -130 0 -130 0 0 -110z m240 0 l0 -90 -110 0 -110 0 0 90 0 90 110 0 110 0 0 -90z"/>
 <path d="M1664 1589 c-10 -17 13 -36 27 -22 12 12 4 33 -11 33 -5 0 -12 -5 -16 -11z"/>
 <path d="M1664 1539 c-10 -17 13 -36 27 -22 12 12 4 33 -11 33 -5 0 -12 -5 -16 -11z"/>
 <path d="M2812 1758 c-15 -15 -16 -134 -2 -143 6 -3 10 -28 10 -54 0 -40 -3 -50 -20 -54 -17 -4 -20 -14 -20 -71 0 -37 4 -66 10 -66 6 0 10 27 10 60 0 33 4 60 10 60 6 0 10 -27 10 -60 0 -33 4 -60 10 -60 6 0 10 27 10 60 0 33 4 60 10 60 6 0 10 -27 10 -60 0 -33 4 -60 10 -60 6 0 10 29 10 66 0 57 -3 67 -20 71 -17 4 -20 14 -20 54 0 26 5 51 10 54 14 9 13 128 -2 143 -7 7 -15 12 -18 12 -3 0 -11 -5 -18 -12z m28 -73 c0 -37 -4 -65 -10 -65 -6 0 -10 28 -10 65 0 37 4 65 10 65 6 0 10 -28 10 -65z"/>
 <path d="M3022 1758 c-18 -18 -16 -133 3 -148 19 -15 20 -40 2 -40 -31 0 -47 -35 -47 -102 0 -70 20 -103 57 -96 16 3 19 20 26 187 5 133 4 187 -4 197 -14 17 -22 17 -37 2z m28 -73 c0 -37 -4 -65 -10 -65 -6 0 -10 28 -10 65 0 37 4 65 10 65 6 0 10 -28 10 -65z m-10 -216 c0 -71 -2 -80 -17 -77 -15 3 -19 16 -21 67 -3 73 1 91 23 91 12 0 15 -15 15 -81z"/>
 <path d="M5010 1738 c0 -30 0 -31 -20 -13 -31 28 -37 8 -7 -23 21 -21 27 -38 27 -70 0 -23 -2 -42 -4 -42 -3 0 -21 10 -41 21 -24 14 -38 31 -42 50 -3 16 -10 32 -16 36 -6 4 -7 -4 -3 -22 5 -21 4 -26 -6 -22 -47 19 -52 17 -23 -7 28 -24 29 -26 8 -26 -12 0 -25 -5 -29 -11 -4 -8 4 -9 27 -4 19 4 36 8 39 8 9 1 80 -37 80 -43 0 -6 -71 -44 -80 -43 -3 0 -20 4 -39 8 -23 5 -31 4 -27 -4 4 -6 17 -11 29 -11 21 0 20 -2 -8 -26 -27 -23 -23 -25 21 -8 12 5 14 1 8 -21 -4 -18 -3 -26 3 -22 6 4 13 20 16 36 5 25 57 71 81 71 3 0 6 -19 6 -42 0 -32 -6 -49 -27 -70 -30 -31 -24 -51 7 -23 20 18 20 17 20 -13 0 -18 5 -32 10 -32 6 0 10 14 10 32 0 30 0 31 20 13 31 -28 37 -8 7 23 -21 21 -27 38 -27 70 0 23 3 42 6 42 24 0 76 -46 81 -71 3 -16 10 -32 16 -36 6 -4 7 4 3 22 -6 22 -4 26 8 21 44 -17 48 -15 21 8 -28 24 -29 26 -8 26 12 0 25 5 29 11 4 8 -4 9 -27 4 -19 -4 -36 -8 -39 -8 -9 -1 -80 37 -80 43 0 6 71 44 80 43 3 0 20 -4 39 -8 23 -5 31 -4 27 4 -4 6 -17 11 -29 11 -21 0 -20 2 8 26 28 24 25 26 -18 9 -16 -7 -17 -4 -11 20 4 18 3 26 -3 22 -6 -4 -13 -20 -16 -36 -4 -19 -18 -36 -42 -50 -20 -11 -38 -21 -41 -21 -2 0 -4 19 -4 42 0 32 6 49 27 70 30 31 24 51 -7 23 -20 -18 -20 -17 -20 13 0 18 -4 32 -10 32 -5 0 -10 -14 -10 -32z"/>
 <path d="M6356 1754 c-9 -8 -16 -20 -16 -25 0 -5 -20 -9 -45 -9 -61 0 -85 -24 -85 -85 0 -31 6 -51 19 -64 17 -17 18 -24 9 -49 -23 -59 44 -113 97 -78 30 20 41 57 25 86 -24 45 21 37 74 -14 27 -25 32 -35 24 -50 -24 -43 27 -104 77 -92 37 9 61 51 48 85 -9 24 -7 31 14 49 20 18 23 29 23 96 0 92 -17 116 -80 116 -22 0 -40 4 -40 9 0 39 -111 58 -144 25z m124 -37 c0 -42 -15 -57 -60 -57 -45 0 -60 15 -60 57 l0 33 60 0 60 0 0 -33z m-132 -42 c6 -14 16 -25 21 -25 5 0 3 -17 -4 -37 -12 -36 -16 -38 -60 -41 -59 -4 -75 9 -75 62 0 53 13 66 65 66 35 0 44 -4 53 -25z m240 13 c7 -7 12 -41 12 -83 0 -42 -5 -76 -12 -83 -17 -17 -123 -16 -137 2 -10 12 -8 19 8 35 23 23 26 43 11 72 -8 13 -7 19 0 19 6 0 16 11 22 25 9 20 18 25 48 25 20 0 41 -5 48 -12z m-138 -63 c26 -32 -13 -81 -47 -59 -35 22 -23 74 17 74 10 0 23 -7 30 -15z m-112 -87 c7 -7 12 -24 12 -38 0 -33 -17 -50 -50 -50 -33 0 -50 17 -50 50 0 33 17 50 50 50 14 0 31 -5 38 -12z m220 -60 c7 -7 12 -24 12 -38 0 -33 -17 -50 -50 -50 -33 0 -50 17 -50 50 0 33 17 50 50 50 14 0 31 -5 38 -12z"/>
 <path d="M6920 1760 c0 -5 7 -10 15 -10 13 0 15 -27 15 -180 0 -153 -2 -180 -15 -180 -8 0 -15 -4 -15 -10 0 -6 73 -10 200 -10 127 0 200 4 200 10 0 6 -7 10 -15 10 -13 0 -15 27 -15 180 0 153 2 180 15 180 8 0 15 5 15 10 0 6 -73 10 -200 10 -127 0 -200 -4 -200 -10z m190 -190 l0 -180 -70 0 -70 0 0 180 0 180 70 0 70 0 0 -180z m160 0 l0 -180 -70 0 -70 0 0 180 0 180 70 0 70 0 0 -180z"/>
 <path d="M7030 1580 c0 -31 -3 -38 -15 -34 -21 9 -19 -10 5 -31 19 -17 21 -17 40 0 24 21 26 40 5 31 -12 -4 -15 3 -15 34 0 22 -4 40 -10 40 -5 0 -10 -18 -10 -40z"/>
 <path d="M7177 1602 c-21 -23 -22 -36 -2 -28 12 4 15 -3 15 -34 0 -22 5 -40 10 -40 6 0 10 18 10 40 0 31 3 38 15 34 21 -8 19 9 -3 29 -23 21 -25 21 -45 -1z"/>
 <path d="M5552 1748 c-11 -15 -21 -68 -28 -154 -5 -56 -4 -63 19 -80 13 -11 30 -37 37 -59 22 -70 31 -75 140 -75 109 0 118 5 140 75 7 22 24 48 37 59 22 17 24 24 20 80 -8 97 -21 148 -39 160 -25 15 -52 -3 -56 -38 l-3 -26 -100 0 c-97 0 -99 1 -99 23 0 41 -44 63 -68 35z m48 -33 c0 -18 -5 -25 -20 -25 -15 0 -20 7 -20 25 0 18 5 25 20 25 15 0 20 -7 20 -25z m280 0 c0 -18 -5 -25 -20 -25 -15 0 -20 7 -20 25 0 18 5 25 20 25 15 0 20 -7 20 -25z m15 -120 l0 -70 -175 0 -175 0 -3 59 c-2 32 -1 65 2 73 5 11 38 13 178 11 l173 -3 0 -70z m-53 -142 l-18 -48 -104 0 -104 0 -18 48 -18 47 140 0 140 0 -18 -47z"/>
 <path d="M5586 1614 c-9 -8 -16 -19 -16 -24 0 -11 29 -40 40 -40 11 0 40 29 40 40 0 11 -29 40 -40 40 -5 0 -16 -7 -24 -16z m44 -24 c0 -13 -7 -20 -20 -20 -13 0 -20 7 -20 20 0 13 7 20 20 20 13 0 20 -7 20 -20z"/>
 <path d="M5806 1614 c-9 -8 -16 -19 -16 -24 0 -11 29 -40 40 -40 11 0 40 29 40 40 0 11 -29 40 -40 40 -5 0 -16 -7 -24 -16z m44 -24 c0 -13 -7 -20 -20 -20 -13 0 -20 7 -20 20 0 13 7 20 20 20 13 0 20 -7 20 -20z"/>
 <path d="M3420 1740 c0 -5 7 -10 15 -10 13 0 15 -22 15 -135 0 -85 -4 -142 -12 -154 -6 -10 -8 -26 -5 -35 6 -14 30 -16 197 -16 167 0 191 2 197 16 3 9 1 25 -5 35 -8 12 -12 69 -12 154 0 113 2 135 15 135 8 0 15 5 15 10 0 6 -77 10 -210 10 -133 0 -210 -4 -210 -10z m70 -150 c0 -87 -4 -140 -10 -140 -6 0 -10 53 -10 140 0 87 4 140 10 140 6 0 10 -53 10 -140z m260 115 c0 -20 -5 -25 -25 -25 -13 0 -40 8 -60 17 -33 16 -37 16 -70 0 -20 -9 -47 -17 -60 -17 -20 0 -25 5 -25 25 l0 25 120 0 120 0 0 -25z m40 -115 c0 -87 -4 -140 -10 -140 -6 0 -10 53 -10 140 0 87 4 140 10 140 6 0 10 -53 10 -140z m-118 83 c20 -18 23 -64 7 -112 -14 -41 -27 -39 -35 4 -7 40 -17 44 -38 14 l-14 -21 -11 20 c-16 30 -13 73 6 94 20 22 61 23 85 1z m-119 -40 c-4 -28 25 -94 44 -100 6 -2 13 6 17 19 6 21 8 19 26 -19 19 -43 40 -57 40 -27 0 8 7 37 16 65 9 27 14 58 11 69 -4 16 0 20 19 20 24 0 24 -1 24 -105 l0 -105 -120 0 -120 0 0 105 c0 103 0 105 23 105 20 0 23 -4 20 -27z m257 -213 c0 -6 -67 -10 -180 -10 -113 0 -180 4 -180 10 0 6 67 10 180 10 113 0 180 -4 180 -10z"/>
 <path d="M2197 1722 c-22 -24 -21 -45 1 -65 24 -22 45 -21 65 1 22 24 21 45 -1 65 -24 22 -45 21 -65 -1z m58 -32 c0 -18 -6 -26 -23 -28 -24 -4 -38 18 -28 44 3 9 15 14 28 12 17 -2 23 -10 23 -28z"/>
 <path d="M2140 1601 c0 -12 63 -41 90 -41 27 0 90 29 90 41 0 13 -12 11 -34 -6 -11 -8 -36 -15 -56 -15 -20 0 -45 7 -56 15 -22 17 -34 19 -34 6z"/>
 <path d="M2105 1525 c64 -52 176 -54 247 -3 42 30 29 31 -27 3 -64 -33 -126 -33 -191 0 -61 31 -67 31 -29 0z"/>
 <path d="M2020 1493 c1 -11 69 -57 110 -74 54 -22 166 -17 220 10 54 26 95 59 86 68 -3 4 -16 -3 -29 -14 -49 -45 -88 -58 -177 -58 -87 0 -147 20 -179 59 -14 17 -31 21 -31 9z"/>
 <path d="M3555 1061 l-90 -37 0 -170 0 -169 150 0 150 0 3 43 c2 25 -1 42 -7 42 -6 0 -11 -16 -11 -35 l0 -35 -107 0 -108 1 73 30 72 31 0 124 0 124 35 0 c31 0 35 -3 35 -25 0 -14 5 -25 11 -25 6 0 9 14 7 33 -3 30 -6 32 -45 35 -39 3 -42 5 -45 35 -2 19 -9 33 -18 34 -8 1 -55 -15 -105 -36z m103 -137 l-3 -156 -65 -27 c-36 -16 -76 -31 -88 -35 l-23 -8 3 158 3 158 80 32 c44 18 83 33 88 34 4 0 6 -70 5 -156z"/>
 <path d="M3620 910 c0 -16 5 -30 10 -30 6 0 10 14 10 30 0 17 -4 30 -10 30 -5 0 -10 -13 -10 -30z"/>
 <path d="M2182 1038 c-51 -67 -90 -145 -98 -197 -10 -60 24 -124 80 -150 23 -12 53 -21 66 -21 49 0 108 39 131 86 26 54 21 100 -17 177 -28 56 -102 157 -114 157 -4 0 -26 -24 -48 -52z m88 -15 c52 -64 90 -150 90 -206 0 -44 -4 -54 -39 -88 -35 -35 -44 -39 -91 -39 -47 0 -56 4 -91 39 -35 34 -39 44 -39 88 0 35 9 67 30 109 30 61 85 134 100 134 5 0 23 -17 40 -37z"/>
 <path d="M2190 860 c-11 -11 -20 -29 -20 -40 0 -11 9 -29 20 -40 11 -11 29 -20 40 -20 11 0 29 9 40 20 11 11 20 29 20 40 0 11 -9 29 -20 40 -11 11 -29 20 -40 20 -11 0 -29 -9 -40 -20z m70 -15 c26 -32 -13 -81 -47 -59 -35 22 -23 74 17 74 10 0 23 -7 30 -15z"/>
 <path d="M764 1008 c-87 -89 -110 -122 -125 -179 -16 -61 6 -114 55 -134 47 -20 64 -19 109 5 l37 20 37 -20 c45 -24 62 -25 109 -5 49 20 71 73 55 134 -6 24 -21 58 -33 75 -23 33 -159 176 -168 176 -3 0 -37 -33 -76 -72z m154 -23 c114 -119 139 -192 86 -254 -32 -38 -87 -43 -127 -11 -24 19 -25 21 -10 51 25 50 0 99 -42 83 -23 -9 -29 -49 -12 -83 15 -30 14 -32 -10 -51 -40 -32 -95 -27 -127 11 -53 62 -26 139 87 257 39 39 74 72 77 72 4 0 39 -34 78 -75z m-62 -160 c8 -20 -4 -65 -16 -65 -12 0 -24 45 -16 65 7 19 25 19 32 0z"/>
 <path d="M1464 1008 c-87 -89 -110 -122 -125 -179 -16 -61 6 -114 55 -134 47 -20 64 -19 109 5 l37 20 37 -20 c45 -24 62 -25 109 -5 49 20 71 73 55 134 -6 24 -21 58 -33 75 -23 33 -159 176 -168 176 -3 0 -37 -33 -76 -72z m154 -23 c114 -119 139 -192 86 -254 -34 -41 -88 -43 -133 -5 l-31 26 -31 -26 c-45 -38 -99 -36 -133 5 -53 62 -26 139 87 257 39 39 74 72 77 72 4 0 39 -34 78 -75z"/>
 <path d="M2787 1074 c-4 -4 -7 -49 -7 -100 0 -74 -3 -92 -13 -88 -8 3 -20 -3 -28 -12 -12 -15 -4 -27 85 -110 55 -52 102 -94 106 -94 4 0 51 42 106 94 89 83 97 95 85 110 -8 9 -20 15 -27 12 -10 -4 -14 17 -16 92 l-3 97 -141 3 c-77 1 -143 -1 -147 -4z m95 -66 l3 -53 45 0 45 0 3 53 3 52 40 0 39 0 0 -98 0 -98 -65 -64 -65 -64 -65 64 -65 64 0 98 0 98 39 0 40 0 3 -52z m78 7 c0 -43 -1 -45 -30 -45 -29 0 -30 2 -30 45 0 43 1 45 30 45 29 0 30 -2 30 -45z m-111 -223 l81 -73 81 73 c82 75 99 87 99 70 0 -5 -40 -46 -90 -91 l-90 -83 -90 83 c-49 45 -90 86 -90 91 0 17 17 5 99 -70z"/>
 <path d="M5536 1064 c-9 -8 -16 -21 -16 -28 0 -21 117 -129 133 -123 24 9 43 -19 26 -39 -19 -23 -16 -104 5 -136 19 -30 72 -58 108 -58 59 0 128 69 128 128 0 36 -28 89 -58 108 -32 21 -113 24 -136 5 -20 -17 -48 2 -39 26 6 16 -102 133 -123 133 -7 0 -20 -7 -28 -16z m88 -53 c47 -48 57 -81 23 -81 -22 0 -110 97 -104 114 10 27 30 18 81 -33z m242 -125 c28 -28 34 -42 34 -76 0 -34 -6 -48 -34 -76 -28 -28 -42 -34 -76 -34 -34 0 -48 6 -76 34 -28 28 -34 42 -34 76 0 34 6 48 34 76 28 28 42 34 76 34 34 0 48 -6 76 -34z"/>
 <path d="M6975 1068 c-3 -8 -4 -97 -3 -198 l3 -185 145 0 145 0 0 195 0 195 -42 3 c-26 2 -43 -1 -43 -7 0 -6 16 -11 35 -11 l35 0 0 -180 0 -180 -130 0 -130 0 0 180 0 180 60 0 60 0 0 -65 c0 -63 -1 -65 -25 -65 -23 0 -25 -4 -25 -41 0 -49 18 -69 60 -69 42 0 60 20 60 69 0 37 -3 41 -25 41 -23 0 -24 3 -27 73 l-3 72 -73 3 c-53 2 -74 -1 -77 -10z m135 -173 c0 -8 5 -15 10 -15 6 0 10 7 10 15 0 8 7 15 15 15 9 0 15 -9 15 -21 0 -22 -22 -49 -40 -49 -18 0 -40 27 -40 49 0 12 6 21 15 21 8 0 15 -7 15 -15z"/>
 <path d="M4167 1044 c-4 -4 -7 -17 -7 -30 0 -12 -7 -24 -15 -28 -9 -3 -15 -18 -15 -37 0 -21 -8 -40 -25 -55 -14 -13 -25 -32 -25 -44 0 -26 34 -60 60 -60 14 0 20 -7 20 -23 0 -49 25 -57 172 -57 118 0 137 2 151 18 10 10 17 28 17 40 0 15 6 22 20 22 26 0 60 34 60 60 0 12 -11 31 -25 44 -16 15 -25 34 -25 54 0 17 -6 35 -14 39 -8 4 -16 19 -18 33 -2 19 -9 25 -28 25 -20 0 -26 -6 -28 -27 l-3 -28 -109 0 -109 0 -3 28 c-3 26 -34 43 -51 26z m33 -34 c0 -11 -4 -20 -10 -20 -5 0 -10 9 -10 20 0 11 5 20 10 20 6 0 10 -9 10 -20z m280 0 c0 -11 -4 -20 -10 -20 -5 0 -10 9 -10 20 0 11 5 20 10 20 6 0 10 -9 10 -20z m30 -74 c0 -25 6 -38 26 -50 29 -19 30 -52 1 -70 -31 -19 -52 4 -55 63 l-3 51 -149 0 -149 0 -3 -51 c-3 -59 -24 -82 -55 -63 -29 18 -28 51 1 70 20 12 26 25 26 50 l0 34 180 0 180 0 0 -34z m-46 -73 c4 -27 8 -66 9 -88 l2 -40 -145 0 -145 0 2 40 c1 22 5 61 9 88 l6 47 128 0 128 0 6 -47z"/>
 <path d="M4804 1027 c-2 -7 -3 -78 -2 -157 l3 -145 215 0 215 0 0 155 0 155 -213 3 c-168 2 -214 0 -218 -11z m341 -67 l-59 -60 -33 32 -33 32 -33 -32 -33 -32 -59 60 -59 60 184 0 184 0 -59 -60z m-262 -132 c-32 -32 -59 -58 -60 -58 -2 0 -3 53 -3 117 l0 117 60 -59 60 -59 -57 -58z m337 55 l0 -117 -60 59 -60 59 57 58 c32 32 59 58 60 58 2 0 3 -53 3 -117z m-100 -48 l95 -95 -195 0 -195 0 95 95 c52 52 97 95 100 95 3 0 48 -43 100 -95z"/>
 <path d="M6260 1010 c0 -6 60 -10 160 -10 100 0 160 4 160 10 0 6 -60 10 -160 10 -100 0 -160 -4 -160 -10z"/>
 <path d="M3707 934 c-13 -13 -7 -72 11 -103 29 -52 57 -51 86 3 10 19 16 48 14 67 -3 33 -4 34 -53 37 -28 2 -54 0 -58 -4z m93 -44 c0 -28 -2 -30 -40 -30 -38 0 -40 2 -40 30 0 28 2 30 40 30 38 0 40 -2 40 -30z m-20 -65 c0 -8 -9 -15 -20 -15 -11 0 -20 7 -20 15 0 8 9 15 20 15 11 0 20 -7 20 -15z"/>
 <path d="M6260 930 c0 -6 60 -10 160 -10 100 0 160 4 160 10 0 6 -60 10 -160 10 -100 0 -160 -4 -160 -10z"/>
 <path d="M6260 850 c0 -6 60 -10 160 -10 100 0 160 4 160 10 0 6 -60 10 -160 10 -100 0 -160 -4 -160 -10z"/>
 <path d="M6260 770 c0 -6 60 -10 160 -10 100 0 160 4 160 10 0 6 -60 10 -160 10 -100 0 -160 -4 -160 -10z"/>
 </g>

</svg>