<!DOCTYPE svg PUBLIC "-//W3C//DTD SVG 20010904//EN" "http://www.w3.org/TR/2001/REC-SVG-20010904/DTD/svg10.dtd">
<svg version="1.0" xmlns="http://www.w3.org/2000/svg" width="800px" height="800px" viewBox="0 0 8000 8000" preserveAspectRatio="xMidYMid meet">
<g id="layer101" fill="#888e90" stroke="none">
 <path d="M710 7331 c0 -5 5 -22 10 -37 9 -22 7 -30 -10 -46 -18 -17 -20 -31 -20 -158 0 -113 3 -142 16 -154 12 -13 40 -16 134 -16 94 0 122 3 134 16 13 12 16 41 16 154 0 127 -2 141 -20 158 -17 16 -19 23 -9 51 12 35 3 56 -12 28 -8 -14 -25 -17 -110 -17 -79 0 -101 3 -105 15 -7 16 -24 21 -24 6z m218 -53 c-3 -9 -30 -13 -88 -13 -58 0 -85 4 -87 13 -4 9 18 12 87 12 69 0 91 -3 88 -12z m30 -50 c17 -17 17 -259 0 -276 -8 -8 -49 -12 -118 -12 -69 0 -110 4 -118 12 -17 17 -17 259 0 276 8 8 49 12 118 12 69 0 110 -4 118 -12z"/>
 <path d="M744 7199 c-10 -17 13 -36 27 -22 12 12 4 33 -11 33 -5 0 -12 -5 -16 -11z"/>
 <path d="M904 7199 c-10 -17 13 -36 27 -22 12 12 4 33 -11 33 -5 0 -12 -5 -16 -11z"/>
 <path d="M744 7127 c-3 -8 -4 -39 -2 -68 l3 -54 95 0 95 0 0 65 0 65 -93 3 c-72 2 -94 0 -98 -11z m176 -57 l0 -50 -80 0 -80 0 0 50 0 50 80 0 80 0 0 -50z"/>
 <path d="M780 6970 c0 -6 27 -10 60 -10 33 0 60 4 60 10 0 6 -27 10 -60 10 -33 0 -60 -4 -60 -10z"/>
 <path d="M1507 7314 c-4 -4 -7 -16 -7 -26 0 -25 -26 -33 -56 -17 -22 11 -27 10 -46 -9 -19 -19 -20 -24 -9 -46 17 -31 9 -54 -21 -58 -19 -2 -23 -9 -23 -38 0 -29 4 -36 23 -38 30 -4 38 -27 21 -58 -11 -22 -10 -27 9 -46 19 -19 24 -20 46 -9 31 17 54 9 58 -21 2 -19 9 -23 38 -23 29 0 36 4 38 23 4 30 27 38 58 21 22 -11 27 -10 46 9 19 19 20 24 9 46 -17 31 -9 54 21 58 19 2 23 9 23 38 0 29 -4 36 -23 38 -30 4 -38 27 -21 58 11 22 10 27 -9 46 -19 19 -24 20 -46 9 -31 -17 -54 -9 -58 21 -2 17 -10 24 -33 26 -17 2 -34 0 -38 -4z m53 -33 c0 -31 26 -44 70 -37 l40 6 -6 -40 c-7 -44 6 -70 37 -70 12 0 19 -7 19 -20 0 -13 -7 -20 -19 -20 -31 0 -44 -26 -37 -70 l6 -40 -40 6 c-44 7 -70 -6 -70 -37 0 -12 -7 -19 -20 -19 -13 0 -20 7 -20 19 0 31 -26 44 -70 37 l-40 -6 6 40 c7 44 -6 70 -37 70 -12 0 -19 7 -19 20 0 13 7 20 19 20 31 0 44 26 37 70 l-6 40 40 -6 c44 -7 70 6 70 37 0 12 7 19 20 19 13 0 20 -7 20 -19z"/>
 <path d="M1485 7175 c-50 -49 -15 -135 55 -135 41 0 80 39 80 80 0 41 -39 80 -80 80 -19 0 -40 -9 -55 -25z m95 -15 c11 -11 20 -29 20 -40 0 -26 -34 -60 -60 -60 -26 0 -60 34 -60 60 0 26 34 60 60 60 11 0 29 -9 40 -20z"/>
 <path d="M3565 7311 c-11 -5 -32 -10 -46 -10 -53 -2 -82 -66 -82 -181 0 -76 12 -131 35 -156 45 -50 271 -50 316 0 49 54 48 269 -2 314 -31 29 -181 51 -221 33z m121 -21 l28 -11 -21 -21 c-30 -30 -97 -30 -125 -1 l-21 23 24 9 c32 13 82 13 115 1z m-138 -87 l-22 -23 -28 27 -28 27 22 23 22 23 28 -27 28 -27 -22 -23z m215 5 l-27 -28 -23 22 -23 22 27 28 27 28 23 -22 23 -22 -27 -28z m-63 -23 c35 -36 34 -95 -3 -132 -60 -61 -162 -19 -162 66 0 89 101 130 165 66z m-186 -65 c-1 -28 -8 -49 -22 -63 l-21 -21 -11 28 c-13 35 -13 77 0 112 l11 27 22 -21 c16 -15 22 -31 21 -62z m293 18 c3 -23 0 -56 -6 -72 l-12 -29 -22 21 c-28 26 -29 93 -2 122 24 26 36 14 42 -42z m-264 -150 l-27 -28 -23 22 -23 22 27 28 27 28 23 -22 23 -22 -27 -28z m225 -5 l-22 -23 -28 27 -28 27 22 23 22 23 28 -27 28 -27 -22 -23z m-75 -1 l21 -21 -28 -11 c-35 -13 -77 -13 -112 0 l-27 11 21 22 c28 29 95 29 125 -1z"/>
 <path d="M4300 7305 c-26 -32 13 -81 48 -59 34 22 22 74 -18 74 -10 0 -23 -7 -30 -15z m46 -16 c10 -17 -13 -36 -27 -22 -12 12 -4 33 11 33 5 0 12 -5 16 -11z"/>
 <path d="M4865 7307 c-3 -7 -4 -96 -3 -197 l3 -185 105 -3 105 -3 53 54 53 53 -3 145 -3 144 -153 3 c-118 2 -154 0 -157 -11z m295 -136 l0 -130 -47 -3 -48 -3 -3 -47 -3 -48 -90 0 -89 0 0 180 0 180 140 0 140 0 0 -129z m-20 -154 c0 -2 -13 -16 -30 -32 l-30 -29 0 32 c0 29 3 32 30 32 17 0 30 -1 30 -3z"/>
 <path d="M4920 7210 c0 -6 40 -10 100 -10 60 0 100 4 100 10 0 6 -40 10 -100 10 -60 0 -100 -4 -100 -10z"/>
 <path d="M4920 7150 c0 -6 40 -10 100 -10 60 0 100 4 100 10 0 6 -40 10 -100 10 -60 0 -100 -4 -100 -10z"/>
 <path d="M4920 7090 c0 -6 40 -10 100 -10 60 0 100 4 100 10 0 6 -40 10 -100 10 -60 0 -100 -4 -100 -10z"/>
 <path d="M4920 7030 c0 -5 23 -10 50 -10 28 0 50 5 50 10 0 6 -22 10 -50 10 -27 0 -50 -4 -50 -10z"/>
 <path d="M5577 7314 c-4 -4 -7 -47 -7 -95 0 -83 -1 -88 -22 -91 -46 -6 -27 -42 69 -132 50 -47 96 -86 103 -86 7 0 53 39 103 86 95 90 115 126 70 132 -21 3 -22 9 -25 95 l-3 92 -141 3 c-77 1 -143 -1 -147 -4z m273 -113 l0 -100 -60 -53 c-33 -29 -65 -53 -70 -53 -5 0 -37 24 -70 53 l-60 53 0 100 0 99 130 0 130 0 0 -99z m-130 -241 c9 0 49 34 90 75 41 41 76 72 79 69 8 -8 -152 -164 -169 -164 -16 0 -170 149 -170 165 0 5 35 -25 78 -68 42 -42 84 -77 92 -77z"/>
 <path d="M5710 7200 c0 -27 -3 -30 -30 -30 -16 0 -30 -4 -30 -10 0 -5 14 -10 30 -10 27 0 30 -3 30 -30 0 -16 5 -30 10 -30 6 0 10 14 10 30 0 27 3 30 30 30 17 0 30 5 30 10 0 6 -13 10 -30 10 -27 0 -30 3 -30 30 0 17 -4 30 -10 30 -5 0 -10 -13 -10 -30z"/>
 <path d="M6997 7242 c-42 -42 -77 -82 -77 -87 0 -6 51 -61 113 -123 l113 -113 85 3 84 3 3 84 3 85 -113 113 c-62 62 -117 113 -123 113 -6 0 -45 -35 -88 -78z m303 -229 l0 -73 -72 0 -73 0 -107 107 -108 108 72 72 73 73 107 -107 108 -108 0 -72z"/>
 <path d="M7182 7058 c-7 -7 -12 -21 -12 -33 0 -12 5 -26 12 -33 7 -7 21 -12 33 -12 12 0 26 5 33 12 7 7 12 21 12 33 0 12 -5 26 -12 33 -7 7 -21 12 -33 12 -12 0 -26 -5 -33 -12z m56 -31 c4 -20 -25 -34 -40 -19 -15 15 -1 44 19 40 10 -2 19 -11 21 -21z"/>
 <path d="M2149 7287 c-123 -65 -145 -237 -43 -327 39 -34 71 -41 59 -12 -48 116 37 247 159 247 28 0 61 -4 74 -8 31 -12 29 13 -5 54 -58 68 -163 88 -244 46z m166 -16 c22 -10 46 -25 54 -34 12 -15 9 -17 -33 -17 -119 0 -205 -85 -206 -204 0 -44 -2 -47 -17 -35 -22 18 -53 88 -53 119 -1 135 134 226 255 171z"/>
 <path d="M6418 7283 l-28 -28 -16 23 c-8 12 -24 22 -35 22 -17 0 -19 -7 -19 -62 l0 -63 -52 -46 c-32 -29 -49 -51 -46 -60 6 -14 347 -139 381 -139 9 0 17 6 17 13 0 27 -148 362 -161 365 -8 1 -26 -10 -41 -25z m-48 -49 c0 -6 -7 -17 -15 -24 -13 -11 -15 -7 -15 31 0 40 1 41 15 23 8 -10 15 -24 15 -30z m152 -103 c33 -78 58 -144 56 -146 -2 -2 -42 30 -90 70 -48 40 -99 82 -114 94 l-26 20 49 56 c26 30 52 54 56 52 5 -1 36 -67 69 -146z m-76 -71 c56 -46 102 -86 100 -87 -4 -4 -286 94 -294 102 -7 7 70 75 82 72 5 -2 55 -41 112 -87z"/>
 <path d="M2724 7277 c-2 -7 -3 -82 -2 -167 l3 -155 205 0 205 0 0 165 0 165 -203 3 c-160 2 -204 0 -208 -11z m396 -20 c0 -7 -22 -35 -50 -62 l-50 -49 -30 29 -30 29 -45 -44 -45 -44 -65 64 c-36 35 -65 70 -65 77 0 10 42 13 190 13 148 0 190 -3 190 -13z m-205 -127 l45 44 30 -29 30 -29 50 49 50 49 0 -122 0 -122 -190 0 -190 0 0 122 0 122 65 -64 65 -64 45 44z"/>
 <path d="M3002 7078 c-7 -7 -12 -21 -12 -33 0 -12 5 -26 12 -33 7 -7 21 -12 33 -12 12 0 26 5 33 12 7 7 12 21 12 33 0 12 -5 26 -12 33 -7 7 -21 12 -33 12 -12 0 -26 -5 -33 -12z m56 -31 c4 -20 -25 -34 -40 -19 -15 15 -1 44 19 40 10 -2 19 -11 21 -21z"/>
 <path d="M4294 7207 c-3 -8 -4 -36 -2 -63 3 -46 6 -50 41 -67 38 -18 48 -42 25 -65 -19 -19 -46 -14 -64 13 -19 29 -71 35 -80 10 -10 -25 17 -76 50 -96 84 -51 186 6 186 103 0 40 -31 94 -59 103 -13 4 -21 16 -23 38 -3 28 -7 32 -36 35 -21 2 -34 -2 -38 -11z m56 -32 c0 -17 14 -39 40 -64 53 -50 54 -89 6 -137 -24 -24 -43 -34 -66 -34 -23 0 -41 10 -66 34 -19 19 -34 39 -34 45 0 20 32 11 52 -14 36 -46 108 -23 108 35 0 29 -24 56 -55 62 -16 2 -21 12 -23 51 -3 42 -1 47 17 47 16 0 21 -6 21 -25z"/>
 <path d="M2282 7070 c3 -21 -1 -35 -14 -47 -27 -24 -22 -43 11 -43 22 0 30 -6 35 -25 4 -14 13 -25 21 -25 8 0 17 11 21 25 5 19 13 25 35 25 33 0 38 19 11 43 -13 12 -17 26 -14 47 5 32 -13 41 -36 18 -10 -10 -17 -10 -32 0 -32 20 -43 15 -38 -18z m78 -32 c0 -9 8 -22 18 -27 15 -9 14 -10 -6 -11 -12 0 -25 -7 -29 -16 -5 -15 -7 -15 -15 0 -5 9 -19 16 -31 16 -20 1 -20 2 -4 11 9 5 17 18 17 27 0 11 8 17 25 17 17 0 25 -6 25 -17z"/>
 <path d="M664 6607 c-2 -7 -3 -60 -2 -118 l3 -104 53 -3 c31 -2 52 1 52 7 0 6 -20 11 -45 11 l-45 0 0 100 0 100 160 0 160 0 0 -100 0 -100 -65 0 c-38 0 -65 -4 -65 -10 0 -7 27 -10 73 -8 l72 3 0 115 0 115 -173 3 c-137 2 -174 0 -178 -11z"/>
 <path d="M2145 6597 c-82 -46 -108 -151 -60 -235 26 -45 26 -65 0 -55 -21 7 -19 -11 3 -30 23 -21 36 -22 29 -3 -10 25 15 34 51 20 30 -13 44 -34 22 -34 -5 0 -10 -11 -10 -25 0 -23 3 -25 50 -25 47 0 50 2 50 25 0 14 -4 25 -10 25 -22 0 -8 21 23 34 35 14 60 5 50 -20 -7 -20 11 -17 30 4 21 23 22 36 2 29 -26 -10 -26 10 0 55 67 116 -13 258 -145 258 -28 0 -60 -9 -85 -23z m132 -8 c67 -25 111 -99 98 -165 -8 -45 -57 -100 -101 -114 -100 -33 -209 62 -190 165 12 62 82 124 143 125 12 0 34 -5 50 -11z m-37 -328 c0 -11 6 -22 13 -24 6 -3 -4 -5 -23 -5 -19 0 -29 2 -22 5 6 2 12 13 12 24 0 10 5 19 10 19 6 0 10 -9 10 -19z"/>
 <path d="M2202 6478 c-26 -26 -6 -68 32 -68 11 0 30 -10 43 -22 30 -28 43 -15 15 15 -12 13 -22 32 -22 43 0 24 -18 44 -40 44 -9 0 -21 -5 -28 -12z m44 -19 c10 -17 -13 -36 -27 -22 -12 12 -4 33 11 33 5 0 12 -5 16 -11z"/>
 <path d="M4245 6601 c-157 -72 -152 -299 7 -366 156 -65 321 89 268 249 -36 111 -167 167 -275 117z m184 -34 c53 -35 85 -103 78 -164 -2 -24 -9 -49 -14 -54 -5 -5 -69 27 -153 78 -80 47 -147 88 -150 90 -10 9 20 39 61 61 56 30 122 26 178 -11z m-61 -182 c56 -33 102 -66 102 -72 0 -21 -77 -65 -124 -70 -120 -14 -229 121 -187 230 l11 29 48 -29 c27 -15 94 -55 150 -88z"/>
 <path d="M4274 6516 c-27 -20 -10 -31 25 -16 47 19 71 6 71 -40 0 -34 4 -41 24 -46 14 -3 34 -3 45 1 17 5 21 15 21 55 0 56 -2 57 -101 59 -42 1 -72 -4 -85 -13z m156 -76 c0 -5 -7 -10 -15 -10 -8 0 -15 5 -15 10 0 6 7 10 15 10 8 0 15 -4 15 -10z"/>
 <path d="M4240 6430 c0 -20 32 -80 42 -80 6 0 8 -12 5 -30 l-6 -30 48 0 48 0 -1 35 c-1 34 -3 35 -29 29 -22 -4 -35 0 -53 17 -13 12 -24 28 -24 35 0 6 -7 17 -15 24 -12 10 -15 10 -15 0z m110 -110 c0 -5 -9 -10 -20 -10 -11 0 -20 5 -20 10 0 6 9 10 20 10 11 0 20 -4 20 -10z"/>
 <path d="M6313 6603 c2 -10 8 -26 12 -35 5 -12 -5 -30 -33 -60 -80 -88 -94 -155 -41 -207 17 -17 40 -31 51 -31 11 0 33 -11 50 -25 20 -17 42 -25 68 -25 26 0 48 8 68 25 17 14 39 25 50 25 11 0 34 14 51 31 49 48 39 121 -26 191 -18 19 -23 32 -18 48 8 24 -12 80 -27 80 -10 0 -8 -17 7 -52 9 -23 -56 -94 -78 -85 -14 5 -15 10 -5 32 9 19 8 34 -2 65 -7 22 -17 40 -22 40 -11 0 -10 -24 3 -53 9 -19 7 -31 -5 -56 -9 -17 -22 -31 -30 -31 -23 0 -48 37 -41 60 8 24 -12 80 -27 80 -6 0 -8 -8 -5 -17z m32 -123 c18 -19 17 -22 -8 -69 -15 -27 -27 -65 -27 -85 0 -34 -1 -35 -24 -25 -24 11 -46 47 -46 75 0 31 60 124 80 124 4 0 15 -9 25 -20z m202 -2 c25 -28 53 -81 53 -102 0 -28 -22 -64 -46 -75 -23 -10 -24 -9 -24 25 0 20 -12 58 -27 85 -25 47 -26 50 -8 69 23 25 27 25 52 -2z m-95 -35 c60 -65 72 -125 34 -170 -19 -22 -32 -28 -66 -28 -34 0 -47 6 -66 28 -28 33 -30 65 -8 110 17 33 63 87 74 87 3 0 18 -12 32 -27z"/>
 <path d="M6974 6603 c-3 -10 -10 -26 -15 -35 -5 -10 -9 -85 -9 -167 0 -123 3 -152 16 -165 12 -13 41 -16 154 -16 113 0 142 3 154 16 13 13 16 42 16 165 0 82 -4 157 -9 167 -5 9 -12 25 -15 35 -9 28 -70 20 -74 -10 -3 -21 -8 -23 -72 -23 -64 0 -69 2 -72 23 -4 30 -65 38 -74 10z m56 -18 c0 -8 -9 -15 -20 -15 -11 0 -20 7 -20 15 0 8 9 15 20 15 11 0 20 -7 20 -15z m220 0 c0 -8 -9 -15 -20 -15 -11 0 -20 7 -20 15 0 8 9 15 20 15 11 0 20 -7 20 -15z m20 -178 c0 -98 -4 -147 -12 -155 -8 -8 -53 -12 -138 -12 -85 0 -130 4 -138 12 -8 8 -12 57 -12 155 l0 143 150 0 150 0 0 -143z"/>
 <path d="M7004 6519 c-10 -17 13 -36 27 -22 12 12 4 33 -11 33 -5 0 -12 -5 -16 -11z"/>
 <path d="M7204 6519 c-10 -17 13 -36 27 -22 12 12 4 33 -11 33 -5 0 -12 -5 -16 -11z"/>
 <path d="M7004 6457 c-3 -8 -4 -45 -2 -83 l3 -69 115 0 115 0 0 80 0 80 -113 3 c-88 2 -114 0 -118 -11z m216 -72 l0 -65 -100 0 -100 0 0 65 0 65 100 0 100 0 0 -65z"/>
 <path d="M7050 6270 c0 -6 30 -10 70 -10 40 0 70 4 70 10 0 6 -30 10 -70 10 -40 0 -70 -4 -70 -10z"/>
 <path d="M1364 6586 c-10 -26 4 -48 28 -44 17 2 23 10 23 28 0 18 -6 26 -23 28 -13 2 -25 -3 -28 -12z"/>
 <path d="M2724 6587 c-2 -7 -3 -74 -2 -148 l3 -134 67 -3 c64 -3 67 -4 70 -30 3 -26 5 -27 68 -27 63 0 65 1 68 27 3 26 6 27 70 30 l67 3 0 145 0 145 -203 3 c-160 2 -204 0 -208 -11z m56 -137 c0 -123 -1 -130 -20 -130 -19 0 -20 7 -20 130 0 123 1 130 20 130 19 0 20 -7 20 -130z m40 0 c0 -80 -4 -130 -10 -130 -6 0 -10 50 -10 130 0 80 4 130 10 130 6 0 10 -50 10 -130z m200 0 l0 -130 -90 0 -90 0 0 130 0 130 90 0 90 0 0 -130z m40 0 c0 -80 -4 -130 -10 -130 -6 0 -10 50 -10 130 0 80 4 130 10 130 6 0 10 -50 10 -130z m60 0 c0 -123 -1 -130 -20 -130 -19 0 -20 7 -20 130 0 123 1 130 20 130 19 0 20 -7 20 -130z m-140 -170 c0 -17 -7 -20 -50 -20 -43 0 -50 3 -50 20 0 17 7 20 50 20 43 0 50 -3 50 -20z"/>
 <path d="M4825 6574 c9 -31 9 -58 -1 -141 -5 -46 -2 -59 20 -97 32 -55 107 -96 176 -96 68 0 144 41 175 94 53 91 19 193 -80 241 -49 24 -62 27 -113 20 -83 -10 -123 -10 -156 -1 -28 9 -29 8 -21 -20z m270 -13 c139 -63 135 -226 -7 -285 -49 -21 -94 -20 -143 3 -84 38 -121 117 -92 192 12 30 13 47 6 66 -12 33 -9 35 27 23 23 -8 38 -7 65 4 46 20 96 19 144 -3z"/>
 <path d="M4993 6512 c-37 -28 -73 -84 -73 -112 0 -42 26 -57 100 -57 74 0 100 15 100 57 0 29 -33 79 -73 110 -30 24 -27 24 -54 2z m64 -44 c39 -41 50 -79 28 -98 -12 -10 -21 -10 -40 -2 -19 9 -31 9 -50 0 -29 -13 -55 3 -55 33 0 18 65 99 79 99 4 0 21 -15 38 -32z"/>
 <path d="M5525 6574 c9 -31 9 -58 -1 -141 -5 -46 -2 -59 20 -97 32 -55 107 -96 176 -96 68 0 144 41 175 94 53 91 19 193 -80 241 -49 24 -62 27 -113 20 -83 -10 -123 -10 -156 -1 -28 9 -29 8 -21 -20z m270 -13 c139 -63 135 -226 -7 -285 -49 -21 -94 -20 -143 3 -84 38 -121 117 -92 192 12 30 13 47 6 66 -12 33 -9 35 27 23 23 -8 38 -7 65 4 46 20 96 19 144 -3z"/>
 <path d="M5640 6487 c0 -18 42 -37 80 -37 38 0 80 19 80 37 0 11 -5 11 -30 -2 -16 -8 -38 -15 -50 -15 -12 0 -34 7 -50 15 -25 13 -30 13 -30 2z"/>
 <path d="M5640 6405 c-26 -32 13 -81 48 -59 34 22 22 74 -18 74 -10 0 -23 -7 -30 -15z m46 -16 c10 -17 -13 -36 -27 -22 -12 12 -4 33 11 33 5 0 12 -5 16 -11z"/>
 <path d="M5740 6405 c-26 -32 13 -81 48 -59 34 22 22 74 -18 74 -10 0 -23 -7 -30 -15z m46 -16 c10 -17 -13 -36 -27 -22 -12 12 -4 33 11 33 5 0 12 -5 16 -11z"/>
 <path d="M1440 6570 c0 -6 53 -10 140 -10 87 0 140 4 140 10 0 6 -53 10 -140 10 -87 0 -140 -4 -140 -10z"/>
 <path d="M3432 6558 c-17 -17 -17 -259 0 -276 8 -8 67 -12 198 -12 131 0 190 4 198 12 17 17 17 259 0 276 -8 8 -67 12 -198 12 -131 0 -190 -4 -198 -12z m386 -75 l3 -63 -191 0 -190 0 0 58 c0 32 3 62 7 66 4 3 88 5 187 4 l181 -3 3 -62z m2 -103 c0 -19 -7 -20 -190 -20 -183 0 -190 1 -190 20 0 19 7 20 190 20 183 0 190 -1 190 -20z m-2 -62 c-3 -23 -4 -23 -188 -23 -184 0 -185 0 -188 23 l-3 22 191 0 191 0 -3 -22z"/>
 <path d="M3694 6506 c-13 -33 4 -47 48 -44 38 3 43 6 43 28 0 22 -5 25 -43 28 -31 2 -44 -1 -48 -12z m76 -16 c0 -5 -13 -10 -30 -10 -16 0 -30 5 -30 10 0 6 14 10 30 10 17 0 30 -4 30 -10z"/>
 <path d="M1364 6486 c-10 -26 4 -48 28 -44 17 2 23 10 23 28 0 18 -6 26 -23 28 -13 2 -25 -3 -28 -12z"/>
 <path d="M1440 6470 c0 -6 53 -10 140 -10 87 0 140 4 140 10 0 6 -53 10 -140 10 -87 0 -140 -4 -140 -10z"/>
 <path d="M810 6409 c0 -56 3 -64 34 -95 30 -30 40 -34 87 -34 l52 0 -23 -25 c-38 -41 -13 -42 28 -2 l37 37 -37 37 c-41 41 -65 38 -27 -3 l24 -27 -53 5 c-74 7 -94 29 -100 108 -6 78 -22 78 -22 -1z"/>
 <path d="M1364 6386 c-10 -26 4 -48 28 -44 17 2 23 10 23 28 0 18 -6 26 -23 28 -13 2 -25 -3 -28 -12z"/>
 <path d="M1440 6370 c0 -6 53 -10 140 -10 87 0 140 4 140 10 0 6 -53 10 -140 10 -87 0 -140 -4 -140 -10z"/>
 <path d="M1364 6286 c-10 -26 4 -48 28 -44 17 2 23 10 23 28 0 18 -6 26 -23 28 -13 2 -25 -3 -28 -12z"/>
 <path d="M1440 6270 c0 -6 53 -10 140 -10 87 0 140 4 140 10 0 6 -53 10 -140 10 -87 0 -140 -4 -140 -10z"/>
 <path d="M2050 5930 c0 -5 9 -10 20 -10 19 0 20 -7 20 -165 0 -108 -4 -172 -12 -184 -6 -10 -8 -26 -5 -35 6 -14 27 -16 157 -16 130 0 151 2 157 16 3 9 1 25 -5 35 -8 12 -12 76 -12 184 0 158 1 165 20 165 11 0 20 5 20 10 0 6 -67 10 -180 10 -113 0 -180 -4 -180 -10z m140 -50 l0 -40 40 0 40 0 0 40 0 40 40 0 40 0 0 -170 0 -170 -120 0 -120 0 0 170 0 170 40 0 40 0 0 -40z m60 10 c0 -23 -4 -30 -20 -30 -16 0 -20 7 -20 30 0 23 4 30 20 30 16 0 20 -7 20 -30z m120 -340 c0 -6 -53 -10 -140 -10 -87 0 -140 4 -140 10 0 6 53 10 140 10 87 0 140 -4 140 -10z"/>
 <path d="M2150 5760 c0 -38 2 -40 30 -40 28 0 30 2 30 40 0 38 -2 40 -30 40 -28 0 -30 -2 -30 -40z m40 0 c0 -11 -4 -20 -10 -20 -5 0 -10 9 -10 20 0 11 5 20 10 20 6 0 10 -9 10 -20z"/>
 <path d="M2250 5760 c0 -38 2 -40 30 -40 28 0 30 2 30 40 0 38 -2 40 -30 40 -28 0 -30 -2 -30 -40z m40 0 c0 -11 -4 -20 -10 -20 -5 0 -10 9 -10 20 0 11 5 20 10 20 6 0 10 -9 10 -20z"/>
 <path d="M2150 5650 c0 -38 2 -40 30 -40 28 0 30 2 30 40 0 38 -2 40 -30 40 -28 0 -30 -2 -30 -40z m40 0 c0 -11 -4 -20 -10 -20 -5 0 -10 9 -10 20 0 11 5 20 10 20 6 0 10 -9 10 -20z"/>
 <path d="M2250 5650 c0 -38 2 -40 30 -40 28 0 30 2 30 40 0 38 -2 40 -30 40 -28 0 -30 -2 -30 -40z m40 0 c0 -11 -4 -20 -10 -20 -5 0 -10 9 -10 20 0 11 5 20 10 20 6 0 10 -9 10 -20z"/>
 <path d="M675 5917 c-3 -7 -4 -82 -3 -167 l3 -155 63 -3 c38 -2 62 1 62 8 0 6 -23 10 -55 10 l-55 0 0 150 0 150 150 0 150 0 0 -150 0 -150 -55 0 c-32 0 -55 -4 -55 -10 0 -7 24 -10 63 -8 l62 3 0 165 0 165 -163 3 c-127 2 -164 0 -167 -11z"/>
 <path d="M1455 5911 c-157 -72 -152 -299 7 -366 100 -41 214 3 259 100 35 75 16 179 -42 232 -58 53 -152 67 -224 34z m162 -22 c24 -11 43 -24 43 -28 0 -3 -56 -62 -125 -131 -119 -119 -125 -123 -140 -105 -64 85 -31 215 67 264 54 27 100 27 155 0z m94 -106 c48 -147 -130 -292 -257 -208 l-27 17 124 124 c132 132 137 135 160 67z"/>
 <path d="M1427 5803 c-11 -10 -8 -143 3 -143 6 0 10 28 10 65 l0 65 64 0 c36 0 68 5 71 10 7 11 -137 14 -148 3z"/>
 <path d="M1638 5774 c-16 -8 -28 -19 -28 -24 0 -13 7 -13 31 0 17 10 19 7 19 -20 0 -27 -2 -30 -19 -20 -28 14 -31 13 -31 -15 0 -23 -4 -25 -44 -25 -25 0 -48 -4 -51 -10 -4 -6 15 -10 50 -10 48 0 57 3 64 22 5 14 10 17 15 10 4 -7 14 -12 22 -12 11 0 14 14 14 60 0 33 -3 60 -7 60 -5 -1 -20 -8 -35 -16z"/>
 <path d="M2807 5852 c-42 -42 -77 -82 -77 -87 0 -6 51 -61 113 -123 l113 -113 85 3 84 3 3 84 3 85 -113 113 c-62 62 -117 113 -123 113 -6 0 -45 -35 -88 -78z m303 -229 l0 -73 -72 0 -73 0 -107 107 -108 108 72 72 73 73 107 -107 108 -108 0 -72z"/>
 <path d="M2992 5668 c-7 -7 -12 -21 -12 -33 0 -12 5 -26 12 -33 7 -7 21 -12 33 -12 12 0 26 5 33 12 7 7 12 21 12 33 0 12 -5 26 -12 33 -7 7 -21 12 -33 12 -12 0 -26 -5 -33 -12z m56 -31 c4 -20 -25 -34 -40 -19 -15 15 -1 44 19 40 10 -2 19 -11 21 -21z"/>
 <path d="M4175 5917 c-3 -7 -4 -96 -3 -197 l3 -185 105 -3 105 -3 53 54 53 53 -3 145 -3 144 -153 3 c-118 2 -154 0 -157 -11z m295 -136 l0 -130 -47 -3 -48 -3 -3 -47 -3 -48 -90 0 -89 0 0 180 0 180 140 0 140 0 0 -129z m-20 -154 c0 -2 -13 -16 -30 -32 l-30 -29 0 32 c0 29 3 32 30 32 17 0 30 -1 30 -3z"/>
 <path d="M4230 5820 c0 -6 40 -10 100 -10 60 0 100 4 100 10 0 6 -40 10 -100 10 -60 0 -100 -4 -100 -10z"/>
 <path d="M4230 5760 c0 -6 40 -10 100 -10 60 0 100 4 100 10 0 6 -40 10 -100 10 -60 0 -100 -4 -100 -10z"/>
 <path d="M4230 5700 c0 -6 40 -10 100 -10 60 0 100 4 100 10 0 6 -40 10 -100 10 -60 0 -100 -4 -100 -10z"/>
 <path d="M4230 5640 c0 -5 23 -10 50 -10 28 0 50 5 50 10 0 6 -22 10 -50 10 -27 0 -50 -4 -50 -10z"/>
 <path d="M4956 5918 c-3 -7 -7 -33 -9 -57 -4 -27 -15 -53 -30 -70 -36 -39 -47 -65 -47 -114 0 -54 31 -105 80 -129 94 -48 203 9 217 112 7 53 -2 84 -38 125 -23 26 -33 49 -38 88 l-6 52 -63 3 c-44 2 -63 -1 -66 -10z m114 -18 c0 -5 -22 -10 -50 -10 -27 0 -50 5 -50 10 0 6 23 10 50 10 28 0 50 -4 50 -10z m0 -40 c0 -5 -22 -10 -50 -10 -27 0 -50 5 -50 10 0 6 23 10 50 10 28 0 50 -4 50 -10z m28 -70 c18 -22 38 -53 44 -70 31 -91 -56 -186 -152 -165 -63 14 -112 95 -96 158 3 13 23 45 43 70 35 43 41 47 83 47 40 0 49 -5 78 -40z"/>
 <path d="M5581 5784 c-64 -184 -68 -199 -49 -192 7 3 25 0 39 -8 15 -8 57 -13 110 -14 72 0 91 -3 113 -21 15 -11 32 -19 39 -16 7 2 26 44 42 91 l30 87 -33 30 c-32 29 -34 29 -132 27 -130 -4 -139 3 -110 87 22 65 24 75 11 75 -5 0 -32 -66 -60 -146z m167 -42 c80 3 94 1 111 -17 20 -20 20 -20 -6 -92 l-25 -72 -29 14 c-18 10 -57 15 -109 15 -53 0 -91 5 -110 15 -17 9 -30 17 -30 20 0 2 12 35 26 73 l25 70 28 -14 c20 -10 57 -13 119 -12z"/>
 <path d="M6350 5912 c-79 -39 -102 -132 -55 -227 40 -83 75 -112 75 -62 0 13 7 32 15 43 13 18 14 16 15 -26 0 -42 18 -84 44 -102 19 -13 23 -9 30 24 3 18 25 61 48 96 54 82 62 149 26 202 -28 42 -80 70 -128 70 -19 0 -51 -8 -70 -18z m125 -16 c82 -35 95 -125 31 -222 -20 -30 -41 -67 -47 -81 -15 -41 -32 -13 -37 63 -5 77 -23 83 -58 21 l-21 -38 -15 23 c-59 92 -44 199 35 233 41 18 69 18 112 1z"/>
 <path d="M7035 5911 c-157 -72 -152 -299 7 -366 70 -29 161 -13 217 38 79 72 79 222 0 294 -58 53 -152 67 -224 34z m184 -34 c114 -76 101 -246 -24 -307 -88 -43 -191 -6 -235 85 -78 160 109 321 259 222z"/>
 <path d="M7040 5826 c0 -8 5 -27 10 -42 10 -25 8 -30 -20 -52 -43 -33 -39 -50 12 -54 38 -3 43 -6 52 -35 5 -21 15 -33 26 -33 11 0 21 12 26 33 9 29 14 32 52 35 50 4 55 22 13 53 -26 19 -28 25 -20 53 18 61 3 73 -45 35 l-26 -20 -26 20 c-31 24 -54 27 -54 7z m60 -38 c16 -10 24 -10 40 0 28 17 31 15 24 -15 -6 -22 -2 -31 22 -50 l29 -23 -37 0 c-32 0 -39 -4 -44 -25 -3 -14 -10 -25 -14 -25 -4 0 -11 11 -14 25 -5 21 -12 25 -44 25 l-37 0 29 23 c24 19 28 28 22 50 -7 30 -4 32 24 15z"/>
 <path d="M3592 5908 c-7 -7 -45 -22 -85 -33 l-72 -20 -3 -133 c-2 -127 -2 -132 18 -132 14 0 20 -7 20 -21 0 -20 4 -21 49 -16 28 3 64 13 80 22 28 14 34 14 62 0 16 -9 52 -19 80 -22 45 -5 49 -4 49 16 0 14 6 21 20 21 20 0 20 5 18 132 l-3 133 -72 20 c-40 11 -78 26 -85 33 -6 6 -24 12 -38 12 -14 0 -32 -6 -38 -12z m61 -21 c2 -7 39 -21 81 -31 l76 -19 0 -114 c0 -146 -18 -150 -22 -6 l-3 108 -47 6 c-26 4 -61 15 -77 25 -30 18 -32 18 -62 0 -16 -10 -51 -21 -77 -25 l-47 -6 -3 -108 c-4 -144 -22 -140 -22 6 l0 113 71 19 c39 10 76 24 82 31 15 17 43 18 50 1z m-33 -162 l0 -114 -28 -15 c-15 -8 -44 -17 -65 -21 l-37 -7 0 121 0 121 33 0 c17 1 46 7 62 15 17 7 31 14 33 14 1 1 2 -51 2 -114z m120 85 l30 0 0 -121 0 -121 -37 7 c-21 4 -50 13 -65 21 l-28 15 0 114 0 114 35 -15 c19 -7 48 -14 65 -14z"/>
 <path d="M800 5725 c-38 -39 -34 -61 5 -25 l25 23 0 -96 c0 -58 4 -97 10 -97 6 0 10 39 10 97 l0 96 25 -23 c39 -36 43 -14 5 25 -19 19 -37 35 -40 35 -3 0 -21 -16 -40 -35z"/>
 <path d="M3500 5122 c0 -105 -2 -119 -20 -135 -11 -9 -20 -26 -20 -37 0 -11 9 -28 20 -37 11 -10 20 -30 20 -45 0 -16 5 -28 10 -28 6 0 10 12 10 28 0 15 9 35 20 45 11 9 20 26 20 37 0 11 -9 28 -20 37 -18 16 -20 30 -20 135 0 72 -4 118 -10 118 -6 0 -10 -46 -10 -118z m30 -158 c11 -12 10 -18 -3 -32 -16 -15 -18 -15 -34 0 -13 14 -14 20 -3 32 7 9 16 16 20 16 4 0 13 -7 20 -16z"/>
 <path d="M3620 5217 c0 -12 -9 -30 -20 -40 -11 -9 -20 -26 -20 -37 0 -11 9 -28 20 -37 18 -16 20 -30 20 -140 0 -75 4 -123 10 -123 6 0 10 48 10 123 0 110 2 124 20 140 11 9 20 26 20 37 0 11 -9 28 -20 37 -11 10 -20 28 -20 40 0 13 -4 23 -10 23 -5 0 -10 -10 -10 -23z m30 -63 c11 -12 10 -18 -3 -32 -16 -15 -18 -15 -34 0 -13 14 -14 20 -3 32 7 9 16 16 20 16 4 0 13 -7 20 -16z"/>
 <path d="M3740 5142 c0 -85 -3 -100 -20 -115 -11 -9 -20 -26 -20 -37 0 -11 9 -28 20 -37 15 -13 20 -30 20 -65 0 -27 5 -48 10 -48 6 0 10 21 10 48 0 35 5 52 20 65 11 9 20 26 20 37 0 11 -9 28 -20 37 -17 15 -20 30 -20 115 0 59 -4 98 -10 98 -6 0 -10 -39 -10 -98z m30 -138 c11 -12 10 -18 -3 -32 -16 -15 -18 -15 -34 0 -13 14 -14 20 -3 32 7 9 16 16 20 16 4 0 13 -7 20 -16z"/>
 <path d="M4157 5234 c-4 -4 -7 -48 -7 -99 0 -51 -5 -96 -11 -102 -6 -6 -9 -28 -7 -49 l3 -39 52 -5 c44 -4 51 -8 43 -20 -14 -22 -12 -47 6 -64 21 -22 50 -20 74 4 l20 20 20 -20 c22 -22 42 -25 71 -10 22 12 26 64 7 77 -8 5 9 10 42 13 54 5 55 6 58 39 2 19 -1 44 -7 55 -6 12 -12 62 -13 111 l-3 90 -171 3 c-93 1 -173 -1 -177 -4z m163 -104 l0 -90 -75 0 -75 0 0 90 0 90 75 0 75 0 0 -90z m170 0 l0 -90 -75 0 -75 0 0 90 0 90 75 0 75 0 0 -90z m-170 -140 l0 -30 -85 0 -85 0 0 30 0 30 85 0 85 0 0 -30z m190 0 l0 -30 -85 0 -85 0 0 30 0 30 85 0 85 0 0 -30z m-190 -64 c0 -8 -11 -28 -24 -43 -24 -27 -25 -27 -43 -10 -17 18 -17 19 10 43 31 27 57 31 57 10z m70 -1 c33 -17 38 -36 14 -56 -14 -11 -20 -10 -40 14 -25 29 -32 57 -14 57 6 0 24 -7 40 -15z"/>
 <path d="M6260 5230 c0 -5 8 -10 18 -10 10 0 28 -13 40 -29 l21 -29 -24 -16 c-62 -41 -83 -149 -42 -221 63 -112 231 -112 294 0 41 72 20 180 -42 221 l-24 16 21 29 c12 16 30 29 40 29 10 0 18 5 18 10 0 6 -60 10 -160 10 -100 0 -160 -4 -160 -10z m236 -31 c-12 -18 -25 -21 -76 -21 -51 0 -64 3 -76 21 -15 21 -15 21 76 21 91 0 91 0 76 -21z m-29 -50 c67 -25 111 -99 98 -165 -8 -45 -57 -100 -101 -114 -100 -33 -209 62 -190 165 12 62 82 124 143 125 12 0 34 -5 50 -11z"/>
 <path d="M6349 5081 c-64 -65 -20 -171 71 -171 33 0 48 6 71 29 64 65 20 171 -71 171 -33 0 -48 -6 -71 -29z m105 -2 c58 -27 55 -115 -5 -139 -63 -26 -125 36 -100 99 19 44 60 60 105 40z"/>
 <path d="M6457 4999 c-3 -11 -15 -23 -26 -26 -26 -7 -28 -23 -3 -23 23 0 52 30 52 53 0 24 -17 21 -23 -4z"/>
 <path d="M6934 5227 c-2 -7 -3 -56 -2 -108 l3 -94 43 -3 c32 -2 46 -9 58 -28 15 -21 23 -24 84 -24 61 0 69 3 84 24 12 19 26 26 58 28 l43 3 0 105 0 105 -183 3 c-146 2 -183 0 -188 -11z m356 -97 l0 -90 -38 0 c-28 0 -45 -7 -62 -25 -19 -20 -33 -25 -70 -25 -37 0 -51 5 -70 25 -17 18 -34 25 -62 25 l-38 0 0 90 0 90 170 0 170 0 0 -90z"/>
 <path d="M7065 5165 c-50 -49 -15 -135 55 -135 41 0 80 39 80 80 0 19 -9 40 -25 55 -15 16 -36 25 -55 25 -19 0 -40 -9 -55 -25z m95 -15 c11 -11 20 -29 20 -40 0 -26 -34 -60 -60 -60 -26 0 -60 34 -60 60 0 11 9 29 20 40 11 11 29 20 40 20 11 0 29 -9 40 -20z"/>
 <path d="M697 5214 c-4 -4 -7 -45 -7 -91 0 -80 -1 -83 -19 -73 -24 12 -61 13 -61 1 0 -5 13 -11 29 -14 16 -4 46 -21 67 -39 33 -30 45 -34 113 -38 75 -5 76 -6 100 -43 30 -45 58 -54 108 -34 33 13 38 19 38 48 0 31 -3 34 -33 37 -47 5 -66 45 -72 157 -5 88 -6 90 -30 90 -23 0 -25 -4 -28 -52 l-3 -53 -74 0 -74 0 -3 53 c-3 44 -6 52 -23 55 -12 2 -24 0 -28 -4z m35 -66 l3 -53 90 0 90 0 3 53 c5 88 21 58 24 -45 4 -126 0 -130 -113 -123 -108 7 -119 19 -119 136 0 92 17 116 22 32z m285 -198 c47 0 46 -31 -3 -49 -33 -12 -38 -11 -60 10 -28 27 -31 54 -6 68 13 8 19 6 26 -10 6 -13 19 -19 43 -19z"/>
 <path d="M1403 5201 c-84 -39 -99 -144 -29 -208 31 -29 43 -33 89 -33 30 0 61 6 74 15 21 14 21 14 16 -25 -4 -27 0 -47 11 -65 16 -25 46 -34 46 -15 0 14 56 12 80 -2 16 -11 22 -9 34 7 20 26 20 96 1 121 -8 10 -15 38 -15 62 0 28 -6 48 -20 62 -18 18 -33 20 -171 20 -140 0 -150 1 -138 17 8 9 29 22 47 30 29 12 40 11 98 -7 74 -23 84 -24 84 -11 0 9 -126 51 -152 51 -7 0 -32 -9 -55 -19z m269 -98 c10 -9 18 -29 18 -45 0 -27 -2 -28 -47 -28 -29 0 -66 -10 -101 -26 -65 -31 -120 -28 -158 7 -24 23 -41 79 -29 98 4 7 60 11 152 11 122 0 149 -3 165 -17z m25 -115 c15 -14 23 -33 23 -54 0 -33 -14 -52 -24 -36 -8 13 -90 11 -98 -2 -11 -15 -28 11 -28 42 0 31 43 72 76 72 15 0 38 -10 51 -22z"/>
 <path d="M1635 4980 c-3 -5 3 -10 15 -10 12 0 18 5 15 10 -3 6 -10 10 -15 10 -5 0 -12 -4 -15 -10z"/>
 <path d="M1600 4945 c0 -8 7 -15 15 -15 8 0 15 7 15 15 0 8 -7 15 -15 15 -8 0 -15 -7 -15 -15z"/>
 <path d="M1670 4945 c0 -8 7 -15 15 -15 8 0 15 7 15 15 0 8 -7 15 -15 15 -8 0 -15 -7 -15 -15z"/>
 <path d="M5570 5212 c0 -4 13 -23 30 -42 16 -19 29 -38 30 -42 0 -4 -24 -8 -52 -10 l-53 -3 0 -115 0 -115 145 0 145 0 3 28 c4 32 2 31 49 12 19 -8 39 -15 44 -15 5 0 9 41 9 90 0 50 -4 90 -9 90 -5 0 -25 -7 -44 -15 -47 -19 -45 -20 -49 13 -3 25 -7 27 -55 30 -29 2 -53 6 -53 10 1 4 14 23 30 42 17 19 30 38 30 42 0 20 -21 4 -56 -42 -21 -27 -41 -50 -44 -50 -3 0 -23 23 -44 50 -35 46 -56 62 -56 42z m230 -143 c0 -30 2 -31 33 -26 17 3 40 8 50 12 15 6 17 0 17 -55 0 -55 -2 -61 -17 -55 -10 4 -33 9 -50 12 -31 5 -33 4 -33 -26 l0 -31 -130 0 -130 0 0 100 0 100 130 0 130 0 0 -31z"/>
 <path d="M5564 4949 c-10 -17 13 -36 27 -22 12 12 4 33 -11 33 -5 0 -12 -5 -16 -11z"/>
 <path d="M4939 5186 c-21 -7 -50 -23 -65 -35 -28 -22 -84 -96 -84 -111 0 -4 13 -26 29 -50 98 -146 304 -146 402 0 16 24 29 46 29 50 0 17 -58 92 -90 115 -61 45 -149 57 -221 31z m146 -17 c50 -14 135 -96 135 -129 0 -53 -125 -140 -200 -140 -75 0 -200 87 -200 139 0 31 77 109 125 126 49 17 88 18 140 4z"/>
 <path d="M4958 5144 c-77 -41 -75 -169 2 -209 60 -31 137 -10 165 45 57 110 -58 223 -167 164z m128 -38 c25 -24 34 -43 34 -66 0 -23 -9 -41 -34 -66 -24 -24 -43 -34 -66 -34 -23 0 -41 10 -66 34 -24 25 -34 43 -34 66 0 23 10 42 34 66 25 25 43 34 66 34 23 0 42 -9 66 -34z"/>
 <path d="M4977 5082 c-22 -24 -21 -65 1 -85 40 -36 102 -9 102 45 0 51 -69 78 -103 40z m73 -17 c26 -32 -13 -81 -47 -59 -35 22 -23 74 17 74 10 0 23 -7 30 -15z"/>
 <path d="M2085 5090 l-60 -60 62 -62 c34 -34 66 -59 70 -55 4 4 -15 30 -42 57 l-49 50 182 0 c115 0 182 4 182 10 0 6 -67 10 -182 10 l-182 0 47 48 c26 26 47 51 47 55 0 17 -19 3 -75 -53z"/>
 <path d="M3000 5143 c0 -4 21 -29 47 -55 l47 -48 -182 0 c-115 0 -182 -4 -182 -10 0 -6 67 -10 182 -10 l182 0 -49 -50 c-27 -27 -46 -53 -42 -57 4 -4 36 21 70 55 l62 62 -60 60 c-56 56 -75 70 -75 53z"/>
 <path d="M7110 4914 c0 -32 -2 -35 -15 -24 -28 23 -29 0 -2 -28 l27 -27 27 27 c27 28 26 51 -2 28 -13 -11 -15 -8 -15 24 0 20 -4 36 -10 36 -5 0 -10 -16 -10 -36z"/>
 <path d="M7020 4546 c-14 -16 -20 -31 -16 -42 9 -23 -13 -46 -36 -38 -22 7 -68 -30 -68 -54 0 -21 260 -282 280 -282 25 0 64 46 56 66 -9 23 13 46 36 38 20 -6 68 29 68 50 0 14 -272 286 -286 286 -6 0 -21 -11 -34 -24z m288 -273 c-6 -7 -23 -13 -39 -13 -35 0 -59 -24 -59 -59 0 -15 -5 -32 -12 -39 -10 -10 -41 16 -145 120 -140 140 -149 158 -77 158 36 0 54 21 54 62 0 13 5 29 12 36 18 18 282 -246 266 -265z"/>
 <path d="M7027 4442 c-26 -26 -47 -52 -47 -58 0 -13 162 -174 176 -174 13 0 104 92 104 106 0 13 -162 174 -176 174 -5 0 -31 -22 -57 -48z m135 -49 c38 -37 68 -72 68 -77 0 -13 -61 -76 -74 -76 -13 0 -146 131 -146 144 0 13 61 76 74 76 6 0 41 -30 78 -67z"/>
 <path d="M727 4554 c-4 -4 -7 -45 -7 -90 0 -83 0 -83 35 -111 30 -24 35 -34 35 -68 0 -45 -7 -58 -32 -68 -22 -8 -23 -40 -2 -62 13 -13 35 -15 118 -13 97 3 101 4 104 26 3 17 -2 25 -17 29 -25 6 -27 31 -6 59 34 45 0 47 -50 3 l-35 -31 0 48 c0 44 4 52 35 77 l36 28 -3 87 -3 87 -101 3 c-55 1 -103 0 -107 -4z m193 -68 c0 -66 -14 -74 -91 -56 -27 7 -59 10 -69 7 -18 -5 -20 0 -20 49 l0 54 90 0 90 0 0 -54z m-42 -81 c23 0 42 -3 42 -6 0 -4 -16 -19 -35 -33 -19 -15 -35 -36 -35 -47 0 -12 -7 -19 -20 -19 -13 0 -20 7 -20 19 0 11 -16 32 -36 47 -34 26 -35 29 -18 41 13 9 29 11 49 6 16 -4 49 -8 73 -8z m-28 -135 c0 -5 -9 -10 -20 -10 -11 0 -20 5 -20 10 0 6 9 10 20 10 11 0 20 -4 20 -10z m8 -55 c6 -13 23 -27 37 -31 47 -12 25 -24 -43 -24 -63 0 -92 10 -92 32 0 4 6 8 14 8 8 0 18 9 21 20 9 29 49 26 63 -5z m58 -12 c-11 -11 -19 6 -11 24 8 17 8 17 12 0 3 -10 2 -21 -1 -24z"/>
 <path d="M2212 4543 c-19 -9 -45 -34 -59 -56 -26 -41 -31 -42 -103 -25 -11 2 -14 -4 -13 -22 5 -45 4 -65 -2 -115 -6 -42 -3 -55 17 -84 12 -19 35 -43 50 -54 33 -24 114 -33 161 -18 48 16 95 72 103 121 4 21 12 41 20 44 25 10 46 66 40 110 -3 22 -6 46 -7 51 -1 6 2 21 5 35 l7 25 -93 2 c-69 1 -102 -2 -126 -14z m159 -15 c21 -1 26 -6 27 -27 0 -14 4 -42 7 -61 5 -28 2 -41 -16 -63 l-22 -29 -15 32 c-8 17 -27 39 -42 50 -30 22 -105 41 -126 33 -23 -9 -16 12 14 39 37 34 49 38 102 32 25 -3 57 -6 71 -6z m-66 -128 c19 -18 37 -46 40 -61 16 -74 -48 -149 -133 -156 -58 -5 -107 18 -140 67 -19 29 -22 42 -17 75 4 22 8 55 9 73 1 29 4 32 23 27 12 -3 32 -1 45 5 13 5 49 8 81 7 49 -3 62 -8 92 -37z"/>
 <path d="M2094 4326 c-10 -26 4 -48 28 -44 17 2 23 10 23 28 0 18 -6 26 -23 28 -13 2 -25 -3 -28 -12z"/>
 <path d="M2174 4326 c-10 -26 4 -48 28 -44 17 2 23 10 23 28 0 18 -6 26 -23 28 -13 2 -25 -3 -28 -12z"/>
 <path d="M2254 4326 c-10 -26 4 -48 28 -44 17 2 23 10 23 28 0 18 -6 26 -23 28 -13 2 -25 -3 -28 -12z"/>
 <path d="M2787 4554 c-4 -4 -7 -47 -7 -95 0 -83 -1 -88 -22 -91 -49 -7 -32 -40 66 -130 52 -49 100 -88 106 -88 6 0 54 39 106 88 98 90 115 123 67 130 -21 3 -22 9 -25 95 l-3 92 -141 3 c-77 1 -143 -1 -147 -4z m273 -113 l0 -100 -60 -53 c-33 -29 -65 -53 -70 -53 -5 0 -37 24 -70 53 l-60 53 0 100 0 99 130 0 130 0 0 -99z m-130 -241 c8 0 50 35 92 77 43 43 78 73 78 68 0 -6 -38 -48 -85 -95 l-85 -85 -85 85 c-47 47 -85 89 -85 95 0 5 35 -25 78 -68 42 -42 84 -77 92 -77z"/>
 <path d="M2907 4485 c-34 -25 -67 -78 -67 -107 0 -35 21 -46 90 -46 69 0 90 11 90 46 0 36 -63 121 -90 121 -3 0 -13 -6 -23 -14z m63 -51 c33 -39 36 -60 7 -78 -15 -9 -21 -7 -33 8 -14 20 -14 20 -28 0 -12 -15 -18 -17 -33 -8 -10 6 -19 18 -21 27 -3 15 53 87 68 87 4 0 22 -16 40 -36z"/>
 <path d="M3562 4553 c-18 -7 -42 -57 -42 -88 0 -22 4 -25 33 -25 18 0 43 7 55 16 20 14 24 14 44 0 12 -9 37 -16 55 -16 29 0 33 3 33 25 0 33 -25 81 -45 89 -19 7 -114 7 -133 -1z m58 -28 c0 -9 -11 -27 -25 -40 -25 -26 -55 -33 -55 -14 0 15 21 53 34 61 19 13 46 9 46 -7z m66 7 c13 -8 34 -46 34 -61 0 -19 -30 -12 -55 14 -14 13 -25 31 -25 40 0 16 27 20 46 7z"/>
 <path d="M4241 4540 c-44 -20 -46 -25 -27 -70 5 -12 -4 -19 -36 -27 -24 -7 -52 -18 -62 -26 -18 -13 -18 -18 -6 -46 7 -17 26 -39 41 -48 31 -18 35 -28 19 -38 -17 -11 -11 -64 10 -85 42 -42 120 -11 120 48 0 15 -4 32 -9 38 -6 6 8 9 39 9 31 0 46 -3 40 -9 -17 -17 -11 -65 10 -86 43 -43 120 -11 120 49 0 17 -4 33 -10 36 -16 10 -12 20 19 38 15 9 34 31 41 48 12 28 12 33 -6 46 -10 8 -38 19 -62 26 -32 8 -41 15 -36 27 19 45 17 50 -27 70 -24 11 -64 20 -89 20 -25 0 -65 -9 -89 -20z m154 -14 c42 -18 44 -34 9 -67 -20 -19 -37 -24 -74 -24 -37 0 -54 5 -74 24 -34 32 -33 49 7 66 42 18 89 19 132 1z m-125 -106 c12 -7 12 -12 2 -22 -6 -6 -12 -27 -12 -46 l0 -35 -41 6 c-42 5 -89 40 -89 64 0 30 106 55 140 33z m225 -4 c19 -8 35 -21 35 -29 0 -24 -47 -59 -89 -64 l-41 -6 0 35 c0 19 -6 40 -12 46 -30 30 48 42 107 18z m-135 -26 c11 -11 20 -25 20 -32 0 -17 -31 -48 -48 -48 -20 0 -52 29 -52 47 0 15 35 53 50 53 6 0 19 -9 30 -20z m-98 -107 c22 -20 23 -41 1 -65 -20 -22 -41 -23 -65 -1 -22 20 -23 41 -1 65 20 22 41 23 65 1z m198 -3 c11 -11 20 -25 20 -32 0 -17 -31 -48 -48 -48 -20 0 -52 29 -52 47 0 15 35 53 50 53 6 0 19 -9 30 -20z"/>
 <path d="M5570 4539 c0 -11 -9 -32 -20 -46 -11 -14 -20 -39 -20 -54 0 -16 -5 -38 -12 -49 -9 -14 -9 -24 0 -42 6 -13 13 -63 14 -113 l3 -90 40 -2 c93 -3 105 13 51 66 -40 38 -56 34 -56 -15 0 -19 -4 -34 -10 -34 -6 0 -10 37 -10 90 l0 90 185 0 c162 0 186 2 192 16 3 9 1 25 -5 35 -7 10 -12 32 -12 48 0 15 -9 40 -20 54 -11 14 -20 35 -20 46 0 12 -4 21 -10 21 -5 0 -10 -6 -10 -12 0 -10 -33 -13 -130 -13 -97 0 -130 3 -130 13 0 6 -4 12 -10 12 -5 0 -10 -9 -10 -21z m290 -45 c11 -11 23 -37 27 -57 l6 -37 -172 0 c-171 0 -171 0 -171 23 0 33 22 70 50 85 17 9 59 12 132 10 93 -3 110 -6 128 -24z m50 -124 c0 -6 -70 -10 -190 -10 -120 0 -190 4 -190 10 0 6 70 10 190 10 120 0 190 -4 190 -10z m-285 -208 c-6 -7 -35 18 -35 31 0 5 9 2 20 -8 11 -10 18 -20 15 -23z"/>
 <path d="M1494 4511 c-60 -44 -92 -83 -96 -116 -2 -20 -9 -31 -23 -33 -25 -5 -65 -41 -65 -59 0 -20 14 -16 40 12 l24 25 43 -42 43 -42 -25 -26 c-28 -29 -31 -40 -12 -40 19 0 57 43 57 63 0 40 111 41 118 2 5 -25 41 -65 59 -65 19 0 16 11 -12 40 l-25 26 43 42 43 42 24 -25 c26 -28 40 -32 40 -12 0 18 -40 54 -65 59 -11 2 -21 13 -23 25 -2 11 -12 29 -23 39 -10 9 -19 25 -19 35 0 21 -64 79 -89 79 -10 0 -36 -13 -57 -29z m95 -17 c37 -31 40 -62 7 -94 -25 -22 -35 -22 -68 2 -13 9 -22 9 -42 0 -32 -14 -33 -38 -4 -69 21 -23 21 -23 2 -37 -17 -13 -22 -12 -52 17 -21 21 -29 34 -22 41 5 5 10 22 10 37 0 21 14 39 61 78 33 28 65 51 69 51 5 0 22 -12 39 -26z m73 -125 c6 -29 2 -38 -20 -62 -17 -18 -29 -24 -36 -17 -5 5 -20 10 -33 10 -13 0 -39 15 -59 33 -31 28 -34 35 -21 45 11 10 19 8 40 -8 33 -26 38 -25 72 10 35 37 47 34 57 -11z"/>
 <path d="M4877 4534 c-4 -4 -7 -15 -7 -25 0 -11 -9 -19 -22 -21 -22 -3 -23 -7 -23 -98 l0 -95 175 0 c172 0 175 0 178 22 2 14 11 23 25 25 21 3 22 8 22 98 l0 95 -171 3 c-93 1 -173 -1 -177 -4z m333 -94 c0 -63 -3 -80 -15 -80 -10 0 -15 16 -17 63 l-3 62 -142 3 c-118 2 -143 5 -143 17 0 13 26 15 160 15 l160 0 0 -80z m-50 -50 l0 -80 -160 0 -160 0 0 80 0 80 160 0 160 0 0 -80z"/>
 <path d="M4957 4432 c-22 -24 -21 -65 1 -85 40 -36 102 -9 102 45 0 51 -69 78 -103 40z m73 -17 c26 -32 -13 -81 -47 -59 -35 22 -23 74 17 74 10 0 23 -7 30 -15z"/>
 <path d="M6213 4503 c-21 -44 -15 -90 19 -156 20 -38 34 -83 38 -117 l5 -55 145 0 145 0 5 55 c4 34 18 79 38 117 34 66 40 112 20 156 -14 29 -28 36 -28 12 0 -13 -27 -15 -180 -15 -153 0 -180 2 -180 15 0 24 -14 17 -27 -12z m407 -53 l0 -30 -200 0 -200 0 0 30 0 30 200 0 200 0 0 -30z m-37 -105 c-26 -52 -44 -67 -58 -45 -9 14 -78 13 -93 -2 -9 -9 -15 -9 -24 0 -15 15 -84 16 -93 2 -14 -22 -32 -7 -58 45 l-27 55 190 0 190 0 -27 -55z m-193 -80 c0 -21 -5 -25 -30 -25 -25 0 -30 4 -30 25 0 21 5 25 30 25 25 0 30 -4 30 -25z m120 0 c0 -21 -5 -25 -30 -25 -25 0 -30 4 -30 25 0 21 5 25 30 25 25 0 30 -4 30 -25z m-198 -17 c3 -20 9 -23 48 -23 39 0 45 3 48 23 2 12 7 22 12 22 5 0 10 -10 12 -22 3 -20 9 -23 48 -23 39 0 45 3 48 23 6 38 22 24 22 -18 l0 -40 -130 0 -130 0 0 40 c0 42 16 56 22 18z"/>
 <path d="M3599 4422 c-7 -12 -20 -17 -33 -15 -27 5 -50 -20 -44 -45 3 -12 -2 -23 -13 -31 -24 -14 -24 -47 -1 -62 12 -7 17 -20 15 -33 -5 -27 20 -50 45 -44 12 3 23 -2 31 -13 6 -11 20 -19 31 -19 11 0 25 8 31 19 8 11 19 16 31 13 25 -6 50 17 45 44 -2 13 3 26 15 33 23 15 23 48 -1 62 -11 8 -16 19 -13 31 6 25 -17 50 -44 45 -13 -2 -26 3 -33 15 -6 10 -20 18 -31 18 -11 0 -25 -8 -31 -18z m49 -30 c4 -24 21 -29 40 -10 19 19 37 -4 23 -30 -15 -28 -14 -30 12 -34 12 -2 22 -10 22 -18 0 -8 -10 -16 -22 -18 -25 -4 -30 -21 -11 -40 19 -19 -4 -37 -30 -23 -28 15 -30 14 -34 -11 -2 -13 -10 -23 -18 -23 -8 0 -16 10 -18 23 -4 24 -21 29 -40 10 -9 -9 -15 -9 -24 0 -9 9 -9 15 0 24 19 19 14 36 -10 40 -13 2 -23 10 -23 18 0 8 10 16 23 18 24 4 29 21 10 40 -19 19 4 37 30 23 28 -15 32 -14 32 7 0 38 33 41 38 4z"/>
 <path d="M3596 4334 c-9 -8 -16 -24 -16 -34 0 -10 7 -26 16 -34 8 -9 24 -16 34 -16 10 0 26 7 34 16 9 8 16 24 16 34 0 10 -7 26 -16 34 -8 9 -24 16 -34 16 -10 0 -26 -7 -34 -16z m54 -20 c11 -12 10 -18 -3 -32 -16 -15 -18 -15 -34 0 -13 14 -14 20 -3 32 7 9 16 16 20 16 4 0 13 -7 20 -16z"/>
 <path d="M4990 4229 c0 -36 -2 -40 -15 -29 -28 23 -29 0 -2 -28 l27 -27 27 27 c27 28 26 51 -2 28 -13 -11 -15 -7 -15 29 0 22 -4 41 -10 41 -5 0 -10 -19 -10 -41z"/>
 <path d="M3494 3845 c-3 -8 4 -43 15 -77 l21 -63 -27 -20 c-108 -78 -109 -105 -5 -105 l68 0 23 -70 c17 -54 26 -70 41 -70 15 0 24 16 41 70 l23 70 68 0 c104 0 103 27 -5 105 l-27 20 21 63 c34 102 13 117 -70 51 l-51 -41 -51 41 c-55 44 -76 50 -85 26z m112 -77 c10 -16 37 -7 87 31 28 22 53 39 54 37 1 -1 -7 -33 -20 -70 l-22 -68 26 -21 c14 -12 41 -34 60 -49 l34 -27 -76 -1 -76 0 -18 -65 c-9 -36 -21 -65 -25 -65 -4 0 -16 29 -25 65 l-18 65 -76 0 c-85 1 -86 -6 4 66 l39 32 -18 58 c-10 33 -21 65 -24 73 -5 14 84 -44 94 -61z"/>
 <path d="M755 3831 c-157 -72 -152 -299 7 -366 70 -29 161 -13 217 38 58 53 77 157 42 232 -46 100 -165 143 -266 96z m184 -34 c114 -76 101 -246 -24 -307 -88 -43 -191 -6 -235 85 -78 160 109 321 259 222z"/>
 <path d="M770 3685 c-41 -42 -32 -60 10 -20 l30 29 60 -59 c33 -32 63 -56 67 -52 6 7 -114 137 -127 137 -3 0 -21 -16 -40 -35z"/>
 <path d="M1387 3844 c-4 -4 -7 -61 -7 -126 0 -96 3 -120 15 -124 8 -4 15 -18 15 -33 0 -61 65 -121 132 -121 64 0 128 62 128 123 0 14 7 28 15 31 13 5 15 26 13 128 l-3 123 -151 3 c-82 1 -153 -1 -157 -4z m293 -124 l0 -110 -140 0 -140 0 0 110 0 110 140 0 140 0 0 -110z m-230 -156 c0 -37 50 -84 90 -84 40 0 90 47 90 84 0 14 5 26 10 26 15 0 12 -37 -5 -70 -17 -32 -61 -60 -95 -60 -34 0 -78 28 -95 60 -17 33 -20 70 -5 70 6 0 10 -12 10 -26z m160 6 c0 -27 -43 -70 -70 -70 -27 0 -70 43 -70 70 0 18 6 20 70 20 64 0 70 -2 70 -20z"/>
 <path d="M1494 3729 c2 -61 12 -79 46 -79 34 0 44 18 46 79 l1 61 -47 0 -47 0 1 -61z m61 21 c-4 -12 -1 -28 6 -36 10 -12 9 -18 -4 -32 -16 -15 -18 -15 -34 0 -13 14 -14 20 -4 32 7 8 10 24 6 36 -5 16 -2 20 15 20 17 0 20 -4 15 -20z"/>
 <path d="M2055 3837 c-3 -7 -4 -89 -3 -182 l3 -170 30 -3 c17 -2 34 -10 38 -18 11 -19 46 -18 53 1 4 10 21 15 54 15 33 0 50 -5 54 -15 7 -19 42 -20 53 -1 4 8 22 16 38 18 l30 3 0 180 0 180 -173 3 c-135 2 -174 0 -177 -11z m335 -127 l0 -120 -160 0 -160 0 0 120 0 120 160 0 160 0 0 -120z m0 -175 c0 -30 -3 -35 -24 -35 -15 0 -26 7 -29 20 -3 12 -14 20 -27 20 -13 0 -24 -8 -27 -20 -4 -16 -14 -20 -53 -20 -39 0 -49 4 -53 20 -3 12 -14 20 -27 20 -13 0 -24 -8 -27 -20 -3 -13 -14 -20 -29 -20 -21 0 -24 5 -24 35 l0 35 160 0 160 0 0 -35z m-230 -40 c0 -14 -4 -25 -10 -25 -5 0 -10 11 -10 25 0 14 5 25 10 25 6 0 10 -11 10 -25z m160 0 c0 -14 -4 -25 -10 -25 -5 0 -10 11 -10 25 0 14 5 25 10 25 6 0 10 -11 10 -25z"/>
 <path d="M2120 3750 c0 -27 3 -30 30 -30 27 0 30 3 30 30 0 27 -3 30 -30 30 -27 0 -30 -3 -30 -30z"/>
 <path d="M2200 3750 c0 -27 3 -30 30 -30 27 0 30 3 30 30 0 27 -3 30 -30 30 -27 0 -30 -3 -30 -30z"/>
 <path d="M2280 3750 c0 -27 3 -30 30 -30 27 0 30 3 30 30 0 27 -3 30 -30 30 -27 0 -30 -3 -30 -30z"/>
 <path d="M2120 3670 c0 -27 3 -30 30 -30 27 0 30 3 30 30 0 27 -3 30 -30 30 -27 0 -30 -3 -30 -30z"/>
 <path d="M2200 3670 c0 -27 3 -30 30 -30 27 0 30 3 30 30 0 27 -3 30 -30 30 -27 0 -30 -3 -30 -30z"/>
 <path d="M2280 3670 c0 -27 3 -30 30 -30 27 0 30 3 30 30 0 27 -3 30 -30 30 -27 0 -30 -3 -30 -30z"/>
 <path d="M4187 3844 c-4 -4 -7 -40 -7 -81 0 -60 4 -77 20 -93 11 -11 27 -20 35 -20 22 0 18 -19 -17 -96 -26 -55 24 -99 112 -99 88 0 138 44 112 99 -18 39 -32 77 -32 85 0 5 11 12 25 15 36 9 46 38 43 119 l-3 72 -141 3 c-77 1 -143 -1 -147 -4z m53 -59 c0 -25 5 -45 10 -45 6 0 10 20 10 45 0 43 1 45 30 45 l30 0 0 -66 c0 -59 -2 -65 -17 -59 -47 19 -53 18 -53 -9 0 -30 -7 -32 -32 -9 -14 12 -18 31 -18 80 0 56 2 63 20 63 17 0 20 -7 20 -45z m160 -5 c0 -27 5 -50 10 -50 6 0 10 23 10 50 0 43 3 50 20 50 18 0 20 -7 20 -62 0 -43 -5 -67 -17 -80 -22 -25 -33 -23 -33 8 0 27 -6 28 -52 9 -16 -6 -18 0 -18 59 l0 66 30 0 c29 0 30 -1 30 -50z m-105 -110 c0 -7 -6 -15 -12 -17 -8 -3 -13 4 -13 17 0 13 5 20 13 18 6 -3 12 -11 12 -18z m95 0 c0 -11 -4 -20 -9 -20 -14 0 -23 18 -16 30 10 17 25 11 25 -10z m-27 -41 c21 -9 47 -46 47 -64 0 -3 -36 -5 -80 -5 -44 0 -80 2 -80 5 0 17 26 55 44 63 28 14 40 14 69 1z m65 -106 c-5 -28 -67 -55 -111 -49 -44 5 -87 30 -87 51 0 12 19 15 101 15 90 0 100 -2 97 -17z"/>
 <path d="M4935 3831 c-157 -72 -152 -299 7 -366 70 -29 161 -13 217 38 79 72 79 222 0 294 -58 53 -152 67 -224 34z m184 -34 c114 -76 101 -246 -24 -307 -88 -43 -191 -6 -235 85 -78 160 109 321 259 222z"/>
 <path d="M5010 3693 c0 -21 8 -33 30 -45 17 -10 30 -25 30 -36 0 -22 -30 -52 -52 -52 -17 0 -48 31 -48 48 0 7 -4 12 -10 12 -17 0 -11 -39 10 -60 43 -43 120 -11 120 50 0 21 -8 36 -30 52 -16 12 -30 30 -30 40 0 10 -4 18 -10 18 -5 0 -10 -12 -10 -27z"/>
 <path d="M6332 3829 c-124 -62 -136 -245 -21 -324 45 -32 120 -43 170 -26 29 10 35 9 57 -11 22 -21 24 -22 36 -6 10 13 16 14 24 6 6 -6 15 -9 19 -5 4 4 1 13 -5 19 -8 8 -7 14 6 24 16 12 15 15 -12 43 -21 21 -39 31 -60 31 -23 0 -43 12 -83 52 -29 28 -56 49 -59 45 -4 -4 2 -17 14 -30 27 -28 28 -37 4 -37 -22 0 -52 30 -52 52 0 19 31 48 52 48 19 0 48 -32 48 -53 0 -9 5 -17 10 -17 18 0 11 49 -10 70 -43 43 -120 11 -120 -50 0 -46 33 -74 81 -67 49 6 71 -14 33 -31 -34 -16 -59 -15 -94 3 -32 17 -60 61 -60 95 0 34 28 78 60 95 85 44 169 -23 156 -124 -6 -43 -5 -45 9 -27 35 46 6 140 -54 171 -116 60 -239 -71 -171 -182 34 -57 107 -77 173 -48 16 6 18 4 15 -16 -4 -30 -56 -45 -114 -35 -51 10 -120 78 -129 129 -12 62 3 107 49 153 68 69 155 72 226 8 46 -42 65 -91 56 -150 -3 -26 -2 -44 4 -44 15 0 23 46 17 96 -14 128 -156 202 -275 143z m253 -289 c15 -16 15 -20 3 -20 -8 0 -23 9 -33 20 -15 16 -15 20 -3 20 8 0 23 -9 33 -20z m-25 -48 c0 -12 -4 -12 -20 3 -11 10 -20 25 -20 33 0 12 4 12 20 -3 11 -10 20 -25 20 -33z"/>
 <path d="M2740 3833 c0 -5 7 -30 15 -58 13 -43 34 -69 148 -182 72 -73 139 -133 147 -133 20 0 70 51 70 71 0 8 -60 74 -132 146 -114 114 -140 135 -183 148 -57 17 -65 18 -65 8z m60 -33 c12 -7 12 -12 2 -22 -10 -10 -15 -10 -22 2 -19 29 -9 39 20 20z m150 -125 l105 -105 -23 -22 -22 -23 -107 107 c-106 106 -107 107 -88 128 10 11 21 20 24 20 4 0 53 -47 111 -105z m129 -171 c-17 -19 -25 -21 -36 -12 -11 9 -10 15 8 34 17 19 25 21 36 12 11 -9 10 -15 -8 -34z"/>
 <path d="M6966 3818 c-2 -7 -7 -40 -11 -73 -4 -40 -14 -72 -30 -96 -37 -52 -34 -102 9 -145 43 -43 80 -44 191 -6 l80 27 0 54 0 55 -53 21 c-70 28 -82 43 -96 112 -12 57 -12 58 -49 61 -24 2 -39 -1 -41 -10z m67 -51 c3 -24 9 -51 13 -60 5 -14 0 -17 -36 -17 -39 0 -42 2 -36 23 3 12 6 39 6 60 0 32 3 37 24 37 20 0 24 -6 29 -43z m76 -122 l81 -26 0 -39 0 -39 -82 -26 c-96 -30 -137 -27 -168 12 -29 37 -26 79 9 114 36 36 57 36 160 4z"/>
 <path d="M6976 3614 c-31 -30 -9 -84 34 -84 24 0 50 26 50 50 0 24 -26 50 -50 50 -10 0 -26 -7 -34 -16z m54 -20 c11 -12 10 -18 -3 -32 -16 -15 -18 -15 -34 0 -13 14 -14 20 -3 32 7 9 16 16 20 16 4 0 13 -7 20 -16z"/>
 <path d="M5580 3810 c0 -5 14 -10 30 -10 23 0 30 -4 30 -20 0 -17 -8 -19 -67 -22 l-68 -3 0 -135 0 -135 215 0 215 0 0 135 0 135 -67 3 c-60 3 -68 5 -68 22 0 16 7 20 30 20 17 0 30 5 30 10 0 6 -53 10 -140 10 -87 0 -140 -4 -140 -10z m200 -30 c0 -18 -7 -20 -60 -20 -53 0 -60 2 -60 20 0 18 7 20 60 20 53 0 60 -2 60 -20z m140 -160 l0 -120 -200 0 -200 0 0 120 0 120 200 0 200 0 0 -120z"/>
 <path d="M5540 3620 l0 -100 180 0 180 0 0 100 0 100 -180 0 -180 0 0 -100z m340 0 l0 -80 -160 0 -160 0 0 80 0 80 160 0 160 0 0 -80z"/>
 <path d="M7280 3610 c-8 -5 -23 -7 -34 -4 -13 4 -17 2 -14 -7 3 -9 16 -13 34 -11 16 1 39 3 52 3 13 1 21 6 19 13 -5 15 -38 19 -57 6z"/>
 <path d="M7280 3570 c-8 -5 -23 -7 -34 -4 -13 4 -17 2 -14 -7 3 -9 16 -13 34 -11 16 1 39 3 52 3 13 1 21 6 19 13 -5 15 -38 19 -57 6z"/>
 <path d="M2150 3151 c-52 -17 -110 -52 -110 -67 0 -40 63 -114 110 -129 l20 -6 -20 -26 c-52 -66 -4 -163 80 -163 84 0 132 97 80 163 l-20 26 20 6 c47 15 110 89 110 129 0 9 -24 28 -52 42 -56 29 -168 42 -218 25z m197 -40 c23 -11 44 -25 47 -30 11 -17 -40 -76 -84 -98 -52 -27 -96 -29 -147 -8 -45 19 -70 41 -89 77 -13 26 -13 28 11 44 74 49 184 55 262 15z m-83 -182 c58 -27 55 -115 -5 -139 -63 -26 -125 36 -100 99 19 44 60 60 105 40z"/>
 <path d="M2853 3149 c-18 -5 -48 -24 -67 -43 l-36 -33 0 28 c0 16 -4 29 -10 29 -5 0 -10 -22 -10 -50 l0 -50 50 0 c28 0 50 5 50 10 0 6 -14 10 -31 10 -30 0 -31 1 -17 22 20 30 94 68 133 68 85 0 166 -61 186 -142 16 -59 34 -64 26 -6 -12 90 -104 169 -196 167 -25 0 -60 -5 -78 -10z"/>
 <path d="M3596 3153 c-4 -4 -39 -7 -79 -8 l-72 0 0 -115 0 -115 56 0 c81 -1 100 -17 108 -90 6 -57 7 -60 36 -63 39 -5 55 19 55 85 l0 53 44 0 c68 0 76 14 76 130 0 128 -2 130 -124 130 -51 0 -96 -3 -100 -7z m192 -25 c17 -17 16 -182 -1 -196 -7 -6 -33 -12 -57 -14 l-45 -3 -5 -62 c-5 -67 -11 -79 -35 -70 -9 4 -15 19 -15 41 0 51 -15 82 -49 102 -31 18 -31 19 -31 102 l0 83 33 14 c40 18 188 20 205 3z m-258 -98 l0 -100 -35 0 -35 0 0 100 0 100 35 0 35 0 0 -100z"/>
 <path d="M4315 3148 c-2 -7 -6 -35 -8 -63 -6 -62 -28 -79 -106 -80 l-56 0 0 -115 0 -115 65 -3 c36 -1 113 -5 171 -8 138 -7 139 -7 139 126 0 116 -8 130 -76 130 l-44 0 0 51 c0 66 -13 89 -51 89 -16 0 -31 -6 -34 -12z m60 -30 c2 -13 6 -43 7 -68 l3 -45 45 -3 c24 -2 50 -8 57 -14 17 -14 18 -179 1 -196 -17 -17 -160 -15 -203 2 l-35 15 0 83 c0 83 0 84 31 102 34 20 49 51 49 100 0 18 3 36 7 39 14 14 33 6 38 -15z m-145 -228 l0 -100 -35 0 -35 0 0 100 0 100 35 0 35 0 0 -100z"/>
 <path d="M5049 3123 c-40 -20 -91 -55 -114 -78 -44 -43 -115 -173 -115 -208 0 -28 48 -77 76 -77 20 0 84 60 84 79 0 5 -10 21 -21 36 l-22 27 71 70 70 71 27 -22 c35 -27 38 -27 80 10 42 37 44 63 8 101 -35 37 -56 35 -144 -9z m107 6 c10 -17 -46 -69 -75 -69 -17 0 -45 -21 -93 -68 -47 -48 -68 -76 -68 -93 0 -33 -55 -88 -71 -72 -17 17 41 133 97 193 29 31 74 64 117 85 77 38 83 40 93 24z m39 -40 c9 -14 -34 -59 -57 -59 -25 0 -23 9 9 42 29 30 38 34 48 17z m-245 -247 c0 -28 -47 -69 -62 -54 -9 9 -5 19 17 42 33 34 45 38 45 12z"/>
 <path d="M1355 3137 c-3 -7 -4 -91 -3 -187 l3 -175 185 0 185 0 0 185 0 185 -183 3 c-143 2 -184 0 -187 -11z m355 -177 l0 -170 -170 0 -170 0 0 170 0 170 170 0 170 0 0 -170z"/>
 <path d="M1654 3099 c-10 -17 13 -36 27 -22 12 12 4 33 -11 33 -5 0 -12 -5 -16 -11z"/>
 <path d="M1510 2960 c0 -73 4 -120 10 -120 6 0 10 47 10 120 0 73 -4 120 -10 120 -6 0 -10 -47 -10 -120z"/>
 <path d="M1550 2960 c0 -73 4 -120 10 -120 6 0 10 47 10 120 0 73 -4 120 -10 120 -6 0 -10 -47 -10 -120z"/>
 <path d="M1470 2960 c0 -60 4 -100 10 -100 6 0 10 40 10 100 0 60 -4 100 -10 100 -6 0 -10 -40 -10 -100z"/>
 <path d="M1590 2960 c0 -60 4 -100 10 -100 6 0 10 40 10 100 0 60 -4 100 -10 100 -6 0 -10 -40 -10 -100z"/>
 <path d="M1430 2960 c0 -33 4 -60 10 -60 6 0 10 27 10 60 0 33 -4 60 -10 60 -6 0 -10 -27 -10 -60z"/>
 <path d="M1630 2960 c0 -33 4 -60 10 -60 6 0 10 27 10 60 0 33 -4 60 -10 60 -6 0 -10 -27 -10 -60z"/>
 <path d="M6925 3114 c9 -31 9 -58 -1 -141 -8 -74 25 -131 98 -167 68 -34 128 -34 196 0 138 69 136 241 -3 309 -49 24 -62 27 -113 20 -83 -10 -123 -10 -156 -1 -28 9 -29 8 -21 -20z m270 -13 c139 -63 135 -226 -7 -285 -49 -21 -94 -20 -143 3 -84 38 -121 117 -92 192 12 30 13 47 6 66 -12 33 -9 35 27 23 23 -8 38 -7 65 4 46 20 96 19 144 -3z"/>
 <path d="M7014 2976 c-10 -26 4 -48 28 -44 17 2 23 10 23 28 0 18 -6 26 -23 28 -13 2 -25 -3 -28 -12z"/>
 <path d="M7094 2976 c-10 -26 4 -48 28 -44 17 2 23 10 23 28 0 18 -6 26 -23 28 -13 2 -25 -3 -28 -12z"/>
 <path d="M7174 2976 c-10 -26 4 -48 28 -44 17 2 23 10 23 28 0 18 -6 26 -23 28 -13 2 -25 -3 -28 -12z"/>
 <path d="M6212 3118 c-8 -8 -12 -51 -12 -128 0 -129 5 -140 60 -140 27 0 42 -7 62 -30 25 -28 31 -30 98 -30 67 0 73 2 98 30 20 23 35 30 62 30 55 0 60 11 60 140 0 77 -4 120 -12 128 -17 17 -399 17 -416 0z m403 -128 l0 -115 -41 -3 c-30 -2 -49 -11 -69 -33 -25 -25 -36 -29 -85 -29 -49 0 -60 4 -85 29 -20 22 -39 31 -69 33 l-41 3 -3 104 c-1 58 0 111 2 118 4 11 45 13 198 11 l193 -3 0 -115z"/>
 <path d="M6349 3051 c-64 -65 -20 -171 71 -171 33 0 48 6 71 29 64 65 20 171 -71 171 -33 0 -48 -6 -71 -29z m105 -2 c58 -27 55 -115 -5 -139 -63 -26 -125 36 -100 99 19 44 60 60 105 40z"/>
 <path d="M6564 2919 c-10 -17 13 -36 27 -22 12 12 4 33 -11 33 -5 0 -12 -5 -16 -11z"/>
 <path d="M5504 3107 c-2 -7 -3 -74 -2 -148 l3 -134 215 0 215 0 0 145 0 145 -213 3 c-169 2 -214 0 -218 -11z m416 -137 l0 -130 -200 0 -200 0 0 130 0 130 200 0 200 0 0 -130z"/>
 <path d="M5574 3026 c-3 -8 0 -25 7 -38 7 -13 13 -34 13 -47 1 -31 30 -50 54 -35 9 6 17 22 18 35 0 13 6 34 13 47 21 38 8 52 -49 52 -35 0 -52 -5 -56 -14z m90 -20 c-7 -18 -29 -27 -48 -20 -8 3 -17 12 -20 20 -4 11 4 14 34 14 30 0 38 -3 34 -14z m-18 -57 c10 -17 -13 -36 -27 -22 -12 12 -4 33 11 33 5 0 12 -5 16 -11z"/>
 <path d="M5750 3020 c0 -6 27 -10 60 -10 33 0 60 4 60 10 0 6 -27 10 -60 10 -33 0 -60 -4 -60 -10z"/>
 <path d="M5750 2970 c0 -6 27 -10 60 -10 33 0 60 4 60 10 0 6 -27 10 -60 10 -33 0 -60 -4 -60 -10z"/>
 <path d="M5750 2920 c0 -6 27 -10 60 -10 33 0 60 4 60 10 0 6 -27 10 -60 10 -33 0 -60 -4 -60 -10z"/>
 <path d="M678 3074 c-23 -13 -28 -22 -28 -53 0 -30 -4 -40 -20 -44 -12 -3 -20 -14 -20 -27 0 -13 8 -24 20 -27 16 -4 20 -14 20 -44 0 -34 4 -40 35 -55 51 -24 65 -14 65 46 l0 50 90 0 90 0 0 -50 c0 -60 14 -70 65 -46 31 15 35 21 35 55 0 30 4 40 20 44 12 3 20 14 20 27 0 13 -8 24 -20 27 -16 4 -20 14 -20 44 0 34 -4 40 -35 55 -51 24 -65 14 -65 -46 l0 -50 -89 0 -90 0 -3 53 c-3 44 -6 52 -23 54 -11 1 -32 -5 -47 -13z m52 -124 c0 -73 -4 -120 -10 -120 -6 0 -10 47 -10 120 0 73 4 120 10 120 6 0 10 -47 10 -120z m240 0 c0 -73 -4 -120 -10 -120 -6 0 -10 47 -10 120 0 73 4 120 10 120 6 0 10 -47 10 -120z m-280 0 c0 -60 -4 -100 -10 -100 -6 0 -10 40 -10 100 0 60 4 100 10 100 6 0 10 -40 10 -100z m320 0 c0 -60 -4 -100 -10 -100 -6 0 -10 40 -10 100 0 60 4 100 10 100 6 0 10 -40 10 -100z m-80 0 c0 -6 -37 -10 -90 -10 -53 0 -90 4 -90 10 0 6 37 10 90 10 53 0 90 -4 90 -10z"/>
 <path d="M2733 2929 c7 -51 45 -110 90 -138 76 -46 189 -36 253 24 l34 32 0 -28 c0 -16 5 -29 10 -29 6 0 10 23 10 50 l0 50 -50 0 c-27 0 -50 -4 -50 -10 0 -5 14 -10 31 -10 30 0 31 -1 17 -22 -20 -30 -94 -68 -133 -68 -85 0 -166 61 -186 142 -15 58 -34 64 -26 7z"/>
 <path d="M630 2460 c0 -5 5 -10 10 -10 14 0 13 -156 -2 -179 -6 -10 -8 -26 -5 -35 6 -14 31 -16 207 -16 176 0 201 2 207 16 3 9 1 25 -5 35 -15 23 -16 179 -2 179 6 0 10 5 10 10 0 6 -77 10 -210 10 -133 0 -210 -4 -210 -10z m80 -95 c0 -78 -2 -85 -20 -85 -18 0 -20 7 -20 85 0 78 2 85 20 85 18 0 20 -7 20 -85z m60 0 c0 -78 -2 -85 -20 -85 -18 0 -20 7 -20 85 0 78 2 85 20 85 18 0 20 -7 20 -85z m60 0 c0 -78 -2 -85 -20 -85 -18 0 -20 7 -20 85 0 78 2 85 20 85 18 0 20 -7 20 -85z m60 0 c0 -78 -2 -85 -20 -85 -18 0 -20 7 -20 85 0 78 2 85 20 85 18 0 20 -7 20 -85z m60 0 c0 -78 -2 -85 -20 -85 -18 0 -20 7 -20 85 0 78 2 85 20 85 18 0 20 -7 20 -85z m60 0 c0 -78 -2 -85 -20 -85 -18 0 -20 7 -20 85 0 78 2 85 20 85 18 0 20 -7 20 -85z m20 -115 c0 -6 -70 -10 -190 -10 -120 0 -190 4 -190 10 0 6 70 10 190 10 120 0 190 -4 190 -10z"/>
 <path d="M1427 2460 c-20 -5 -49 -17 -62 -26 -24 -16 -25 -20 -25 -123 0 -113 3 -121 38 -140 26 -14 29 -36 5 -50 -23 -12 -10 -26 14 -16 18 8 54 7 63 -2 2 -2 -2 -8 -10 -13 -8 -5 -11 -12 -7 -17 13 -12 42 12 45 39 3 24 7 25 86 30 56 4 95 12 124 27 l43 22 -3 116 -3 116 -39 20 c-44 23 -204 33 -269 17z m103 -90 c0 -79 0 -80 -25 -80 -25 0 -25 1 -25 80 0 79 0 80 25 80 25 0 25 -1 25 -80z m68 -2 c3 -78 3 -78 -23 -78 -25 0 -25 1 -25 81 0 78 1 80 23 77 20 -3 22 -9 25 -80z m-140 -5 c-3 -65 -6 -78 -20 -81 -16 -3 -18 5 -18 71 0 76 3 87 27 87 11 0 13 -17 11 -77z m200 -6 c3 -72 1 -77 -18 -77 -18 0 -20 6 -20 81 0 71 2 80 18 77 14 -3 17 -16 20 -81z m-258 -12 c0 -64 -3 -76 -20 -85 -19 -10 -20 -8 -20 63 0 68 10 97 32 97 4 0 8 -34 8 -75z m308 63 c7 -7 12 -41 12 -81 0 -59 -2 -68 -16 -63 -9 3 -18 6 -20 6 -2 0 -4 34 -4 75 0 75 5 86 28 63z m-33 -164 c22 -10 40 -23 40 -29 0 -21 -79 -48 -152 -53 l-73 -5 0 31 c0 30 -2 31 -30 26 -22 -5 -31 -2 -36 10 -9 24 -24 19 -24 -9 0 -28 -12 -32 -29 -11 -45 54 207 88 304 40z m-210 -64 c3 -5 -3 -10 -14 -10 -11 0 -23 5 -26 10 -3 6 3 10 14 10 11 0 23 -4 26 -10z m0 -40 c3 -5 -3 -10 -14 -10 -11 0 -23 5 -26 10 -3 6 3 10 14 10 11 0 23 -4 26 -10z"/>
 <path d="M2145 2451 c-157 -72 -152 -299 7 -366 100 -41 214 3 259 100 35 75 16 179 -42 232 -58 53 -152 67 -224 34z m184 -34 c114 -76 101 -246 -24 -307 -88 -43 -191 -6 -235 85 -78 160 109 321 259 222z"/>
 <path d="M2192 2268 l3 -93 33 -3 c42 -4 72 21 72 58 0 33 -28 60 -63 60 -24 0 -27 4 -27 35 0 19 -5 35 -10 35 -7 0 -10 -33 -8 -92z m82 -20 c15 -25 -3 -52 -38 -56 -24 -3 -26 -1 -26 38 0 39 2 41 26 38 15 -2 32 -11 38 -20z"/>
 <path d="M4223 2450 c-61 -37 -81 -116 -43 -178 21 -34 65 -61 78 -47 4 4 1 10 -7 13 -25 8 -60 49 -67 76 -19 76 56 151 132 132 26 -7 60 -37 80 -72 19 -31 27 -9 9 26 -20 40 -70 70 -115 70 -19 0 -49 -9 -67 -20z"/>
 <path d="M2734 2445 c-15 -37 2 -45 96 -45 83 0 90 -2 90 -20 0 -18 -8 -20 -92 -22 l-93 -3 -3 -38 c-7 -82 63 -167 151 -182 42 -8 52 -35 12 -35 -14 0 -25 -4 -25 -10 0 -6 27 -10 60 -10 33 0 60 4 60 10 0 6 -11 10 -25 10 -40 0 -30 27 13 35 87 15 157 100 150 182 l-3 38 -92 3 c-84 2 -93 5 -93 22 0 17 9 20 93 22 91 3 92 3 92 28 l0 25 -193 3 c-165 2 -193 0 -198 -13z m376 -15 c0 -6 -67 -10 -180 -10 -113 0 -180 4 -180 10 0 6 67 10 180 10 113 0 180 -4 180 -10z m0 -115 c0 -105 -118 -186 -227 -156 -75 19 -133 87 -133 156 l0 25 180 0 180 0 0 -25z"/>
 <path d="M4835 2447 c-3 -7 -4 -91 -3 -187 l3 -175 185 0 185 0 0 185 0 185 -183 3 c-143 2 -184 0 -187 -11z m355 -177 l0 -170 -170 0 -170 0 0 170 0 170 170 0 170 0 0 -170z"/>
 <path d="M4958 2404 c-77 -41 -75 -169 2 -209 84 -43 180 13 180 105 0 92 -99 149 -182 104z m121 -30 c39 -33 39 -44 0 -44 -16 0 -47 -10 -68 -22 -26 -15 -45 -19 -64 -14 -36 9 -34 31 7 72 42 42 82 45 125 8z m30 -73 c33 -21 -37 -101 -89 -101 -28 0 -90 42 -90 61 0 5 15 9 33 9 17 0 46 9 62 20 32 21 61 25 84 11z"/>
 <path d="M4874 2149 c-10 -17 13 -36 27 -22 12 12 4 33 -11 33 -5 0 -12 -5 -16 -11z"/>
 <path d="M4934 2149 c-10 -17 13 -36 27 -22 12 12 4 33 -11 33 -5 0 -12 -5 -16 -11z"/>
 <path d="M5535 2447 c-3 -7 -4 -91 -3 -187 l3 -175 185 0 185 0 0 185 0 185 -183 3 c-143 2 -184 0 -187 -11z m355 -177 l0 -170 -170 0 -170 0 0 170 0 170 170 0 170 0 0 -170z"/>
 <path d="M5658 2404 c-77 -41 -75 -169 2 -209 84 -43 180 13 180 105 0 92 -99 149 -182 104z m128 -38 c25 -24 34 -43 34 -66 0 -44 -56 -100 -100 -100 -44 0 -100 56 -100 100 0 44 56 100 100 100 23 0 42 -9 66 -34z"/>
 <path d="M5711 2329 c-13 -5 -33 -7 -44 -3 -14 4 -18 2 -15 -7 3 -9 18 -13 39 -12 19 2 49 4 67 5 18 1 31 7 29 13 -5 14 -47 16 -76 4z"/>
 <path d="M5711 2289 c-13 -5 -33 -7 -44 -3 -14 4 -18 2 -15 -7 3 -9 18 -13 39 -12 19 2 49 4 67 5 18 1 31 7 29 13 -5 14 -47 16 -76 4z"/>
 <path d="M5574 2149 c-10 -17 13 -36 27 -22 12 12 4 33 -11 33 -5 0 -12 -5 -16 -11z"/>
 <path d="M5634 2149 c-10 -17 13 -36 27 -22 12 12 4 33 -11 33 -5 0 -12 -5 -16 -11z"/>
 <path d="M6297 2445 c-10 -9 -20 -27 -23 -40 -6 -23 16 -78 36 -90 6 -4 22 -24 35 -46 26 -40 58 -55 98 -45 32 8 127 136 127 170 0 14 -9 35 -21 47 -17 17 -27 20 -57 13 -47 -10 -97 -10 -143 0 -28 6 -40 4 -52 -9z m171 -17 c39 9 50 8 65 -5 25 -23 21 -44 -16 -89 -19 -21 -39 -49 -46 -61 -14 -28 -56 -40 -76 -23 -21 18 -105 130 -105 141 0 5 8 17 19 28 16 16 24 17 65 8 33 -7 60 -7 94 1z"/>
 <path d="M7015 2446 c-63 -27 -102 -99 -93 -172 l3 -29 179 -3 c156 -2 181 0 197 14 40 36 12 104 -42 104 -17 0 -33 11 -48 31 -47 64 -126 86 -196 55z m144 -33 c33 -25 61 -79 61 -120 l0 -33 -141 0 -142 0 6 46 c6 55 31 92 78 117 41 22 100 17 138 -10z m135 -95 c14 -23 -3 -52 -33 -56 -19 -3 -21 1 -21 38 0 37 2 41 21 38 12 -2 27 -11 33 -20z"/>
 <path d="M4441 2365 c-31 -43 -33 -44 -94 -47 l-62 -3 -3 -70 c-2 -53 -8 -74 -23 -88 -23 -22 -25 -50 -3 -71 30 -31 84 -9 84 35 0 10 -9 27 -20 36 -11 10 -20 28 -20 40 0 21 5 23 50 23 28 0 50 5 50 10 0 6 -22 10 -50 10 -49 0 -50 1 -50 30 l0 30 63 0 c61 0 63 1 90 40 16 22 35 40 43 40 19 0 18 16 -2 24 -9 3 -17 6 -18 6 -1 0 -17 -20 -35 -45z m-131 -231 c11 -12 10 -18 -3 -32 -16 -15 -18 -15 -34 0 -13 14 -14 20 -3 32 7 9 16 16 20 16 4 0 13 -7 20 -16z"/>
 <path d="M3424 2376 c-3 -8 -4 -29 -2 -48 l3 -33 205 0 205 0 0 45 0 45 -203 3 c-168 2 -203 0 -208 -12z m116 -36 c0 -29 -1 -30 -50 -30 -49 0 -50 1 -50 30 0 29 1 30 50 30 49 0 50 -1 50 -30z m200 0 l0 -30 -90 0 -90 0 0 30 0 30 90 0 90 0 0 -30z m40 0 c0 -16 -4 -30 -10 -30 -5 0 -10 14 -10 30 0 17 5 30 10 30 6 0 10 -13 10 -30z m40 0 c0 -16 -4 -30 -10 -30 -5 0 -10 14 -10 30 0 17 5 30 10 30 6 0 10 -13 10 -30z"/>
 <path d="M6252 2279 c-24 -9 -37 -47 -27 -78 10 -32 72 -29 86 3 24 52 -9 93 -59 75z m44 -34 c7 -18 -13 -45 -33 -45 -19 0 -28 27 -13 45 16 19 39 19 46 0z"/>
 <path d="M6550 2282 c-20 -7 -30 -22 -30 -49 0 -30 26 -53 61 -53 22 0 30 5 35 26 12 48 -24 90 -66 76z m40 -37 c15 -18 6 -45 -13 -45 -20 0 -40 27 -33 45 7 19 30 19 46 0z"/>
 <path d="M3762 2243 c0 -16 -10 -50 -22 -76 -21 -47 -21 -77 0 -77 5 0 10 11 10 24 0 13 9 44 21 70 11 26 17 55 14 66 -9 29 -24 24 -23 -7z"/>
 <path d="M3806 2242 c4 -18 0 -41 -10 -60 -18 -34 -20 -52 -8 -52 5 0 17 17 26 38 19 42 18 93 -1 100 -9 2 -11 -5 -7 -26z"/>
 <path d="M7020 2199 c0 -11 -5 -29 -11 -40 -6 -12 -8 -28 -4 -37 5 -12 11 -5 26 28 19 43 19 70 -1 70 -5 0 -10 -9 -10 -21z"/>
 <path d="M7072 2197 c1 -13 -4 -37 -11 -55 -14 -33 -10 -62 9 -62 5 0 9 10 9 23 -1 12 5 36 12 53 13 32 8 64 -11 64 -5 0 -9 -10 -8 -23z"/>
 <path d="M7125 2201 c3 -10 0 -31 -6 -45 -9 -19 -9 -30 -1 -38 13 -13 38 62 29 86 -9 23 -30 20 -22 -3z"/>
 <path d="M6326 2178 c-20 -29 -20 -62 0 -82 46 -47 107 22 74 85 -14 26 -55 24 -74 -3z m60 -24 c4 -17 1 -31 -10 -42 -15 -15 -17 -15 -33 0 -14 14 -15 22 -5 43 15 32 40 32 48 -1z"/>
 <path d="M6440 2181 c-25 -47 1 -101 48 -101 40 0 57 73 24 103 -25 23 -59 21 -72 -2z m62 -26 c8 -19 8 -28 -2 -40 -18 -21 -29 -19 -42 10 -8 19 -8 28 2 40 18 21 29 19 42 -10z"/>
 <path d="M780 2169 c0 -11 -5 -29 -11 -40 -6 -12 -8 -28 -4 -37 5 -12 11 -5 26 28 19 43 19 70 -1 70 -5 0 -10 -9 -10 -21z"/>
 <path d="M832 2167 c1 -13 -4 -37 -11 -55 -14 -33 -10 -62 9 -62 5 0 9 10 9 23 -1 12 5 36 12 53 13 32 8 64 -11 64 -5 0 -9 -10 -8 -23z"/>
 <path d="M885 2171 c3 -10 0 -31 -6 -45 -9 -19 -9 -30 -1 -38 13 -13 38 62 29 86 -9 23 -30 20 -22 -3z"/>
 <path d="M4259 1751 c-33 -33 -40 -93 -14 -127 10 -14 14 -47 15 -121 0 -116 13 -143 70 -143 57 0 70 27 70 143 1 74 5 107 15 121 8 11 15 36 15 57 0 89 -108 133 -171 70z m122 -20 c32 -33 35 -54 14 -91 -10 -17 -14 -57 -15 -124 0 -78 -4 -103 -17 -118 -20 -22 -41 -23 -65 -1 -15 13 -18 32 -18 114 0 71 -5 108 -17 133 -13 29 -14 40 -4 64 23 56 78 66 122 23z"/>
 <path d="M4287 1722 c-21 -23 -22 -65 -2 -82 11 -9 15 -40 17 -123 l3 -112 25 0 25 0 3 112 c2 83 6 114 17 123 21 17 19 64 -3 83 -24 22 -65 21 -85 -1z m71 -14 c16 -16 15 -43 -3 -58 -12 -10 -15 -37 -15 -121 0 -66 -4 -109 -10 -109 -6 0 -10 43 -10 109 0 84 -3 111 -15 121 -28 23 -11 70 25 70 9 0 21 -5 28 -12z"/>
 <path d="M644 1755 c-3 -8 6 -39 20 -70 24 -54 26 -55 65 -55 23 0 41 -1 41 -2 0 -2 -11 -25 -25 -52 -41 -81 -27 -159 35 -191 85 -44 180 13 180 107 0 18 -11 57 -25 86 l-24 52 40 0 c39 0 41 2 65 55 14 31 23 62 20 70 -8 22 -384 22 -392 0z m360 -42 c-9 -21 -18 -44 -21 -50 -3 -8 -23 -13 -46 -13 -31 0 -48 7 -69 27 l-28 27 -28 -27 c-21 -20 -38 -27 -69 -27 -23 0 -43 5 -46 13 -3 6 -12 29 -21 50 l-16 37 180 0 180 0 -16 -37z m-130 -78 c36 -47 66 -114 66 -148 0 -20 -11 -40 -34 -63 -42 -42 -82 -45 -125 -8 -38 32 -48 78 -27 128 17 41 75 126 87 126 3 0 19 -16 33 -35z"/>
 <path d="M806 1524 c-31 -30 -9 -84 34 -84 24 0 50 26 50 50 0 24 -26 50 -50 50 -10 0 -26 -7 -34 -16z m54 -20 c11 -12 10 -18 -3 -32 -16 -15 -18 -15 -34 0 -13 14 -14 20 -3 32 7 9 16 16 20 16 4 0 13 -7 20 -16z"/>
 <path d="M1344 1757 c-2 -7 -3 -74 -2 -148 l3 -134 62 -3 62 -3 -29 -41 c-17 -23 -30 -45 -30 -50 0 -20 20 -4 51 42 19 27 41 49 49 49 8 0 30 -22 49 -49 31 -46 51 -62 51 -42 0 5 -13 28 -30 50 l-30 41 93 3 92 3 0 145 0 145 -193 3 c-152 2 -194 0 -198 -11z m376 -137 l0 -130 -180 0 -180 0 0 130 0 130 180 0 180 0 0 -130z"/>
 <path d="M1380 1620 l0 -110 130 0 130 0 0 110 0 110 -130 0 -130 0 0 -110z m240 0 l0 -90 -110 0 -110 0 0 90 0 90 110 0 110 0 0 -90z"/>
 <path d="M1664 1589 c-10 -17 13 -36 27 -22 12 12 4 33 -11 33 -5 0 -12 -5 -16 -11z"/>
 <path d="M1664 1539 c-10 -17 13 -36 27 -22 12 12 4 33 -11 33 -5 0 -12 -5 -16 -11z"/>
 <path d="M2807 1764 c-11 -11 -8 -152 3 -159 6 -3 10 -26 10 -49 0 -35 -4 -45 -20 -49 -17 -4 -20 -14 -20 -71 0 -37 4 -66 10 -66 6 0 10 27 10 60 0 33 4 60 10 60 6 0 10 -27 10 -60 0 -33 4 -60 10 -60 6 0 10 27 10 60 0 33 4 60 10 60 6 0 10 -27 10 -60 0 -33 4 -60 10 -60 6 0 10 29 10 66 0 57 -3 67 -20 71 -16 4 -20 14 -20 47 0 23 5 47 10 52 6 6 10 43 8 85 -3 66 -5 74 -23 77 -12 2 -24 0 -28 -4z m33 -79 c0 -37 -4 -65 -10 -65 -6 0 -10 28 -10 65 0 37 4 65 10 65 6 0 10 -28 10 -65z"/>
 <path d="M3017 1763 c-4 -3 -7 -39 -7 -80 0 -56 4 -75 15 -79 19 -8 20 -34 1 -34 -32 0 -46 -30 -46 -100 0 -75 16 -103 54 -98 20 3 21 10 29 187 4 101 6 190 3 198 -6 14 -38 18 -49 6z m33 -78 c0 -37 -4 -65 -10 -65 -6 0 -10 28 -10 65 0 37 4 65 10 65 6 0 10 -28 10 -65z m-10 -215 c0 -79 -5 -91 -28 -68 -16 16 -16 120 0 136 23 23 28 11 28 -68z"/>
 <path d="M5010 1738 c0 -30 0 -31 -20 -13 -31 28 -37 8 -7 -23 21 -22 27 -38 27 -71 l0 -42 -39 22 c-30 16 -41 30 -46 55 -6 37 -25 47 -25 14 0 -23 -4 -24 -31 -10 -14 8 -19 7 -19 -3 0 -8 10 -19 23 -25 l22 -11 -22 -7 c-38 -11 -27 -27 14 -19 26 5 45 2 70 -12 18 -9 33 -20 33 -23 0 -3 -15 -14 -33 -23 -25 -14 -44 -17 -70 -12 -25 5 -37 3 -37 -4 0 -6 7 -11 15 -11 8 0 15 -5 15 -10 0 -6 -7 -13 -15 -16 -25 -10 -17 -27 10 -20 20 5 25 3 25 -14 0 -33 19 -23 25 14 5 25 16 39 46 55 l39 22 0 -42 c0 -33 -6 -49 -27 -71 -30 -31 -24 -51 7 -23 20 18 20 17 20 -13 0 -18 5 -32 10 -32 6 0 10 14 10 32 0 30 0 31 20 13 31 -28 37 -8 7 23 -21 22 -27 38 -27 71 l0 42 39 -22 c30 -16 41 -30 46 -55 6 -37 25 -47 25 -14 0 17 5 19 25 14 27 -7 35 10 10 20 -8 3 -15 10 -15 16 0 5 7 10 15 10 8 0 15 5 15 11 0 7 -12 9 -37 4 -26 -5 -45 -2 -70 12 -18 9 -33 20 -33 23 0 3 15 14 33 23 25 14 44 17 70 12 25 -5 37 -3 37 4 0 6 -7 11 -15 11 -8 0 -15 5 -15 10 0 6 7 13 15 16 8 4 15 13 15 20 0 11 -4 12 -19 4 -27 -14 -31 -13 -31 10 0 33 -19 23 -25 -14 -5 -25 -16 -39 -46 -55 l-39 -22 0 42 c0 33 6 49 27 71 30 31 24 51 -7 23 -20 -18 -20 -17 -20 13 0 18 -4 32 -10 32 -5 0 -10 -14 -10 -32z"/>
 <path d="M6352 1758 c-6 -6 -12 -18 -12 -25 0 -9 -15 -13 -48 -13 -64 0 -82 -19 -82 -87 0 -32 5 -55 15 -63 10 -9 13 -24 8 -55 -4 -35 -2 -46 16 -64 12 -12 34 -21 51 -21 17 0 39 9 51 21 18 18 20 29 15 65 -6 48 -5 50 26 32 45 -27 66 -60 61 -99 -7 -46 22 -79 67 -79 46 0 74 33 67 81 -4 29 0 42 14 55 16 14 19 31 19 99 0 96 -13 115 -76 115 -31 0 -41 5 -49 23 -9 19 -19 22 -70 25 -38 2 -65 -2 -73 -10z m126 -41 c5 -39 -14 -57 -57 -57 -44 0 -61 14 -61 50 0 37 7 41 65 38 47 -3 50 -5 53 -31z m-138 -29 c0 -6 6 -19 14 -27 10 -11 12 -26 7 -51 -6 -34 -9 -35 -55 -38 -26 -2 -54 2 -62 9 -17 14 -19 90 -2 107 16 16 98 16 98 0z m248 0 c7 -7 12 -41 12 -83 0 -42 -5 -76 -12 -83 -17 -17 -123 -16 -137 1 -8 11 -6 18 10 33 16 15 20 27 16 56 -3 25 0 41 9 49 8 6 14 18 14 25 0 18 71 19 88 2z m-138 -63 c26 -32 -13 -81 -47 -59 -35 22 -23 74 17 74 10 0 23 -7 30 -15z m-118 -92 c22 -20 23 -41 1 -65 -20 -22 -41 -23 -65 -1 -22 20 -23 41 -1 65 20 22 41 23 65 1z m220 -60 c22 -20 23 -41 1 -65 -20 -22 -41 -23 -65 -1 -22 20 -23 41 -1 65 20 22 41 23 65 1z"/>
 <path d="M6920 1760 c0 -5 7 -10 15 -10 13 0 15 -27 15 -180 0 -153 -2 -180 -15 -180 -8 0 -15 -4 -15 -10 0 -6 73 -10 200 -10 127 0 200 4 200 10 0 6 -7 10 -15 10 -13 0 -15 27 -15 180 0 153 2 180 15 180 8 0 15 5 15 10 0 6 -73 10 -200 10 -127 0 -200 -4 -200 -10z m190 -190 l0 -180 -70 0 -70 0 0 180 0 180 70 0 70 0 0 -180z m160 0 l0 -180 -70 0 -70 0 0 180 0 180 70 0 70 0 0 -180z"/>
 <path d="M7030 1580 c0 -31 -3 -38 -15 -34 -21 9 -19 -10 5 -31 19 -17 21 -17 40 0 24 21 26 40 5 31 -12 -4 -15 3 -15 34 0 22 -4 40 -10 40 -5 0 -10 -18 -10 -40z"/>
 <path d="M7177 1602 c-21 -23 -22 -36 -2 -28 12 4 15 -3 15 -34 0 -22 5 -40 10 -40 6 0 10 18 10 40 0 31 3 38 15 34 21 -8 19 9 -3 29 -23 21 -25 21 -45 -1z"/>
 <path d="M5546 1748 c-9 -29 -18 -86 -23 -150 -4 -62 -3 -68 20 -88 14 -12 31 -42 37 -66 7 -25 21 -49 31 -54 10 -6 59 -10 109 -10 50 0 99 4 109 10 10 5 24 29 31 54 6 24 23 54 37 66 23 20 24 26 20 88 -3 37 -9 87 -14 112 -8 43 -9 45 -43 45 -32 0 -35 -3 -38 -32 l-3 -33 -99 0 -99 0 -3 33 c-3 28 -7 32 -36 35 -20 2 -34 -2 -36 -10z m54 -33 c0 -18 -5 -25 -20 -25 -15 0 -20 7 -20 25 0 18 5 25 20 25 15 0 20 -7 20 -25z m280 0 c0 -18 -5 -25 -20 -25 -15 0 -20 7 -20 25 0 18 5 25 20 25 15 0 20 -7 20 -25z m8 -57 c7 -7 12 -35 12 -63 0 -28 -5 -56 -12 -63 -8 -8 -60 -12 -168 -12 -108 0 -160 4 -168 12 -7 7 -12 35 -12 63 0 28 5 56 12 63 8 8 60 12 168 12 108 0 160 -4 168 -12z m-43 -185 c-16 -66 -27 -73 -125 -73 -98 0 -109 7 -125 73 l-7 27 132 0 132 0 -7 -27z"/>
 <path d="M5580 1615 c-26 -32 13 -81 48 -59 34 22 22 74 -18 74 -10 0 -23 -7 -30 -15z m46 -16 c10 -17 -13 -36 -27 -22 -12 12 -4 33 11 33 5 0 12 -5 16 -11z"/>
 <path d="M5800 1615 c-26 -32 13 -81 48 -59 34 22 22 74 -18 74 -10 0 -23 -7 -30 -15z m46 -16 c10 -17 -13 -36 -27 -22 -12 12 -4 33 11 33 5 0 12 -5 16 -11z"/>
 <path d="M3420 1740 c0 -5 7 -10 15 -10 13 0 15 -22 15 -135 0 -85 -4 -142 -12 -154 -6 -10 -8 -26 -5 -35 6 -14 30 -16 197 -16 167 0 191 2 197 16 3 9 1 25 -5 35 -8 12 -12 69 -12 154 0 113 2 135 15 135 8 0 15 5 15 10 0 6 -77 10 -210 10 -133 0 -210 -4 -210 -10z m70 -150 c0 -87 -4 -140 -10 -140 -6 0 -10 53 -10 140 0 87 4 140 10 140 6 0 10 -53 10 -140z m260 115 c0 -21 -5 -25 -27 -25 -16 0 -37 7 -47 15 -11 8 -32 15 -46 15 -14 0 -35 -7 -46 -15 -10 -8 -31 -15 -46 -15 -23 0 -28 4 -28 25 l0 25 120 0 120 0 0 -25z m40 -115 c0 -87 -4 -140 -10 -140 -6 0 -10 53 -10 140 0 87 4 140 10 140 6 0 10 -53 10 -140z m-120 80 c22 -22 25 -52 9 -99 -14 -39 -26 -40 -34 -1 -7 34 -16 37 -36 14 -12 -14 -14 -14 -26 2 -29 39 0 104 47 104 11 0 29 -9 40 -20z m-120 -42 c0 -34 32 -98 49 -98 5 0 12 8 15 17 5 13 10 10 24 -17 9 -19 22 -35 28 -37 13 -4 44 92 44 135 0 25 4 32 20 32 19 0 20 -7 20 -105 l0 -105 -120 0 -120 0 0 105 c0 98 1 105 20 105 16 0 20 -7 20 -32z m260 -208 c0 -6 -67 -10 -180 -10 -113 0 -180 4 -180 10 0 6 67 10 180 10 113 0 180 -4 180 -10z"/>
 <path d="M2196 1724 c-9 -8 -16 -24 -16 -34 0 -10 7 -26 16 -34 8 -9 24 -16 34 -16 43 0 65 54 34 84 -8 9 -24 16 -34 16 -10 0 -26 -7 -34 -16z m54 -20 c11 -12 10 -18 -3 -32 -16 -15 -18 -15 -34 0 -13 14 -14 20 -3 32 7 9 16 16 20 16 4 0 13 -7 20 -16z"/>
 <path d="M2140 1601 c0 -16 55 -41 90 -41 35 0 90 25 90 41 0 7 -7 8 -17 4 -67 -28 -74 -29 -100 -18 -16 6 -36 14 -45 18 -11 4 -18 3 -18 -4z"/>
 <path d="M2080 1546 c0 -23 98 -66 150 -66 52 0 150 43 150 66 0 19 -3 18 -46 -11 -20 -13 -51 -27 -70 -31 -47 -9 -96 2 -138 31 -43 29 -46 30 -46 11z"/>
 <path d="M2020 1490 c0 -15 89 -69 135 -81 63 -17 155 -6 214 26 28 16 56 34 63 42 22 27 0 23 -57 -11 -99 -60 -191 -60 -290 -1 -64 39 -65 39 -65 25z"/>
 <path d="M3558 1066 c-43 -17 -83 -37 -88 -42 -7 -7 -9 -72 -8 -175 l3 -164 150 0 150 0 3 43 c2 25 -1 42 -7 42 -6 0 -11 -16 -11 -35 l0 -35 -102 0 -103 1 65 27 65 28 3 127 3 127 34 0 c31 0 35 -3 35 -25 0 -14 5 -25 11 -25 6 0 9 14 7 33 -3 30 -6 32 -45 35 -39 3 -42 5 -45 35 -4 43 -24 43 -120 3z m102 -139 l0 -154 -37 -15 c-21 -9 -62 -25 -90 -37 l-53 -21 0 154 0 154 88 35 c48 20 88 36 90 37 1 0 2 -69 2 -153z"/>
 <path d="M3620 910 c0 -16 5 -30 10 -30 6 0 10 14 10 30 0 17 -4 30 -10 30 -5 0 -10 -13 -10 -30z"/>
 <path d="M2179 1038 c-120 -151 -130 -285 -27 -348 69 -42 165 -17 209 52 27 43 21 125 -14 194 -29 57 -103 154 -117 154 -5 0 -28 -24 -51 -52z m94 -25 c57 -79 80 -133 81 -190 1 -64 -24 -102 -82 -123 -37 -13 -47 -13 -84 0 -112 40 -112 160 -1 313 19 26 38 47 43 47 5 0 24 -21 43 -47z"/>
 <path d="M2187 862 c-22 -24 -21 -65 1 -85 40 -36 102 -9 102 45 0 51 -69 78 -103 40z m73 -17 c26 -32 -13 -81 -47 -59 -35 22 -23 74 17 74 10 0 23 -7 30 -15z"/>
 <path d="M755 1008 c-91 -91 -129 -163 -122 -227 10 -88 97 -128 175 -81 32 20 32 20 65 0 77 -47 164 -7 174 81 4 36 0 56 -22 100 -28 54 -162 199 -185 199 -7 0 -45 -33 -85 -72z m161 -24 c104 -104 137 -201 88 -256 -25 -27 -76 -33 -114 -13 -26 14 -31 20 -25 38 23 69 -2 127 -42 101 -19 -12 -22 -59 -8 -101 16 -48 -99 -69 -139 -25 -49 55 -16 152 88 256 36 36 70 66 76 66 6 0 40 -30 76 -66z m-61 -155 c9 -14 -3 -59 -15 -59 -5 0 -12 11 -16 24 -6 26 1 46 16 46 5 0 12 -5 15 -11z"/>
 <path d="M1455 1008 c-91 -91 -129 -163 -122 -227 10 -88 97 -128 175 -81 32 20 32 20 65 0 77 -47 164 -7 174 81 4 36 0 56 -22 100 -28 54 -162 199 -185 199 -7 0 -45 -33 -85 -72z m162 -25 c133 -135 147 -261 32 -279 -26 -4 -43 0 -71 20 l-38 25 -37 -25 c-29 -20 -46 -24 -72 -20 -116 18 -101 147 33 280 36 36 70 66 76 66 6 0 40 -30 77 -67z"/>
 <path d="M2787 1074 c-4 -4 -7 -47 -7 -95 0 -83 -1 -88 -22 -91 -46 -6 -27 -42 69 -132 50 -47 96 -86 103 -86 7 0 53 39 103 86 95 90 115 126 70 132 -21 3 -22 9 -25 95 l-3 92 -141 3 c-77 1 -143 -1 -147 -4z m95 -66 l3 -53 45 0 45 0 3 53 3 52 40 0 39 0 0 -99 0 -100 -60 -53 c-33 -29 -65 -53 -70 -53 -5 0 -37 24 -70 53 l-60 53 0 100 0 99 39 0 40 0 3 -52z m78 7 c0 -43 -1 -45 -30 -45 -29 0 -30 2 -30 45 0 43 1 45 30 45 29 0 30 -2 30 -45z m-30 -295 c9 0 49 34 90 75 41 41 76 72 79 69 8 -8 -152 -164 -169 -164 -16 0 -170 149 -170 165 0 5 35 -25 78 -68 42 -42 84 -77 92 -77z"/>
 <path d="M5532 1068 c-24 -24 -12 -54 41 -106 36 -35 61 -52 78 -52 36 0 40 -8 24 -41 -60 -114 72 -237 182 -169 18 10 39 33 48 49 57 112 -63 234 -174 176 -33 -17 -41 -12 -41 25 0 18 -16 41 -53 78 -52 52 -82 63 -105 40z m92 -57 c47 -48 57 -81 23 -81 -22 0 -110 97 -104 114 10 27 30 18 81 -33z m216 -106 c32 -17 60 -61 60 -95 0 -53 -57 -110 -110 -110 -53 0 -110 57 -110 110 0 33 28 78 58 94 35 20 66 20 102 1z"/>
 <path d="M6975 1068 c-3 -8 -4 -97 -3 -198 l3 -185 145 0 145 0 0 195 0 195 -42 3 c-26 2 -43 -1 -43 -7 0 -6 16 -11 35 -11 l35 0 0 -180 0 -180 -130 0 -130 0 0 180 0 180 60 0 60 0 0 -65 c0 -63 -1 -65 -25 -65 -23 0 -25 -4 -25 -41 0 -49 18 -69 60 -69 42 0 60 20 60 69 0 37 -3 41 -25 41 -23 0 -24 3 -27 73 l-3 72 -73 3 c-53 2 -74 -1 -77 -10z m135 -173 c0 -8 5 -15 10 -15 6 0 10 7 10 15 0 8 7 15 15 15 9 0 15 -9 15 -21 0 -22 -22 -49 -40 -49 -18 0 -40 27 -40 49 0 12 6 21 15 21 8 0 15 -7 15 -15z"/>
 <path d="M4167 1044 c-4 -4 -7 -17 -7 -30 0 -12 -7 -24 -15 -28 -9 -3 -15 -18 -15 -37 0 -21 -8 -37 -25 -51 -45 -35 -23 -108 33 -108 17 0 22 -6 22 -24 0 -50 20 -56 170 -56 150 0 170 6 170 56 0 19 5 24 23 24 55 0 76 73 32 108 -17 14 -25 30 -25 50 0 17 -6 35 -14 39 -8 4 -16 19 -18 33 -2 19 -9 25 -28 25 -20 0 -26 -6 -28 -27 l-3 -28 -109 0 -109 0 -3 28 c-3 26 -34 43 -51 26z m33 -34 c0 -11 -4 -20 -10 -20 -5 0 -10 9 -10 20 0 11 5 20 10 20 6 0 10 -9 10 -20z m280 0 c0 -11 -4 -20 -10 -20 -5 0 -10 9 -10 20 0 11 5 20 10 20 6 0 10 -9 10 -20z m30 -74 c0 -25 6 -38 26 -50 29 -19 30 -52 1 -70 -31 -19 -52 4 -55 63 l-3 51 -149 0 -149 0 -3 -51 c-3 -59 -24 -82 -55 -63 -29 18 -28 51 1 70 20 12 26 25 26 50 l0 34 180 0 180 0 0 -34z m-50 -70 c0 -25 5 -48 10 -51 14 -9 13 -58 -2 -73 -17 -17 -259 -17 -276 0 -15 15 -16 64 -2 73 6 3 10 26 10 51 l0 44 130 0 130 0 0 -44z"/>
 <path d="M4804 1027 c-2 -7 -3 -78 -2 -157 l3 -145 215 0 215 0 0 155 0 155 -213 3 c-168 2 -214 0 -218 -11z m341 -67 l-59 -60 -33 32 -33 32 -33 -32 -33 -32 -59 60 -59 60 184 0 184 0 -59 -60z m-262 -132 c-32 -32 -59 -58 -60 -58 -2 0 -3 53 -3 117 l0 117 60 -59 60 -59 -57 -58z m337 55 l0 -117 -60 59 -60 59 57 58 c32 32 59 58 60 58 2 0 3 -53 3 -117z m-100 -48 l95 -95 -195 0 -195 0 95 95 c52 52 97 95 100 95 3 0 48 -43 100 -95z"/>
 <path d="M6260 1010 c0 -6 60 -10 160 -10 100 0 160 4 160 10 0 6 -60 10 -160 10 -100 0 -160 -4 -160 -10z"/>
 <path d="M3707 934 c-13 -13 -6 -79 12 -109 25 -42 59 -40 83 4 12 20 18 48 16 70 -3 36 -3 36 -53 39 -28 2 -54 0 -58 -4z m93 -44 c0 -28 -2 -30 -40 -30 -38 0 -40 2 -40 30 0 28 2 30 40 30 38 0 40 -2 40 -30z m-22 -62 c-3 -7 -11 -13 -18 -13 -7 0 -15 6 -17 13 -3 7 4 12 17 12 13 0 20 -5 18 -12z"/>
 <path d="M6260 930 c0 -6 60 -10 160 -10 100 0 160 4 160 10 0 6 -60 10 -160 10 -100 0 -160 -4 -160 -10z"/>
 <path d="M6260 850 c0 -6 60 -10 160 -10 100 0 160 4 160 10 0 6 -60 10 -160 10 -100 0 -160 -4 -160 -10z"/>
 <path d="M6260 770 c0 -6 60 -10 160 -10 100 0 160 4 160 10 0 6 -60 10 -160 10 -100 0 -160 -4 -160 -10z"/>
 </g>

</svg>